<svg width="60" height="60" viewBox="0 0 60 60" fill="none" xmlns="http://www.w3.org/2000/svg">
<path d="M51.1981 8.78423C45.5343 3.11975 38.0029 0 29.9915 0C21.98 0 14.4487 3.11975 8.78423 8.78423C3.11914 14.4487 0 21.98 0 29.9915C0 46.5291 13.4538 59.983 29.9915 59.983C38.0029 59.983 45.5343 56.8632 51.1981 51.1987C56.8626 45.5349 59.9824 38.0035 59.9824 29.9915C59.9824 21.9794 56.8626 14.4487 51.1981 8.78423ZM9.80772 12.3993C14.7177 7.58915 21.0971 4.96227 27.8319 4.96227C28.0437 4.96227 28.2561 4.96471 28.4684 4.96958C35.3006 5.1576 41.646 7.99075 46.8182 13.163C51.9886 18.3339 54.8223 24.6793 55.011 31.5115C55.1868 38.4763 52.465 45.297 47.5447 50.2245C44.5248 53.2524 40.9158 55.4564 36.9831 56.744C40.1716 55.4546 43.107 53.5165 45.6268 50.9839C50.3779 46.217 52.8794 39.6495 52.4906 32.9652C52.1273 26.7373 49.3288 20.9645 44.1712 15.8075C39.0088 10.6444 33.2354 7.84593 27.0135 7.48814C20.432 7.10783 14.0763 9.51503 9.11647 14.2607C6.63016 16.6393 4.69758 19.4165 3.37349 22.448C4.69758 18.7039 6.87234 15.2757 9.80772 12.3993ZM9.9641 15.1479C14.3544 10.9468 19.8893 8.67653 25.6712 8.67653C26.0935 8.67653 26.5182 8.6887 26.9429 8.71303C32.939 9.05744 38.2907 11.6618 43.3041 16.6752C48.312 21.6831 50.9164 27.0348 51.2657 33.0364C51.6356 39.3726 49.2631 45.5988 44.7578 50.1193C41.9387 52.9524 38.5749 55.0055 34.9142 56.1902C37.8325 55.0006 40.5233 53.2135 42.8398 50.8768C47.1845 46.5097 49.3367 40.5209 48.7422 34.4457C48.2153 29.0477 45.7217 24.383 40.6578 19.3191C35.5854 14.2467 30.9194 11.7525 25.53 11.2334C19.7377 10.6766 13.8189 12.7778 9.28319 16.9983V16.9977C6.93745 19.1804 5.11501 21.7379 3.87185 24.5363C5.10892 21.029 7.16746 17.8234 9.9641 15.1479ZM10.1193 17.897C13.9479 14.3349 18.811 12.3725 23.6875 12.3725C24.2631 12.3725 24.8388 12.3999 25.4126 12.4553C30.499 12.9451 34.9337 15.3298 39.7913 20.1868C44.641 25.0359 47.0251 29.4706 47.5228 34.5655C48.0802 40.2757 46.057 45.9054 41.9709 50.0134C39.3453 52.6603 36.2176 54.5674 32.8185 55.6487C35.4777 54.5582 37.9329 52.9177 40.0554 50.7704C43.9412 46.8535 45.7874 41.3028 44.9945 35.9213C44.1572 30.2446 40.8038 26.4902 37.1443 22.8313C33.4782 19.1651 29.7177 15.8063 24.0538 14.9817C18.9546 14.2418 13.6327 15.9724 9.45236 19.7353C7.2423 21.7245 5.52817 24.066 4.36534 26.6356C5.51235 23.3601 7.4571 20.3736 10.1193 17.897ZM10.2732 20.6474C13.5907 17.6603 17.6652 16.0399 21.719 16.0399C22.4401 16.0399 23.1611 16.091 23.8761 16.1951C29.1688 16.9654 32.7626 20.1838 36.2772 23.6984C39.7846 27.2064 42.9981 30.7941 43.7806 36.1002C44.5175 41.1014 42.7991 46.2626 39.184 49.9069C36.7774 52.3415 33.9175 54.086 30.819 55.0675C33.1812 54.0757 35.3675 52.5946 37.2697 50.6627C40.718 47.176 42.2399 42.0896 41.2407 37.3883C40.2988 32.9506 37.6098 30.2866 34.4956 27.2028L32.7565 25.4631C29.6739 22.35 27.0117 19.6617 22.5837 18.7331C18.1605 17.8039 13.4404 19.1682 9.62213 22.4711C7.52586 24.2832 5.91153 26.4342 4.8278 28.8037C5.88049 25.732 7.72423 22.9409 10.2732 20.6474ZM10.4247 23.3984C13.2329 20.9706 16.5547 19.6751 19.8314 19.6751C20.6712 19.6751 21.5079 19.7603 22.3324 19.9331C26.4001 20.7862 28.9424 23.3534 31.8863 26.3265L33.6333 28.0741C36.6076 31.0198 39.1761 33.564 40.042 37.6433C40.956 41.9454 39.5595 46.604 36.3971 49.8016C34.1651 52.0689 31.5212 53.6759 28.6589 54.5473C30.785 53.6534 32.7601 52.3153 34.4852 50.5556C37.5198 47.4735 38.6966 42.877 37.4833 38.8439C36.5346 35.6876 34.4743 33.8384 32.2934 31.8815C31.5827 31.2444 30.8489 30.5854 30.1181 29.8546C29.386 29.1226 28.7258 28.3857 28.0875 27.6737C26.1288 25.4892 24.2802 23.4258 21.1275 22.4887C17.3816 21.3752 13.2506 22.3634 9.79555 25.2038C7.82159 26.8267 6.31131 28.7721 5.3079 30.9255C6.26263 28.0747 7.99927 25.4953 10.4247 23.3984ZM10.575 26.1513C12.8745 24.2601 15.4886 23.2688 18.0425 23.2688C18.968 23.2688 19.8862 23.3997 20.7777 23.6644C23.5974 24.5029 25.2544 26.3521 27.1735 28.4934C27.8228 29.2181 28.494 29.9665 29.2503 30.7223C30.0049 31.4768 30.7515 32.1468 31.4738 32.7948C33.612 34.7134 35.4588 36.3703 36.3089 39.1974C37.3944 42.8076 36.3363 46.9277 33.6102 49.6964C31.5906 51.7567 29.2741 53.177 26.7628 53.9461C28.5414 53.1544 30.2014 51.9843 31.6995 50.4479C34.3489 47.7437 35.1582 43.6589 33.7136 40.2848C32.754 38.0407 31.1421 36.8839 29.4347 35.659C28.4958 34.9854 27.5246 34.2887 26.6034 33.3674C25.6827 32.4474 24.9866 31.475 24.313 30.5355C23.0857 28.8238 21.9271 27.207 19.6848 26.2565C16.6387 24.9659 13.0084 25.5945 9.97079 27.936V27.9366C8.1374 29.3501 6.74638 31.0667 5.82329 32.978C6.68188 30.3754 8.28952 28.0303 10.575 26.1513ZM19.2065 27.3847C21.1324 28.2013 22.1449 29.6136 23.3175 31.2492C24.0191 32.2295 24.7457 33.2427 25.7375 34.2339C26.73 35.227 27.7425 35.9529 28.7203 36.6551C30.3523 37.8259 31.7616 38.8372 32.5873 40.7667C33.8384 43.6899 33.1295 47.2356 30.8227 49.5905C28.9954 51.4647 26.9095 52.7388 24.6605 53.4021C26.1835 52.706 27.6135 51.6831 28.9157 50.3389C31.1774 48.0121 31.6022 44.3806 29.9258 41.7044C28.9339 40.1205 27.5143 39.4524 26.1415 38.8055C25.0986 38.3145 24.0203 37.807 23.0918 36.8784C22.165 35.9517 21.6563 34.8716 21.1647 33.8262C20.5166 32.4504 19.8467 31.0278 18.2646 30.0432C15.858 28.5445 12.8259 28.7763 10.1546 30.6639C8.4453 31.8711 7.1705 33.3279 6.33321 34.9732C7.08288 32.6415 8.553 30.5793 10.7217 28.9065V28.9071C13.4027 26.8401 16.5772 26.2699 19.2065 27.3847ZM25.2477 49.38C22.8989 51.8224 20.101 52.9098 17.1644 52.518C14.613 52.1796 12.0293 50.7077 10.0755 48.4794C8.14653 46.2797 7.04089 43.6005 7.0415 41.1282C7.04211 38.3534 8.40818 36.0369 10.9931 34.4286C11.694 33.9929 12.563 33.6826 13.4544 33.6826C14.3276 33.6826 15.2227 33.9796 16.004 34.7463C16.803 35.53 16.9916 36.5724 17.1918 37.6762C17.4048 38.8573 17.6476 40.1953 18.7106 41.2584C19.7755 42.3232 21.1105 42.5636 22.2892 42.7747C23.3918 42.9731 24.4335 43.1605 25.2233 43.965C26.6551 45.4241 26.6661 47.905 25.2477 49.38ZM26.1318 50.2306C28.0297 48.2561 28.0145 45.0602 26.0977 43.1058C25.0353 42.022 23.6911 41.7811 22.5058 41.5675C21.4075 41.3697 20.37 41.1835 19.5771 40.3907C18.7861 39.5984 18.5974 38.5585 18.3978 37.4571C18.183 36.2718 17.9396 34.9276 16.8626 33.8706C15.1174 32.1559 12.6208 31.9715 10.3444 33.3875C8.62663 34.4566 7.53681 35.7022 6.85469 36.9539C7.50517 34.8899 8.8469 33.0887 10.861 31.6655C13.1173 30.0724 15.6414 29.8552 17.6153 31.0849C18.8895 31.8784 19.4292 33.0236 20.0535 34.3495C20.5909 35.4898 21.1458 36.6685 22.2234 37.7461C23.3029 38.8262 24.4797 39.3799 25.6182 39.916C26.9417 40.5391 28.0845 41.077 28.8852 42.3555C30.244 44.5242 29.8783 47.5891 28.034 49.4852C26.4032 51.1689 24.5546 52.2965 22.577 52.8545C23.7422 52.3001 24.9465 51.4628 26.1318 50.2306ZM50.331 50.3316C47.1048 53.5585 43.2439 55.9164 39.0325 57.3056C42.4985 55.9164 45.6852 53.8256 48.4124 51.0916C53.5688 45.928 56.4202 38.78 56.2371 31.4799C56.0393 24.3264 53.082 17.6932 47.6853 12.2965C42.2873 6.8985 35.6541 3.94122 28.5001 3.74407C21.206 3.57673 14.2534 6.32834 8.95035 11.5237C6.32043 14.1 4.27467 17.1005 2.86966 20.37C4.28015 16.3837 6.57296 12.7303 9.65133 9.65194C15.0846 4.21869 22.3086 1.22612 29.9915 1.22612C37.6756 1.22612 44.8984 4.21809 50.331 9.65133C55.7643 15.084 58.7556 22.3074 58.7556 29.9915C58.7556 37.6756 55.7643 44.899 50.331 50.3316Z" fill="#eaa53f"/>
</svg>
