<?xml version="1.0" encoding="utf-8"?>
<!-- Generator: Adobe Illustrator 24.0.0, SVG Export Plug-In . SVG Version: 6.00 Build 0)  -->
<svg version="1.1" id="Layer_1" xmlns="http://www.w3.org/2000/svg" xmlns:xlink="http://www.w3.org/1999/xlink" x="0px" y="0px"
	 viewBox="0 0 200 131.9" style="enable-background:new 0 0 200 131.9;" xml:space="preserve">
<style type="text/css">
	.st0{fill:#0A1D46;}
</style>
<title>ARU</title>
<path class="st0" d="M98.9,99.7c-2.7-2.7-6.3-4.2-10.2-4.1c-9.6-0.2-17.5,7.4-17.7,17l0,0v1.1c-0.4,9.6,7,17.6,16.6,18c0,0,0,0,0,0
	h0h1.1c3.8,0.1,7.5-1.4,10.2-4.1v3.7h7.9V96.1h-8V99.7z M89.1,124.3c-5.8,0.4-10.9-4-11.3-9.9c-0.4-5.8,4-10.9,9.9-11.3
	c5.8-0.4,10.9,4,11.3,9.9c0,0.5,0,1,0,1.5C98.6,119.7,94.4,123.9,89.1,124.3L89.1,124.3z M179.2,115.6c0,5.1-2.8,8.9-7.6,8.9
	s-7.2-2.6-7.2-8.9V96.1h-8v21.2c0,9.4,4.6,14.6,13.2,14.6c3.7,0.1,7.2-1.6,9.5-4.5v4h7.9V96.1h-7.8L179.2,115.6L179.2,115.6z
	 M145.9,95.9c-4.6-1.1-9.3,0.4-12.6,3.8v-3.6h-7.9v35.3h7.9v-19.1c0-7.1,5.4-10.3,12.6-8.9L145.9,95.9z M148.8,124.9
	c1.9,0,3.5,1.5,3.6,3.5c0,1.9-1.5,3.5-3.5,3.6c-1.9,0-3.5-1.5-3.6-3.5v-0.1C145.3,126.4,146.9,124.9,148.8,124.9
	C148.8,124.9,148.8,124.9,148.8,124.9L148.8,124.9L148.8,124.9z M196.4,124.9c1.9,0,3.5,1.5,3.6,3.5c0,1.9-1.5,3.5-3.5,3.6
	c-1.9,0-3.5-1.5-3.6-3.5v-0.1C193,126.4,194.5,124.9,196.4,124.9C196.4,124.9,196.4,124.9,196.4,124.9L196.4,124.9L196.4,124.9z
	 M116.1,124.9c1.9,0,3.5,1.5,3.6,3.5c0,1.9-1.5,3.5-3.5,3.6c-1.9,0-3.5-1.5-3.6-3.5v-0.1C112.7,126.4,114.2,124.9,116.1,124.9
	C116.1,124.9,116.1,124.9,116.1,124.9L116.1,124.9L116.1,124.9z M76.9,23.9h29.9v-2.1c-8.7-1.8-17.3-4.4-25.6-7.8
	c-3.6-1.3-7.5-0.9-10.8,0.9c-5.5,3.2-12.1,4.2-18.3,2.8v2.3c4.5,1,9.3,0.7,13.7-0.6c-1.2,2-1.8,4.3-1.8,6.6c0,3.9,1.4,5.9,4.1,10.5
	l8.5,14.8c1.5,2.6,0.6,5.9-2,7.4c0,0,0,0,0,0l0,0c-0.8,0.5-1.8,0.7-2.7,0.7c-5.5,0-9-10.3-21.9-10.3c-5.9,0-11.5,2.5-15.5,6.8
	L0,90.5c2.2,0.4,12.1,1.7,16.9,2l-6.5,13.8C24.9,103.7,39,99,52.2,92.4v38.9h2.3V91.2c2-1,3.8-2.1,5.7-3.1
	c6.5-3.6,10.5-10.4,10.7-17.9c0.7,0.1,1.5,0.1,2.2,0c8.8-0.6,15.5-8.3,14.8-17.2c-0.2-2.4-0.9-4.8-2.1-6.9L74.9,27.4
	c-0.2-0.3-0.3-0.7-0.3-1.1C74.6,25,75.5,24,76.7,24l0,0C76.7,24,76.9,23.9,76.9,23.9z M66,60.6c1.3,2.1,2.2,4.5,2.5,6.9
	c-4-1.1-6-3.8-8.5-5.6c1.6-0.9,3.3-1.3,5.1-1.4L66,60.6z M50.2,51.6c5.5,0,10.7,2.4,14.2,6.6c-2.2,0.1-4.4,0.8-6.3,2.1
	c-5.7-4.7-13.3-6.1-20.3-3.8C41.2,53.4,45.6,51.7,50.2,51.6L50.2,51.6z M5,88.9l25.2-24.8L17.9,90.3C13.7,90,9.1,89.5,5,88.9z
	 M14.5,103.2l4.9-10.5c2.6,0.1,5.1,0.2,7.7,0.2c7.6,0,15.1-0.6,22.6-1.7C38.5,96.6,26.6,100.6,14.5,103.2L14.5,103.2z M52.3,70.5v18
	c-8.3,1.4-16.7,2.1-25.2,2.1c-2.2,0-4.5,0-6.8-0.2l13.9-29.8c6.9-4.1,15.6-3.6,22,1.3C53.8,64.1,52.4,67.2,52.3,70.5L52.3,70.5z
	 M54.6,87.8V71.1c0-2.9,1.2-5.7,3.4-7.7c3.4,2.6,5.4,5.5,10.6,6.6C68.5,78.5,62.7,85.8,54.6,87.8L54.6,87.8z M83.9,47.4
	c3.8,6.6,1.4,15.1-5.2,18.9c-1.8,1-3.7,1.6-5.7,1.8c-0.7,0.1-1.4,0.1-2.1,0c-0.2-2.3-0.8-4.5-1.8-6.6c3.9,1.7,8.5-0.2,10.1-4.1
	c0.9-2.2,0.8-4.7-0.4-6.8l0,0l-8.5-14.8c-2.1-3.5-1.1-8,2.2-10.3c-0.2,1.1,0,2.2,0.6,3.1L83.9,47.4z M67,29.8
	c-2-5.4,0.8-11.4,6.3-13.4c1.2-0.4,2.4-0.6,3.7-0.6c1.2,0,2.4,0.2,3.5,0.6c5.9,2.1,10.8,3.9,15.9,5.3H76.9
	C72.1,21.7,68,25.1,67,29.8L67,29.8z M76.9,10.4c2.2,0,4.4,0.7,6.3,2l3.6-6.2l-2-1.2l-2.4,4.2c-1.3-0.6-2.8-1-4.2-1.1V6.6
	C80,6,80.9,4,80.3,2.3c-0.6-1.8-2.6-2.7-4.3-2.1s-2.7,2.6-2.1,4.3c0.3,1,1.1,1.7,2.1,2.1v1.6c-1.5,0.1-2.9,0.5-4.2,1.1l-2.4-4.2
	l-2,1.2l3.5,6.1C72.6,11.1,74.8,10.5,76.9,10.4L76.9,10.4z M75.8,3.3c0-0.6,0.5-1.2,1.2-1.2c0.6,0,1.2,0.5,1.2,1.2
	c0,0.6-0.5,1.2-1.2,1.2l0,0C76.3,4.5,75.8,4,75.8,3.3L75.8,3.3z"/>
</svg>
