<svg id="Layer_1" data-name="Layer 1" xmlns="http://www.w3.org/2000/svg" viewBox="0 0 200 131.9851"><defs><style>.cls-1{fill:#0a1d46;}</style></defs><title>ARU_2</title><path class="cls-1" d="M113.4,106.1926a13.7978,13.7978,0,0,0-10.2-4.1,17.3305,17.3305,0,0,0-17.7,17h0v1.1a17.2556,17.2556,0,0,0,16.6,18h1.1a13.9551,13.9551,0,0,0,10.2-4.1v3.7h7.9v-35.2h-8v3.6Zm-9.8,24.6a10.6231,10.6231,0,1,1,9.9-11.3v1.5a10.7169,10.7169,0,0,1-9.9,9.8Zm90.1-8.7c0,5.1-2.8,8.9-7.6,8.9s-7.2-2.6-7.2-8.9v-19.5h-8v21.2c0,9.4,4.6,14.6,13.2,14.6a11.7468,11.7468,0,0,0,9.5-4.5v4h7.9v-35.3h-7.8v19.5Zm-33.3-19.7a13.2045,13.2045,0,0,0-12.6,3.8v-3.6h-7.9v35.3h7.9v-19.1c0-7.1,5.4-10.3,12.6-8.9Zm2.9,29a3.55,3.55,0,1,1-3.5,3.6v-.1a3.4782,3.4782,0,0,1,3.5-3.5Zm47.6,0a3.55,3.55,0,1,1-3.5,3.6v-.1a3.5421,3.5421,0,0,1,3.5-3.5Zm-80.3,0a3.55,3.55,0,1,1-3.5,3.6v-.1a3.5421,3.5421,0,0,1,3.5-3.5Zm-39.2-101h29.9v-2.1a145.2482,145.2482,0,0,1-25.6-7.8,13.1552,13.1552,0,0,0-10.8.9,25.4253,25.4253,0,0,1-18.3,2.8v2.3a27.66,27.66,0,0,0,13.7-.6,12.8465,12.8465,0,0,0-1.8,6.6c0,3.9,1.4,5.9,4.1,10.5l8.5,14.8a5.41,5.41,0,0,1-2,7.4h0a5.1892,5.1892,0,0,1-2.7.7c-5.5,0-9-10.3-21.9-10.3a21.1954,21.1954,0,0,0-15.5,6.8l-34.5,34.6c2.2.4,12.1,1.7,16.9,2l-6.5,13.8a154.5783,154.5783,0,0,0,41.8-13.9v38.9H69v-40.1c2-1,3.8-2.1,5.7-3.1a20.9563,20.9563,0,0,0,10.7-17.9,8.1042,8.1042,0,0,0,2.2,0,15.97,15.97,0,0,0,14.8-17.2,16.8046,16.8046,0,0,0-2.1-6.9l-10.9-18.7a2.0158,2.0158,0,0,1-.3-1.1,2.1631,2.1631,0,0,1,2.1-2.3h0Zm-10.9,36.7a17.4182,17.4182,0,0,1,2.5,6.9c-4-1.1-6-3.8-8.5-5.6a11.4637,11.4637,0,0,1,5.1-1.4Zm-15.8-9a18.4428,18.4428,0,0,1,14.2,6.6,12.1493,12.1493,0,0,0-6.3,2.1,21.3045,21.3045,0,0,0-20.3-3.8,18.9455,18.9455,0,0,1,12.4-4.9Zm-45.2,37.3,25.2-24.8-12.3,26.2C28.2,96.4926,23.6,95.9926,19.5,95.3926Zm9.5,14.3,4.9-10.5c2.6.1,5.1.2,7.7.2a155.2381,155.2381,0,0,0,22.6-1.7,157.3246,157.3246,0,0,1-35.2,12Zm37.8-32.7v18a151.2441,151.2441,0,0,1-25.2,2.1c-2.2,0-4.5,0-6.8-.2l13.9-29.8a19.651,19.651,0,0,1,22,1.3,12.1386,12.1386,0,0,0-3.9,8.6Zm2.3,17.3v-16.7a10.3846,10.3846,0,0,1,3.4-7.7c3.4,2.6,5.4,5.5,10.6,6.6a18.5184,18.5184,0,0,1-14,17.8Zm29.3-40.4a13.9118,13.9118,0,0,1-5.2,18.9,14.6236,14.6236,0,0,1-5.7,1.8,7.3875,7.3875,0,0,1-2.1,0,19.0766,19.0766,0,0,0-1.8-6.6,7.7034,7.7034,0,0,0,9.7-10.9h0l-8.5-14.8a7.7218,7.7218,0,0,1,2.2-10.3,4.19,4.19,0,0,0,.6,3.1Zm-16.9-17.6a10.42,10.42,0,0,1,6.3-13.4,11.4756,11.4756,0,0,1,3.7-.6,10.3,10.3,0,0,1,3.5.6c5.9,2.1,10.8,3.9,15.9,5.3H91.4a10.1572,10.1572,0,0,0-9.9,8.1Zm9.9-19.4a11.199,11.199,0,0,1,6.3,2l3.6-6.2-2-1.2-2.4,4.2a12.439,12.439,0,0,0-4.2-1.1v-1.5a3.3838,3.3838,0,1,0-2.2-6.4,3.4721,3.4721,0,0,0-2.1,4.3,3.37,3.37,0,0,0,2.1,2.1v1.6a11.8573,11.8573,0,0,0-4.2,1.1l-2.4-4.2-2,1.2,3.5,6.1a10.7781,10.7781,0,0,1,6-2Zm-1.1-7.1a1.2,1.2,0,1,1,1.2,1.2h0a1.1554,1.1554,0,0,1-1.2-1.2Z" transform="translate(-14.5 -6.5074)"/></svg>