<svg width="280" height="88" viewBox="0 0 280 88" fill="none" xmlns="http://www.w3.org/2000/svg">
<g clip-path="url(#clip0_715_204)">
<g clip-path="url(#clip1_715_204)">
<path d="M124.376 42.2574H112.392V45.7035H124.376V42.2574Z" fill="black"/>
<path d="M129.752 28.4729V58.6971H150.472V55.251H133.84V44.8561H149.24V41.41H133.84V31.919H150.472V28.4729H129.752Z" fill="black"/>
<path d="M25.5361 58.6971H29.4001V33.7268L38.7521 58.6971H42.1681L51.4641 33.7268V58.6971H55.2721V28.4729H49.8401L40.4321 53.4432L30.9681 28.4729H25.5361V58.6971Z" fill="black"/>
<path d="M173.04 42.6528C173.04 42.6528 177.52 41.0145 177.52 35.8171C177.52 30.6197 173.488 28.4729 168.952 28.4729C166.096 28.4729 155.232 28.4729 155.232 28.4729V58.6971C155.232 58.6971 167.496 58.6971 169.848 58.6971C173.432 58.6971 178.752 56.3808 178.752 49.997C178.752 43.6697 173.04 42.6528 173.04 42.6528ZM159.32 31.919C159.32 31.919 165.984 31.919 168.056 31.919C170.744 31.919 173.432 32.7099 173.432 36.608C173.432 40.5061 170.688 41.41 167.72 41.41C164.752 41.41 159.32 41.41 159.32 41.41V31.919ZM169.624 55.251C167.384 55.251 159.32 55.251 159.32 55.251V44.8561C159.32 44.8561 165.984 44.8561 167.776 44.8561C169.568 44.8561 174.664 44.5736 174.664 49.9406C174.664 55.3075 170.184 55.251 169.624 55.251Z" fill="black"/>
<path d="M187.936 28.4729H183.848V58.6971H187.936V28.4729Z" fill="black"/>
<path d="M0 28.4729V58.6971H20.664V55.251H4.088V44.8561H19.488V41.41H4.088V31.919H20.664V28.4729H0Z" fill="black"/>
<path d="M79.6879 42.6528C79.6879 42.6528 84.1679 41.0145 84.1679 35.8171C84.1679 30.6197 80.1359 28.4729 75.5999 28.4729C72.7439 28.4729 61.8799 28.4729 61.8799 28.4729V58.6971C61.8799 58.6971 74.1439 58.6971 76.4959 58.6971C80.0799 58.6971 85.3999 56.3808 85.3999 49.997C85.3999 43.6697 79.6879 42.6528 79.6879 42.6528ZM65.9679 31.919C65.9679 31.919 72.6319 31.919 74.7039 31.919C77.3919 31.919 80.0799 32.7099 80.0799 36.608C80.0799 40.5061 77.3359 41.41 74.3679 41.41C71.3999 41.41 65.9679 41.41 65.9679 41.41V31.919ZM76.2159 55.251C73.9759 55.251 65.9119 55.251 65.9119 55.251V44.8561C65.9119 44.8561 72.5759 44.8561 74.3679 44.8561C76.1599 44.8561 81.2559 44.5736 81.2559 49.9406C81.2559 55.3075 76.8319 55.251 76.2159 55.251Z" fill="black"/>
<path d="M90.3281 28.4729H94.4161V55.251H110.096V58.6971H90.3281V28.4729Z" fill="black"/>
<path d="M267.792 72.3121C269.771 72.3121 271.376 70.6933 271.376 68.6965C271.376 66.6996 269.771 65.0809 267.792 65.0809C265.813 65.0809 264.208 66.6996 264.208 68.6965C264.208 70.6933 265.813 72.3121 267.792 72.3121Z" fill="#5DB443"/>
<path d="M267.792 62.3127C269.771 62.3127 271.376 60.6939 271.376 58.6971C271.376 56.7002 269.771 55.0815 267.792 55.0815C265.813 55.0815 264.208 56.7002 264.208 58.6971C264.208 60.6939 265.813 62.3127 267.792 62.3127Z" fill="#5DB443"/>
<path d="M267.792 52.3133C269.771 52.3133 271.376 50.6945 271.376 48.6977C271.376 46.7009 269.771 45.0821 267.792 45.0821C265.813 45.0821 264.208 46.7009 264.208 48.6977C264.208 50.6945 265.813 52.3133 267.792 52.3133Z" fill="#5DB443"/>
<path d="M267.792 42.3139C269.771 42.3139 271.376 40.6951 271.376 38.6982C271.376 36.7014 269.771 35.0826 267.792 35.0826C265.813 35.0826 264.208 36.7014 264.208 38.6982C264.208 40.6951 265.813 42.3139 267.792 42.3139Z" fill="#5DB443"/>
<path d="M267.792 32.3145C269.771 32.3145 271.376 30.6957 271.376 28.6989C271.376 26.702 269.771 25.0833 267.792 25.0833C265.813 25.0833 264.208 26.702 264.208 28.6989C264.208 30.6957 265.813 32.3145 267.792 32.3145Z" fill="#5DB443"/>
<path d="M267.792 22.3151C269.771 22.3151 271.376 20.6963 271.376 18.6995C271.376 16.7026 269.771 15.0839 267.792 15.0839C265.813 15.0839 264.208 16.7026 264.208 18.6995C264.208 20.6963 265.813 22.3151 267.792 22.3151Z" fill="#5DB443"/>
<path d="M249.984 82.0856C251.963 82.0856 253.568 80.4668 253.568 78.47C253.568 76.4731 251.963 74.8544 249.984 74.8544C248.005 74.8544 246.4 76.4731 246.4 78.47C246.4 80.4668 248.005 82.0856 249.984 82.0856Z" fill="#5DB443"/>
<path d="M249.984 22.3151C251.963 22.3151 253.568 20.6963 253.568 18.6995C253.568 16.7026 251.963 15.0839 249.984 15.0839C248.005 15.0839 246.4 16.7026 246.4 18.6995C246.4 20.6963 248.005 22.3151 249.984 22.3151Z" fill="#5DB443"/>
<path d="M249.984 12.3157C251.963 12.3157 253.568 10.6969 253.568 8.70008C253.568 6.70323 251.963 5.08447 249.984 5.08447C248.005 5.08447 246.4 6.70323 246.4 8.70008C246.4 10.6969 248.005 12.3157 249.984 12.3157Z" fill="#5DB443"/>
<path d="M249.984 32.258C251.963 32.258 253.568 30.6392 253.568 28.6424C253.568 26.6456 251.963 25.0268 249.984 25.0268C248.005 25.0268 246.4 26.6456 246.4 28.6424C246.4 30.6392 248.005 32.258 249.984 32.258Z" fill="#5DB443"/>
<path d="M249.984 42.2009C251.963 42.2009 253.568 40.5822 253.568 38.5853C253.568 36.5885 251.963 34.9697 249.984 34.9697C248.005 34.9697 246.4 36.5885 246.4 38.5853C246.4 40.5822 248.005 42.2009 249.984 42.2009Z" fill="#5DB443"/>
<path d="M249.984 52.2003C251.963 52.2003 253.568 50.5816 253.568 48.5847C253.568 46.5879 251.963 44.9691 249.984 44.9691C248.005 44.9691 246.4 46.5879 246.4 48.5847C246.4 50.5816 248.005 52.2003 249.984 52.2003Z" fill="#5DB443"/>
<path d="M249.984 62.1432C251.963 62.1432 253.568 60.5244 253.568 58.5276C253.568 56.5307 251.963 54.912 249.984 54.912C248.005 54.912 246.4 56.5307 246.4 58.5276C246.4 60.5244 248.005 62.1432 249.984 62.1432Z" fill="#5DB443"/>
<path d="M249.984 72.0861C251.963 72.0861 253.568 70.4674 253.568 68.4705C253.568 66.4737 251.963 64.8549 249.984 64.8549C248.005 64.8549 246.4 66.4737 246.4 68.4705C246.4 70.4674 248.005 72.0861 249.984 72.0861Z" fill="#5DB443"/>
<path d="M232.512 82.0856C234.491 82.0856 236.096 80.4668 236.096 78.47C236.096 76.4731 234.491 74.8544 232.512 74.8544C230.532 74.8544 228.928 76.4731 228.928 78.47C228.928 80.4668 230.532 82.0856 232.512 82.0856Z" fill="#5DB443"/>
<path d="M232.512 12.3157C234.491 12.3157 236.096 10.6969 236.096 8.70008C236.096 6.70323 234.491 5.08447 232.512 5.08447C230.532 5.08447 228.928 6.70323 228.928 8.70008C228.928 10.6969 230.532 12.3157 232.512 12.3157Z" fill="#5DB443"/>
<path d="M232.512 22.3151C234.491 22.3151 236.096 20.6963 236.096 18.6995C236.096 16.7026 234.491 15.0839 232.512 15.0839C230.532 15.0839 228.928 16.7026 228.928 18.6995C228.928 20.6963 230.532 22.3151 232.512 22.3151Z" fill="#5DB443"/>
<path d="M232.512 32.258C234.491 32.258 236.096 30.6392 236.096 28.6424C236.096 26.6456 234.491 25.0268 232.512 25.0268C230.532 25.0268 228.928 26.6456 228.928 28.6424C228.928 30.6392 230.532 32.258 232.512 32.258Z" fill="#5DB443"/>
<path d="M232.512 42.2009C234.491 42.2009 236.096 40.5822 236.096 38.5853C236.096 36.5885 234.491 34.9697 232.512 34.9697C230.532 34.9697 228.928 36.5885 228.928 38.5853C228.928 40.5822 230.532 42.2009 232.512 42.2009Z" fill="#5DB443"/>
<path d="M232.512 52.2003C234.491 52.2003 236.096 50.5816 236.096 48.5847C236.096 46.5879 234.491 44.9691 232.512 44.9691C230.532 44.9691 228.928 46.5879 228.928 48.5847C228.928 50.5816 230.532 52.2003 232.512 52.2003Z" fill="#5DB443"/>
<path d="M232.512 62.1432C234.491 62.1432 236.096 60.5244 236.096 58.5276C236.096 56.5307 234.491 54.912 232.512 54.912C230.532 54.912 228.928 56.5307 228.928 58.5276C228.928 60.5244 230.532 62.1432 232.512 62.1432Z" fill="#5DB443"/>
<path d="M232.512 72.0861C234.491 72.0861 236.096 70.4674 236.096 68.4705C236.096 66.4737 234.491 64.8549 232.512 64.8549C230.532 64.8549 228.928 66.4737 228.928 68.4705C228.928 70.4674 230.532 72.0861 232.512 72.0861Z" fill="#5DB443"/>
<path d="M215.04 22.3151C217.019 22.3151 218.624 20.6963 218.624 18.6995C218.624 16.7026 217.019 15.0839 215.04 15.0839C213.061 15.0839 211.456 16.7026 211.456 18.6995C211.456 20.6963 213.061 22.3151 215.04 22.3151Z" fill="#5DB443"/>
<path d="M215.04 32.3145C217.019 32.3145 218.624 30.6957 218.624 28.6989C218.624 26.702 217.019 25.0833 215.04 25.0833C213.061 25.0833 211.456 26.702 211.456 28.6989C211.456 30.6957 213.061 32.3145 215.04 32.3145Z" fill="#5DB443"/>
<path d="M215.04 42.3139C217.019 42.3139 218.624 40.6951 218.624 38.6982C218.624 36.7014 217.019 35.0826 215.04 35.0826C213.061 35.0826 211.456 36.7014 211.456 38.6982C211.456 40.6951 213.061 42.3139 215.04 42.3139Z" fill="#5DB443"/>
<path d="M215.04 52.3133C217.019 52.3133 218.624 50.6945 218.624 48.6977C218.624 46.7009 217.019 45.0821 215.04 45.0821C213.061 45.0821 211.456 46.7009 211.456 48.6977C211.456 50.6945 213.061 52.3133 215.04 52.3133Z" fill="#5DB443"/>
<path d="M215.04 62.3127C217.019 62.3127 218.624 60.6939 218.624 58.6971C218.624 56.7002 217.019 55.0815 215.04 55.0815C213.061 55.0815 211.456 56.7002 211.456 58.6971C211.456 60.6939 213.061 62.3127 215.04 62.3127Z" fill="#5DB443"/>
<path d="M215.04 72.3121C217.019 72.3121 218.624 70.6933 218.624 68.6965C218.624 66.6996 217.019 65.0809 215.04 65.0809C213.061 65.0809 211.456 66.6996 211.456 68.6965C211.456 70.6933 213.061 72.3121 215.04 72.3121Z" fill="#5DB443"/>
<path d="M276.416 67.3406C278.395 67.3406 280 65.7219 280 63.725C280 61.7282 278.395 60.1094 276.416 60.1094C274.437 60.1094 272.832 61.7282 272.832 63.725C272.832 65.7219 274.437 67.3406 276.416 67.3406Z" fill="#5DB443"/>
<path d="M276.416 57.3977C278.395 57.3977 280 55.7789 280 53.7821C280 51.7853 278.395 50.1665 276.416 50.1665C274.437 50.1665 272.832 51.7853 272.832 53.7821C272.832 55.7789 274.437 57.3977 276.416 57.3977Z" fill="#5DB443"/>
<path d="M276.416 47.4548C278.395 47.4548 280 45.836 280 43.8392C280 41.8423 278.395 40.2236 276.416 40.2236C274.437 40.2236 272.832 41.8423 272.832 43.8392C272.832 45.836 274.437 47.4548 276.416 47.4548Z" fill="#5DB443"/>
<path d="M276.416 37.5119C278.395 37.5119 280 35.8931 280 33.8963C280 31.8995 278.395 30.2807 276.416 30.2807C274.437 30.2807 272.832 31.8995 272.832 33.8963C272.832 35.8931 274.437 37.5119 276.416 37.5119Z" fill="#5DB443"/>
<path d="M276.416 27.569C278.395 27.569 280 25.9502 280 23.9534C280 21.9565 278.395 20.3378 276.416 20.3378C274.437 20.3378 272.832 21.9565 272.832 23.9534C272.832 25.9502 274.437 27.569 276.416 27.569Z" fill="#5DB443"/>
<path d="M258.776 77.34C260.755 77.34 262.36 75.7213 262.36 73.7244C262.36 71.7276 260.755 70.1088 258.776 70.1088C256.797 70.1088 255.192 71.7276 255.192 73.7244C255.192 75.7213 256.797 77.34 258.776 77.34Z" fill="#5DB443"/>
<path d="M258.776 67.3406C260.755 67.3406 262.36 65.7218 262.36 63.725C262.36 61.7281 260.755 60.1094 258.776 60.1094C256.797 60.1094 255.192 61.7281 255.192 63.725C255.192 65.7218 256.797 67.3406 258.776 67.3406Z" fill="#5DB443"/>
<path d="M258.776 57.3412C260.755 57.3412 262.36 55.7224 262.36 53.7256C262.36 51.7287 260.755 50.11 258.776 50.11C256.797 50.11 255.192 51.7287 255.192 53.7256C255.192 55.7224 256.797 57.3412 258.776 57.3412Z" fill="#5DB443"/>
<path d="M258.776 47.3418C260.755 47.3418 262.36 45.723 262.36 43.7262C262.36 41.7294 260.755 40.1106 258.776 40.1106C256.797 40.1106 255.192 41.7294 255.192 43.7262C255.192 45.723 256.797 47.3418 258.776 47.3418Z" fill="#5DB443"/>
<path d="M258.776 37.3424C260.755 37.3424 262.36 35.7237 262.36 33.7268C262.36 31.73 260.755 30.1112 258.776 30.1112C256.797 30.1112 255.192 31.73 255.192 33.7268C255.192 35.7237 256.797 37.3424 258.776 37.3424Z" fill="#5DB443"/>
<path d="M258.776 27.343C260.755 27.343 262.36 25.7242 262.36 23.7274C262.36 21.7305 260.755 20.1118 258.776 20.1118C256.797 20.1118 255.192 21.7305 255.192 23.7274C255.192 25.7242 256.797 27.343 258.776 27.343Z" fill="#5DB443"/>
<path d="M258.776 17.3436C260.755 17.3436 262.36 15.7248 262.36 13.728C262.36 11.7311 260.755 10.1124 258.776 10.1124C256.797 10.1124 255.192 11.7311 255.192 13.728C255.192 15.7248 256.797 17.3436 258.776 17.3436Z" fill="#5DB443"/>
<path d="M241.192 87.3394C243.171 87.3394 244.776 85.7207 244.776 83.7238C244.776 81.727 243.171 80.1082 241.192 80.1082C239.213 80.1082 237.608 81.727 237.608 83.7238C237.608 85.7207 239.213 87.3394 241.192 87.3394Z" fill="#5DB443"/>
<path d="M241.192 77.34C243.171 77.34 244.776 75.7213 244.776 73.7244C244.776 71.7276 243.171 70.1088 241.192 70.1088C239.213 70.1088 237.608 71.7276 237.608 73.7244C237.608 75.7213 239.213 77.34 241.192 77.34Z" fill="#5DB443"/>
<path d="M241.192 67.3406C243.171 67.3406 244.776 65.7219 244.776 63.725C244.776 61.7282 243.171 60.1094 241.192 60.1094C239.213 60.1094 237.608 61.7282 237.608 63.725C237.608 65.7219 239.213 67.3406 241.192 67.3406Z" fill="#5DB443"/>
<path d="M241.192 57.2847C243.171 57.2847 244.776 55.666 244.776 53.6691C244.776 51.6723 243.171 50.0535 241.192 50.0535C239.213 50.0535 237.608 51.6723 237.608 53.6691C237.608 55.666 239.213 57.2847 241.192 57.2847Z" fill="#5DB443"/>
<path d="M241.192 47.2853C243.171 47.2853 244.776 45.6666 244.776 43.6697C244.776 41.6729 243.171 40.0541 241.192 40.0541C239.213 40.0541 237.608 41.6729 237.608 43.6697C237.608 45.6666 239.213 47.2853 241.192 47.2853Z" fill="#5DB443"/>
<path d="M241.192 37.2859C243.171 37.2859 244.776 35.6671 244.776 33.6703C244.776 31.6734 243.171 30.0547 241.192 30.0547C239.213 30.0547 237.608 31.6734 237.608 33.6703C237.608 35.6671 239.213 37.2859 241.192 37.2859Z" fill="#5DB443"/>
<path d="M241.192 17.2306C243.171 17.2306 244.776 15.6118 244.776 13.615C244.776 11.6182 243.171 9.99939 241.192 9.99939C239.213 9.99939 237.608 11.6182 237.608 13.615C237.608 15.6118 239.213 17.2306 241.192 17.2306Z" fill="#5DB443"/>
<path d="M241.192 7.23121C243.171 7.23121 244.776 5.61245 244.776 3.6156C244.776 1.61876 243.171 0 241.192 0C239.213 0 237.608 1.61876 237.608 3.6156C237.608 5.61245 239.213 7.23121 241.192 7.23121Z" fill="#5DB443"/>
<path d="M241.192 27.2865C243.171 27.2865 244.776 25.6677 244.776 23.6709C244.776 21.6741 243.171 20.0553 241.192 20.0553C239.213 20.0553 237.608 21.6741 237.608 23.6709C237.608 25.6677 239.213 27.2865 241.192 27.2865Z" fill="#5DB443"/>
<path d="M223.608 77.34C225.587 77.34 227.192 75.7213 227.192 73.7244C227.192 71.7276 225.587 70.1088 223.608 70.1088C221.629 70.1088 220.024 71.7276 220.024 73.7244C220.024 75.7213 221.629 77.34 223.608 77.34Z" fill="#5DB443"/>
<path d="M223.608 67.3406C225.587 67.3406 227.192 65.7218 227.192 63.725C227.192 61.7281 225.587 60.1094 223.608 60.1094C221.629 60.1094 220.024 61.7281 220.024 63.725C220.024 65.7218 221.629 67.3406 223.608 67.3406Z" fill="#5DB443"/>
<path d="M223.608 57.3412C225.587 57.3412 227.192 55.7224 227.192 53.7256C227.192 51.7287 225.587 50.11 223.608 50.11C221.629 50.11 220.024 51.7287 220.024 53.7256C220.024 55.7224 221.629 57.3412 223.608 57.3412Z" fill="#EE2524"/>
<path d="M223.608 47.3418C225.587 47.3418 227.192 45.723 227.192 43.7262C227.192 41.7294 225.587 40.1106 223.608 40.1106C221.629 40.1106 220.024 41.7294 220.024 43.7262C220.024 45.723 221.629 47.3418 223.608 47.3418Z" fill="#5DB443"/>
<path d="M223.608 37.3424C225.587 37.3424 227.192 35.7237 227.192 33.7268C227.192 31.73 225.587 30.1112 223.608 30.1112C221.629 30.1112 220.024 31.73 220.024 33.7268C220.024 35.7237 221.629 37.3424 223.608 37.3424Z" fill="#5DB443"/>
<path d="M223.608 17.3436C225.587 17.3436 227.192 15.7248 227.192 13.728C227.192 11.7311 225.587 10.1124 223.608 10.1124C221.629 10.1124 220.024 11.7311 220.024 13.728C220.024 15.7248 221.629 17.3436 223.608 17.3436Z" fill="#5DB443"/>
<path d="M223.608 27.343C225.587 27.343 227.192 25.7242 227.192 23.7274C227.192 21.7305 225.587 20.1118 223.608 20.1118C221.629 20.1118 220.024 21.7305 220.024 23.7274C220.024 25.7242 221.629 27.343 223.608 27.343Z" fill="#5DB443"/>
<path d="M206.024 67.3406C208.003 67.3406 209.608 65.7219 209.608 63.725C209.608 61.7282 208.003 60.1094 206.024 60.1094C204.045 60.1094 202.44 61.7282 202.44 63.725C202.44 65.7219 204.045 67.3406 206.024 67.3406Z" fill="#5DB443"/>
<path d="M206.024 57.3977C208.003 57.3977 209.608 55.7789 209.608 53.7821C209.608 51.7853 208.003 50.1665 206.024 50.1665C204.045 50.1665 202.44 51.7853 202.44 53.7821C202.44 55.7789 204.045 57.3977 206.024 57.3977Z" fill="#5DB443"/>
<path d="M206.024 47.4548C208.003 47.4548 209.608 45.836 209.608 43.8392C209.608 41.8423 208.003 40.2236 206.024 40.2236C204.045 40.2236 202.44 41.8423 202.44 43.8392C202.44 45.836 204.045 47.4548 206.024 47.4548Z" fill="#5DB443"/>
<path d="M206.024 37.5119C208.003 37.5119 209.608 35.8931 209.608 33.8963C209.608 31.8995 208.003 30.2807 206.024 30.2807C204.045 30.2807 202.44 31.8995 202.44 33.8963C202.44 35.8931 204.045 37.5119 206.024 37.5119Z" fill="#5DB443"/>
<path d="M206.024 27.569C208.003 27.569 209.608 25.9502 209.608 23.9534C209.608 21.9565 208.003 20.3378 206.024 20.3378C204.045 20.3378 202.44 21.9565 202.44 23.9534C202.44 25.9502 204.045 27.569 206.024 27.569Z" fill="#5DB443"/>
</g>
</g>
<defs>
<clipPath id="clip0_715_204">
<rect width="280" height="87.3394" fill="white"/>
</clipPath>
<clipPath id="clip1_715_204">
<rect width="280" height="87.3394" fill="white"/>
</clipPath>
</defs>
</svg>
