<svg id="Layer_1" data-name="Layer 1" xmlns="http://www.w3.org/2000/svg" viewBox="0 0 200 103.5714"><title>Essex</title><path d="M79.2342,94.5859q-3.9009,0-5.8361-1.5145a6.5076,6.5076,0,0,1-2.4476-3.5644,19.7332,19.7332,0,0,1-.5125-4.7576V71.7769h2.9678V84.7035q0,4.4211,1.4838,5.8132a6.1273,6.1273,0,0,0,4.3446,1.3921,6.1273,6.1273,0,0,0,4.3446-1.3921q1.4838-1.3922,1.4839-5.8132V71.7769h2.983V84.7494a13.9816,13.9816,0,0,1-.9714,5.9967A6.2757,6.2757,0,0,1,84.1448,93.63,11.1621,11.1621,0,0,1,79.2342,94.5859Z" transform="translate(0 -48.2143)"/><path d="M93.4294,80.0377a6.38,6.38,0,0,1,4.8494-2.4324q5.4918,0,5.4919,5.9815V94.2034h-2.8913V83.7092a4.5434,4.5434,0,0,0-.7114-2.8607,2.8436,2.8436,0,0,0-2.3329-.872q-2.2029,0-4.4057,2.6006V94.2034H90.5381V77.9725h2.8913Z" transform="translate(0 -48.2143)"/><path d="M109.7009,74.8976H106.81V71.7769h2.8913Zm0,19.3058H106.81V77.9725h2.8913Z" transform="translate(0 -48.2143)"/><path d="M126.2077,77.9725l-6.1344,16.2309h-2.57l-6.1344-16.2309H114.49L118.7883,90.67l4.2987-12.6971Z" transform="translate(0 -48.2143)"/><path d="M134.132,94.5859a7.6448,7.6448,0,0,1-5.752-2.2412,8.6038,8.6038,0,0,1-2.1723-6.2491,8.7856,8.7856,0,0,1,2.1035-6.2338,7.9342,7.9342,0,0,1,11.045-.0383,8.8392,8.8392,0,0,1,2.0728,6.2721v.6884H129.2061a6.2731,6.2731,0,0,0,1.5527,4.1763,4.5972,4.5972,0,0,0,3.3732,1.3615,4.9857,4.9857,0,0,0,2.7306-.7725A2.6,2.6,0,0,0,138.14,89.354h2.9831a5.3826,5.3826,0,0,1-2.2718,3.87A7.9939,7.9939,0,0,1,134.132,94.5859Zm4.2528-10.066a5.8835,5.8835,0,0,0-1.5757-3.5032,4.4189,4.4189,0,0,0-5.9661-.0076,5.7469,5.7469,0,0,0-1.5757,3.5108Z" transform="translate(0 -48.2143)"/><path d="M152.5745,80.6037a6.46,6.46,0,0,0-1.7592-.1836,4.5336,4.5336,0,0,0-3.7786,2.31V94.2034h-2.8913V77.9725h2.8913v2.2641q1.82-2.6313,4.2222-2.6313a7.7021,7.7021,0,0,1,1.3156.1224Z" transform="translate(0 -48.2143)"/><path d="M160.3764,94.5859q-6.6546,0-6.96-5.2319h2.8913q.0306,2.9677,4.0386,2.9678a4.3336,4.3336,0,0,0,2.7306-.7419,2.2766,2.2766,0,0,0,.9408-1.8587,1.59,1.59,0,0,0-.9178-1.5527,23.0868,23.0868,0,0,0-3.7862-1.17,13.9487,13.9487,0,0,1-4.1916-1.6063,3.48,3.48,0,0,1-1.3233-3.1207,4.1142,4.1142,0,0,1,1.6445-3.3426,6.8112,6.8112,0,0,1,4.3981-1.3233q6.3792,0,6.5169,4.5435h-2.876q-.153-2.2947-3.442-2.2947a4.773,4.773,0,0,0-2.4094.5507,1.7528,1.7528,0,0,0-.9561,1.6063,1.4568,1.4568,0,0,0,.7343,1.3692,18.3353,18.3353,0,0,0,3.6791,1.132,14.2338,14.2338,0,0,1,4.3752,1.66,3.6324,3.6324,0,0,1,1.43,3.2737,4.5761,4.5761,0,0,1-1.7669,3.6791A7.2233,7.2233,0,0,1,160.3764,94.5859Z" transform="translate(0 -48.2143)"/><path d="M173.1347,74.8976h-2.8913V71.7769h2.8913Zm0,19.3058h-2.8913V77.9725h2.8913Z" transform="translate(0 -48.2143)"/><path d="M196.8793,77.9725,192.5806,90.67l-4.2987-12.6971h-7.6054V71.7769h-2.876v6.1956h-2.004v2.2641h2.004v9.2092a14.4683,14.4683,0,0,0,.1989,2.7077,2.6544,2.6544,0,0,0,1.025,1.6292,4.2786,4.2786,0,0,0,2.6006.6349,32.6444,32.6444,0,0,0,3.5361-.1836V92.0464c-.4589.0816-2.4092.1224-2.9089.1224a1.5017,1.5017,0,0,1-1.155-.4513,3.4464,3.4464,0,0,1-.4207-2.1187V80.2366h5.34l5.2788,13.9668q-1.3615,3.9162-3.5032,3.9162a7.9406,7.9406,0,0,1-1.8379-.2141v2.6618a11.306,11.306,0,0,0,2.3274.2141,3.6285,3.6285,0,0,0,2.4553-.8643,6.6242,6.6242,0,0,0,1.6216-2.1264q.62-1.2621,1.5068-3.5873L200,77.9725Z" transform="translate(0 -48.2143)"/><path d="M78.041,111.6717a7.2273,7.2273,0,0,1,5.5454,2.2182,10.5137,10.5137,0,0,1,0,12.5365,8.0017,8.0017,0,0,1-11.0756,0,10.5141,10.5141,0,0,1,0-12.5365A7.2085,7.2085,0,0,1,78.041,111.6717Zm0,14.7165a4.1262,4.1262,0,0,0,3.35-1.568,9.1134,9.1134,0,0,0,0-9.3317,4.363,4.363,0,0,0-6.7,0,9.1134,9.1134,0,0,0,0,9.3317A4.1261,4.1261,0,0,0,78.041,126.3882Z" transform="translate(0 -48.2143)"/><path d="M91.8427,114.303V128.27h-2.876V114.303H86.58v-2.2641h2.3865v-1.438q0-5.14,4.5434-5.14a9.7569,9.7569,0,0,1,2.157.1836v2.5088A9.9087,9.9087,0,0,0,93.9232,108a1.9691,1.9691,0,0,0-1.5681.5889,3.1375,3.1375,0,0,0-.5124,2.0423v1.4074h3.0748v2.2641Z" transform="translate(0 -48.2143)"/><path d="M118.5847,128.27H104.1531V105.8433h13.9115v2.6618H107.1209v6.8534h8.7706V118.02h-8.7706v7.5877h11.4638Z" transform="translate(0 -48.2143)"/><path d="M127.3246,128.6523q-6.6544,0-6.9605-5.2319h2.8913q.0306,2.9677,4.0386,2.9678a4.3331,4.3331,0,0,0,2.7307-.742,2.2763,2.2763,0,0,0,.9408-1.8586,1.5907,1.5907,0,0,0-.9179-1.5528,23.0966,23.0966,0,0,0-3.7862-1.17,13.9487,13.9487,0,0,1-4.1916-1.6063,3.48,3.48,0,0,1-1.3232-3.1207,4.1141,4.1141,0,0,1,1.6445-3.3426,6.8111,6.8111,0,0,1,4.3981-1.3233q6.3792,0,6.5169,4.5435H130.43q-.153-2.2947-3.442-2.2947a4.7727,4.7727,0,0,0-2.4094.5507,1.7528,1.7528,0,0,0-.9561,1.6063,1.4563,1.4563,0,0,0,.7343,1.3691,18.3329,18.3329,0,0,0,3.6791,1.1321,14.232,14.232,0,0,1,4.3751,1.66,3.6322,3.6322,0,0,1,1.43,3.2737,4.5763,4.5763,0,0,1-1.7669,3.6791A7.2236,7.2236,0,0,1,127.3246,128.6523Z" transform="translate(0 -48.2143)"/><path d="M143.273,128.6523q-6.6544,0-6.96-5.2319h2.8912q.0306,2.9677,4.0386,2.9678a4.3331,4.3331,0,0,0,2.7307-.742,2.2763,2.2763,0,0,0,.9408-1.8586,1.5905,1.5905,0,0,0-.9179-1.5528,23.0966,23.0966,0,0,0-3.7862-1.17,13.9468,13.9468,0,0,1-4.1915-1.6063,3.48,3.48,0,0,1-1.3233-3.1207,4.1141,4.1141,0,0,1,1.6445-3.3426,6.8112,6.8112,0,0,1,4.3981-1.3233q6.3792,0,6.5169,4.5435h-2.876q-.153-2.2947-3.442-2.2947a4.7727,4.7727,0,0,0-2.4094.5507,1.7528,1.7528,0,0,0-.9561,1.6063,1.4563,1.4563,0,0,0,.7343,1.3691,18.3329,18.3329,0,0,0,3.6791,1.1321,14.2338,14.2338,0,0,1,4.3752,1.66,3.6324,3.6324,0,0,1,1.43,3.2737,4.5763,4.5763,0,0,1-1.7669,3.6791A7.2234,7.2234,0,0,1,143.273,128.6523Z" transform="translate(0 -48.2143)"/><path d="M159.3251,128.6523a7.6445,7.6445,0,0,1-5.7519-2.2412,8.6038,8.6038,0,0,1-2.1723-6.2491,8.7856,8.7856,0,0,1,2.1034-6.2338,7.9342,7.9342,0,0,1,11.045-.0383,8.8392,8.8392,0,0,1,2.0729,6.2721v.6884h-12.223a6.2731,6.2731,0,0,0,1.5528,4.1763,4.5968,4.5968,0,0,0,3.3731,1.3615,4.9858,4.9858,0,0,0,2.7307-.7725,2.6,2.6,0,0,0,1.2773-2.1953h2.9831a5.3825,5.3825,0,0,1-2.2717,3.87A7.9942,7.9942,0,0,1,159.3251,128.6523Zm4.2528-10.066a5.8835,5.8835,0,0,0-1.5757-3.5032,4.4189,4.4189,0,0,0-5.9661-.0076,5.7474,5.7474,0,0,0-1.5757,3.5108Z" transform="translate(0 -48.2143)"/><path d="M181.7458,128.27h-3.58l-4.0386-6.3333-4.0386,6.3333h-3.58l5.9967-8.4291-5.5225-7.8018h3.58l3.5644,5.6755,3.5644-5.6755h3.58L175.749,119.81Z" transform="translate(0 -48.2143)"/><rect y="20.7143" width="20.7143" height="20.7143"/><rect y="62.1429" width="20.7143" height="20.7143"/><rect x="20.7143" y="41.4286" width="20.7143" height="20.7143"/><rect x="20.7143" width="20.7143" height="20.7143"/><rect x="20.7143" y="82.8571" width="20.7143" height="20.7143"/></svg>