<svg width="266" height="109" viewBox="0 0 266 109" fill="none" xmlns="http://www.w3.org/2000/svg">
<g clip-path="url(#clip0_715_158)">
<path d="M7.71436 27.9074C7.71436 27.9074 24.6852 -3.91777 59.6376 0.429349C87.6207 3.86411 97.8883 27.8001 97.8883 27.8001C97.8883 27.8001 84.8011 10.1433 59.1587 6.97686C23.1424 2.52241 7.71436 27.9074 7.71436 27.9074Z" fill="#572D91"/>
<path d="M1.27708 44.9203C-2.81932 82.7563 38.6767 113.777 75.5443 101.648C75.5443 101.648 53.6259 117.855 25.1639 102.238C12.1831 95.1 5.85228 83.8834 2.76668 74.2231C-2.39372 58.3373 1.27708 44.9203 1.27708 44.9203Z" fill="#572D91"/>
<path d="M135.873 87.5327H133.532V104.653H135.873V87.5327Z" fill="#572D91"/>
<path d="M216.152 91.4505V104.653H213.705V87.5327H216.684L223.015 100.252V87.5327H225.462V104.653H222.429L216.152 91.4505Z" fill="#572D91"/>
<path d="M178.114 104.653H169.708V87.5327H172.049V102.291H178.114V104.653Z" fill="#572D91"/>
<path d="M85.333 104.653H87.4078V89.894L92.4086 104.653H94.0578L99.0586 89.894V104.653H101.133C101.133 104.653 101.24 87.5863 101.133 87.5326C101.027 87.479 98.2074 87.5326 98.2074 87.5326L93.2598 101.272L88.3122 87.5326H85.3862V104.653H85.333Z" fill="#572D91"/>
<path d="M105.602 87.5327H114.54V89.8941H107.943V94.6169H113.742V97.032H107.943V102.291H114.54V104.653H105.602V87.5327Z" fill="#572D91"/>
<path d="M125.127 87.5327C122.946 87.5327 119.115 87.5327 119.115 87.5327V104.653C119.115 104.653 122.307 104.653 125.127 104.653C127.893 104.653 129.702 100.681 129.702 95.7439C129.702 90.8065 127.361 87.5327 125.127 87.5327ZM124.488 102.291C122.892 102.291 121.509 102.291 121.509 102.291V89.9478C121.509 89.9478 123.85 89.9478 124.542 89.9478C125.233 89.9478 127.521 90.3771 127.521 95.7976C127.521 101.218 126.084 102.291 124.488 102.291Z" fill="#572D91"/>
<path d="M145.449 87.2643C147.045 87.2643 150.556 86.996 150.556 92.4702H148.215C148.215 92.4702 148.534 88.8744 145.449 88.8744C142.363 88.8744 142.416 91.8798 142.416 95.7439C142.416 99.1787 142.416 102.989 145.449 102.989C148.056 102.989 148.428 100.896 148.428 99.5007H150.503C150.503 99.5007 151.141 104.975 145.396 104.975C139.65 104.975 139.916 98.3737 139.916 95.2609C139.969 91.9335 139.969 87.2643 145.449 87.2643Z" fill="#572D91"/>
<path d="M235.357 104.653H232.963V89.8941H228.813V87.5327H239.719V89.8941H235.357V104.653Z" fill="#572D91"/>
<path d="M201.256 87.5327H210.14V89.8941H203.597V94.6169H209.395V97.032H203.597V102.291H210.14V104.653H201.256V87.5327Z" fill="#572D91"/>
<path d="M242.912 87.5327H251.849V89.8941H245.306V94.6169H251.104V97.032H245.306V102.291H251.849V104.653H242.912V87.5327Z" fill="#572D91"/>
<path d="M192.212 87.2643C193.808 87.2643 197.319 86.996 197.319 92.4702H194.978C194.978 92.4702 195.298 88.8744 192.212 88.8744C189.126 88.8744 189.18 91.8798 189.18 95.7439C189.18 99.1787 189.18 102.989 192.212 102.989C194.819 102.989 195.191 100.896 195.191 99.5007H197.266C197.266 99.5007 197.904 104.975 192.159 104.975C186.413 104.975 186.679 98.3737 186.679 95.2609C186.732 91.9335 186.732 87.2643 192.212 87.2643Z" fill="#572D91"/>
<path d="M160.983 87.5327H158.43L152.791 104.653H154.972L156.302 100.306H162.42L164.335 104.653C164.335 104.653 166.569 104.653 166.516 104.653C166.623 104.653 160.983 87.5327 160.983 87.5327ZM156.94 98.642L159.707 89.8941L162.473 98.642H156.94Z" fill="#572D91"/>
<path d="M262.596 95.9049C262.596 95.9049 265.415 95.2609 265.415 91.9872C265.415 88.7134 263.606 87.5327 261 87.5327C258.446 87.5327 255.254 87.5327 255.254 87.5327V104.653H257.595V97.032C257.595 97.032 259.191 97.032 260.893 97.032C262.01 97.032 263.074 97.837 263.074 99.3397V104.653H265.415C265.415 104.653 265.415 100.145 265.415 99.125C265.415 96.4953 262.596 95.9049 262.596 95.9049ZM260.787 94.6169C259.829 94.6169 257.648 94.6169 257.648 94.6169V89.8941C257.648 89.8941 260.787 89.8941 261.319 89.8941C261.851 89.8941 263.394 90.1088 263.394 92.2555C263.34 94.4559 261.744 94.6169 260.787 94.6169Z" fill="#572D91"/>
<path d="M40.645 62.7917V39.9828H46.9758V73.6864H38.1978L28.7282 49.2674V73.6864H22.3442V39.9828H31.2286L40.645 62.7917Z" fill="#572D91"/>
<path d="M63.0421 54.2048L68.6281 39.9828H75.2781L65.8617 60.5914V73.5791L58.8925 73.6327V60.5377L50.6997 39.9828H57.9881L63.0421 54.2048Z" fill="#572D91"/>
<path d="M85.3864 62.7917C85.3864 63.6504 85.3332 68.9099 89.7488 68.9099C94.1644 68.9099 94.1644 63.6504 94.1644 62.7917V39.9828H101.134V62.7917C101.134 64.8848 101.612 74.3304 89.7488 74.3304C77.8852 74.3304 78.364 65.0458 78.364 62.7917V39.9828H85.3332V62.7917H85.3864Z" fill="#572D91"/>
<path d="M112.412 39.9828H119.381V67.6219H129.968V73.6327H112.358V39.9828H112.412Z" fill="#572D91"/>
<path d="M141.14 49.2673C150.875 49.2673 149.545 56.7272 149.545 57.8542V68.9099C149.545 70.0906 149.758 72.935 150.077 73.6863H144.491C144.278 73.3107 143.906 70.4662 143.906 70.4662C142.948 72.291 140.608 74.1157 137.788 74.1157C136.671 74.1157 131.83 73.6863 131.83 67.1388C131.83 65.0458 132.042 59.0886 138.426 58.7129C143.374 58.4446 143.64 57.9079 143.64 55.6538C143.64 54.6878 143.321 52.8631 140.98 52.8631C137.469 52.8631 138.107 56.8345 138.107 56.8345H132.415C132.415 56.8345 131.404 49.2673 141.14 49.2673ZM139.065 62.6307C137.948 62.9527 137.309 65.1531 137.309 66.2801C137.309 67.2462 137.841 69.8759 140.235 69.8759C142.682 69.8759 143.587 67.1925 143.587 66.5485V61.6647C142.15 62.7917 140.82 62.1477 139.065 62.6307Z" fill="#572D91"/>
<path d="M161.569 50.126V51.8434C161.569 51.8434 163.643 49.5894 168.219 49.5894C172.794 49.5894 172.794 53.5608 172.794 56.0832V73.6864H166.623V57.0492C166.623 55.7612 166.729 53.4535 164.175 53.3998C162.047 53.3461 161.622 54.8488 161.622 57.5859V73.6864H155.344V50.126H161.569Z" fill="#572D91"/>
<path d="M230.782 50.126V51.8434C230.782 51.8434 232.857 49.5894 237.432 49.5894C242.007 49.5894 242.007 53.5608 242.007 56.0832V73.6864H235.836V57.0492C235.836 55.7612 235.942 53.4535 233.389 53.3998C231.261 53.3461 230.835 54.8488 230.835 57.5859V73.6864H224.611V50.126H230.782Z" fill="#572D91"/>
<path d="M195.83 73.6864C195.83 76.9065 195.776 82.5953 186.732 82.5953C177.688 82.5953 177.954 77.4431 177.954 75.3501H184.019C184.019 76.1551 183.86 78.9459 186.732 78.9459C189.605 78.9459 189.605 74.8134 189.605 73.5791V70.3053C189.605 70.3053 188.062 73.3644 184.232 73.3644C179.072 73.3644 177.582 71.3787 177.582 60.806C177.582 50.2334 181.732 49.321 184.179 49.321C186.679 49.321 189.233 51.1458 189.871 52.4338V50.2334H195.776V73.6864H195.83ZM186.573 69.3393C188.594 69.3393 190.031 68.3196 190.031 61.0744C190.031 53.3998 188.435 53.2925 186.732 53.2925C185.03 53.2925 183.434 53.8292 183.434 61.7184C183.434 66.7632 184.604 69.3393 186.573 69.3393Z" fill="#572D91"/>
<path d="M210.459 49.2673C220.035 49.2673 220.195 56.8345 220.195 61.1817C220.195 65.5288 220.248 74.3304 210.459 74.3304C200.67 74.3304 200.724 65.9581 200.724 61.1817C200.724 56.4052 200.83 49.2673 210.459 49.2673ZM210.459 70.1979C211.736 70.1979 213.598 69.4466 213.598 61.2353C213.598 53.0241 211.736 52.9168 210.459 52.9168C209.714 52.9168 207.374 53.1851 207.374 61.2353C207.374 70.1979 209.661 70.1979 210.459 70.1979Z" fill="#572D91"/>
<path d="M256.211 70.198C259.084 70.198 259.563 67.0852 259.563 65.4752H266C265.894 68.3732 265.309 74.3304 255.999 74.3304C253.711 74.3304 246.848 74.3304 246.848 61.8257C246.848 49.321 254.243 49.321 256.371 49.321C265.628 49.321 265.894 56.8883 265.894 62.8454H253.392C253.392 62.7917 252.913 70.198 256.211 70.198ZM256.69 53.1315C253.126 53.1315 253.392 59.518 253.392 59.518H259.829C259.829 58.552 260.255 53.1315 256.69 53.1315Z" fill="#572D91"/>
</g>
<defs>
<clipPath id="clip0_715_158">
<rect width="266" height="109" fill="white"/>
</clipPath>
</defs>
</svg>
