<svg width="107" height="181" viewBox="0 0 107 181" fill="none" xmlns="http://www.w3.org/2000/svg">
<rect width="107" height="181" fill="#1E1E1E"/>
<g id="LANDING / SERVICES" clip-path="url(#clip0_0_1)">
<rect width="1440" height="6949" transform="translate(-667 -1285)" fill="white"/>
<g id="Group 2229">
<g id="Group 2222">
<g id="Group 2226">
<rect id="Rectangle 4" x="-547" y="-259" width="1200" height="713" rx="9" stroke="#F6A117" stroke-width="2"/>
<g id="Group 2220">
<g id="OHSU" clip-path="url(#clip1_0_1)">
<g id="OHSU_2_">
<g id="Group">
<g id="Group_2">
<path id="Vector" d="M29.0261 178.647C27.5098 180.204 25.3076 181 22.4195 181C19.5313 181 17.3652 180.204 15.8128 178.647C13.7911 176.728 12.7441 173.941 12.7441 170.321C12.7441 166.629 13.755 163.841 15.8128 161.995C17.3291 160.438 19.5313 159.642 22.4195 159.642C25.3076 159.642 27.4737 160.438 29.0261 161.995C31.0478 163.841 32.0587 166.629 32.0587 170.321C32.0587 173.941 31.0478 176.728 29.0261 178.647ZM26.3907 175.57C27.3654 174.339 27.8708 172.602 27.8708 170.321C27.8708 168.077 27.3654 166.303 26.3907 165.072C25.4159 163.841 24.0801 163.226 22.4195 163.226C20.7588 163.226 19.423 163.841 18.4482 165.072C17.4735 166.303 16.9681 168.04 16.9681 170.321C16.9681 172.602 17.4735 174.339 18.4482 175.57C19.423 176.801 20.7588 177.416 22.4195 177.416C24.0801 177.416 25.4159 176.801 26.3907 175.57Z" fill="#585E60"/>
<path id="Vector_2" d="M36.6436 180.457V160.294H40.7953V167.968H48.6294V160.294H52.8172V180.457H48.6294V171.443H40.7953V180.457H36.6436Z" fill="#585E60"/>
<path id="Vector_3" d="M61.2651 174.231C61.4096 175.136 61.6623 175.823 62.0233 176.294C62.7092 177.127 63.9006 177.525 65.5974 177.525C66.6082 177.525 67.4386 177.416 68.0523 177.199C69.2437 176.765 69.8574 176.004 69.8574 174.846C69.8574 174.194 69.5686 173.651 68.9909 173.289C68.4133 172.927 67.4747 172.602 66.2111 172.348L64.045 171.878C61.915 171.407 60.4348 170.9 59.6406 170.321C58.2687 169.38 57.6189 167.932 57.6189 165.941C57.6189 164.131 58.2687 162.647 59.6045 161.452C60.9402 160.257 62.8897 159.642 65.453 159.642C67.583 159.642 69.4242 160.221 70.9404 161.343C72.4567 162.466 73.251 164.095 73.3232 166.23H69.2798C69.2076 165.036 68.666 164.167 67.6552 163.66C66.9692 163.334 66.1389 163.153 65.1641 163.153C64.045 163.153 63.1785 163.371 62.4926 163.805C61.8428 164.239 61.5179 164.855 61.5179 165.651C61.5179 166.375 61.8428 166.918 62.4926 167.28C62.9258 167.534 63.7923 167.787 65.1641 168.113L68.7021 168.945C70.2545 169.307 71.4098 169.814 72.1679 170.393C73.3593 171.335 73.973 172.71 73.973 174.52C73.973 176.366 73.251 177.887 71.843 179.118C70.435 180.348 68.4133 180.928 65.814 180.928C63.1785 180.928 61.0846 180.312 59.5684 179.118C58.0521 177.923 57.2939 176.258 57.2939 174.158H61.2651V174.231Z" fill="#585E60"/>
<path id="Vector_4" d="M78.269 160.257H82.5291V172.674C82.5291 174.05 82.7096 175.063 83.0345 175.715C83.5399 176.837 84.6591 177.416 86.3559 177.416C88.0526 177.416 89.1357 176.837 89.6772 175.715C90.0021 175.063 90.1827 174.05 90.1827 172.674V160.294H94.4427V172.674C94.4427 174.81 94.1177 176.475 93.4318 177.67C92.2043 179.842 89.8577 180.964 86.3559 180.964C82.854 180.964 80.5074 179.878 79.2799 177.67C78.6301 176.475 78.269 174.81 78.269 172.674V160.257Z" fill="#585E60"/>
</g>
</g>
<g id="Group_3">
<path id="Vector_5" d="M10.1808 154.176C32.8166 148.203 70.0015 147.189 94.984 152.873L97.2945 148.058C89.4604 146.32 38.3763 140.673 9.74756 152.981L10.1808 154.176Z" fill="#585E60"/>
<path id="Vector_6" d="M17.7622 87.4229C17.7622 87.4229 -10.6139 66.5717 18.9897 42.7521C-0.830264 57.1235 8.01529e-05 66.4993 8.01529e-05 72.2189C8.01529e-05 85.3595 11.7332 93.2149 25.4519 101.975C39.64 111.025 50.3622 117.505 55.5609 122.971C62.8535 130.646 63.2506 134.7 63.1784 135.786C66.572 114.971 29.9286 98.4277 17.7622 87.4229Z" fill="#5D97C9"/>
<path id="Vector_7" d="M17.7622 87.4231C10.6862 81.0157 10.9389 77.3595 10.9389 72.9793C10.9389 68.5991 14.2603 60.2731 40.4702 42.7884C66.6802 25.3038 69.5683 17.4122 69.5683 12.127C69.5683 6.84179 66.0664 5.10419 66.0664 5.10419C66.0664 5.10419 72.4565 13.575 35.1994 32.5438C-19.2061 60.2731 17.7622 87.4231 17.7622 87.4231Z" fill="#FAC937"/>
<path id="Vector_8" d="M65.489 139.08C65.489 139.08 81.771 127.858 81.771 111.93C81.771 96.0024 70.1461 88.0022 65.489 84.4908C60.8319 80.9794 19.9284 58.6802 19.9284 48.146C19.9284 48.146 13.8272 61.1418 36.2104 76.5992C58.5936 92.0566 73.648 99.5139 73.648 116.455C73.648 133.397 65.489 139.08 65.489 139.08Z" fill="#5D97C9"/>
<path id="Vector_9" d="M84.262 44.4898C84.262 44.4898 106.104 58.644 106.104 76.02C106.104 113.668 44.2611 119.351 44.2611 142.266C44.2611 142.266 37.0407 129.415 62.1676 114.392C87.2945 99.369 99.858 84.9252 99.858 71.7846C99.858 58.644 84.262 44.4898 84.262 44.4898Z" fill="#56B146"/>
<path id="Vector_10" d="M32.4556 85.6491C32.4556 85.6491 27.5096 70.4813 48.5931 56.7616C69.6766 43.0418 79.1714 33.4126 79.1714 22.9146C79.1714 12.4166 67.5466 0 67.5466 0C67.5466 0 83.5397 10.3532 83.5397 25.8468C83.5397 41.3404 71.951 52.7072 53.864 61.7572C31.9501 72.6895 32.4556 85.6491 32.4556 85.6491Z" fill="#FAC937"/>
<path id="Vector_11" d="M84.6953 49.775C84.6953 49.775 97.9446 63.6396 55.886 90.3552C13.8273 117.071 31.0118 131.659 43.7919 142.447C43.7919 142.447 23.1416 134.266 23.1416 116.311C23.1416 98.3554 43.8641 85.3958 58.0521 76.925C86.6809 59.8386 84.6953 49.775 84.6953 49.775Z" fill="#56B146"/>
</g>
</g>
</g>
</g>
</g>
</g>
</g>
</g>
<defs>
<clipPath id="clip0_0_1">
<rect width="1440" height="6949" fill="white" transform="translate(-667 -1285)"/>
</clipPath>
<clipPath id="clip1_0_1">
<rect width="106.103" height="181" fill="white"/>
</clipPath>
</defs>
</svg>
