<svg width="220" height="161" viewBox="0 0 220 161" fill="none" xmlns="http://www.w3.org/2000/svg">
<g id="OICR" clip-path="url(#clip0_715_286)">
<g id="OICR_2_">
<g id="Group">
<path id="Vector" d="M93.148 70.8491C79.816 70.8491 70.356 81.0337 70.356 93.5651C70.356 106.097 79.948 116.281 93.148 116.281C106.348 116.281 115.94 106.097 115.94 93.5651C115.984 81.0337 106.48 70.8491 93.148 70.8491ZM93.148 109.285C84.612 109.285 78.364 102.244 78.364 93.6094C78.364 84.9747 84.48 77.934 93.148 77.934C101.816 77.934 107.932 84.9747 107.932 93.6094C107.932 102.244 101.728 109.285 93.148 109.285Z" fill="black"/>
<path id="Vector_2" d="M130.24 71.5577H122.54V115.484H130.24V71.5577Z" fill="black"/>
<path id="Vector_3" d="M208.208 99.056C213.18 97.2848 218.548 93.3438 218.548 85.9489C218.548 78.1998 213.84 71.6019 202.004 71.6019C196.02 71.6019 192.544 71.6019 190.52 71.6019H188.1H182.864V115.528H190.52V100.296C192.5 100.296 195.624 100.296 200.068 100.296L210.848 115.528H220L208.208 99.056ZM190.564 93.3881V78.6426C190.564 78.6426 196.152 78.6426 202.18 78.6426C208.208 78.6426 210.804 82.0079 210.804 85.9932C210.804 90.4213 207.02 93.3881 202.18 93.3881C197.34 93.3881 190.564 93.3881 190.564 93.3881Z" fill="black"/>
<path id="Vector_4" d="M176.396 77.7128C171.864 73.2847 166.892 70.8492 159.368 70.8492C146.916 70.8492 136.796 80.1925 136.796 93.5653C136.796 106.849 146.916 116.281 159.368 116.281C166.276 116.281 172.084 113.403 176.748 108.488L171.864 103.44C171.864 103.44 166.804 109.152 159.896 109.152C150.524 109.152 144.892 102.2 144.892 93.5653C144.892 82.9379 152.988 77.8899 159.192 77.8899C166.54 77.8899 171.424 83.425 171.424 83.425L176.396 77.7128Z" fill="black"/>
</g>
<g id="Group_2">
<path id="Vector_5" d="M78.76 123.145C75.812 123.145 73.48 125.359 73.48 128.99C73.48 132.621 75.856 134.835 78.76 134.835C81.708 134.835 84.04 132.665 84.04 128.99C84.04 125.314 81.664 123.145 78.76 123.145ZM78.716 133.861C76.34 133.861 74.976 131.691 74.976 129.034C74.976 126.377 76.34 124.207 78.716 124.207C81.092 124.207 82.456 126.377 82.456 129.034C82.456 131.691 81.136 133.861 78.716 133.861Z" fill="#373435"/>
<path id="Vector_6" d="M133.144 126.599H134.552V127.529C134.552 127.529 135.74 126.244 137.236 126.244C139.128 126.244 139.744 127.573 139.744 128.724C139.744 129.875 139.744 134.569 139.744 134.569H138.336C138.336 134.569 138.336 129.698 138.336 128.724C138.336 127.75 137.5 127.263 136.62 127.263C135.3 127.263 134.552 128.724 134.552 128.724V134.569H133.144V126.599Z" fill="#373435"/>
<path id="Vector_7" d="M167.728 134.525H166.32V133.595C166.32 133.595 165.132 134.879 163.636 134.879C161.744 134.879 161.128 133.551 161.128 132.399C161.128 131.248 161.128 126.554 161.128 126.554H162.536C162.536 126.554 162.536 131.425 162.536 132.399C162.536 133.241 163.372 133.861 164.252 133.861C165.572 133.861 166.32 132.399 166.32 132.399V126.554H167.728V134.525Z" fill="#373435"/>
<path id="Vector_8" d="M148.852 124.473H150.304V126.554H151.976V127.484H150.304C150.304 127.484 150.304 131.647 150.304 132.709C150.304 133.772 150.964 134.082 151.404 134.082C151.844 134.082 152.416 133.772 152.416 133.772L152.636 134.171C152.636 134.171 151.8 134.835 151.052 134.835C150.304 134.835 148.896 134.525 148.896 132.754C148.896 131.824 148.896 127.529 148.896 127.529H147.84V126.599H148.896V124.473H148.852Z" fill="#373435"/>
<path id="Vector_9" d="M156.86 124.473H158.312V126.554H159.984V127.484H158.312C158.312 127.484 158.312 131.647 158.312 132.709C158.312 133.772 158.972 134.082 159.412 134.082C159.852 134.082 160.424 133.772 160.424 133.772L160.644 134.171C160.644 134.171 159.808 134.835 159.06 134.835C158.312 134.835 156.904 134.525 156.904 132.754C156.904 131.824 156.904 127.529 156.904 127.529H155.848V126.599H156.904V124.473H156.86Z" fill="#373435"/>
<path id="Vector_10" d="M169.796 124.473H171.248V126.554H172.92V127.484H171.248C171.248 127.484 171.248 131.647 171.248 132.709C171.248 133.772 171.908 134.082 172.348 134.082C172.788 134.082 173.36 133.772 173.36 133.772L173.58 134.171C173.58 134.171 172.744 134.835 171.996 134.835C171.248 134.835 169.84 134.525 169.84 132.754C169.84 131.824 169.84 127.529 169.84 127.529H168.784V126.599H169.84V124.473H169.796Z" fill="#373435"/>
<path id="Vector_11" d="M102.388 126.244C100.012 126.244 99.3958 128.104 99.2638 128.724L99.6598 128.813C99.6598 128.813 100.32 127.396 102.036 127.396C103.752 127.396 104.016 128.591 104.016 129.92C104.016 129.92 103.312 129.565 102.168 129.565C101.024 129.565 98.7358 130.185 98.7358 132.444C98.7358 134.702 101.156 134.879 101.596 134.879C103.092 134.879 104.016 133.595 104.016 133.595V134.569H105.38C105.38 134.569 105.38 131.027 105.38 129.565C105.424 128.06 104.764 126.244 102.388 126.244ZM104.016 132.886C104.016 132.886 103.268 133.816 102.124 133.816C101.024 133.816 100.232 133.374 100.232 132.222C100.232 130.805 101.728 130.451 102.344 130.451C102.96 130.451 104.016 130.672 104.016 130.672V132.886Z" fill="#373435"/>
<path id="Vector_12" d="M107.228 126.599H108.68V127.529C108.68 127.529 109.648 126.466 110.572 126.466C111.496 126.466 111.496 126.599 111.496 126.599V127.971C111.496 127.971 111.32 127.529 110.264 127.529C109.208 127.529 108.636 128.503 108.636 128.503V134.569H107.184V126.599H107.228Z" fill="#373435"/>
<path id="Vector_13" d="M190.608 142.805H192.06V143.735C192.06 143.735 193.028 142.672 193.952 142.672C194.876 142.672 194.876 142.805 194.876 142.805V144.178C194.876 144.178 194.7 143.735 193.644 143.735C192.588 143.735 192.016 144.709 192.016 144.709V150.776H190.564V142.805H190.608Z" fill="#373435"/>
<path id="Vector_14" d="M154.572 126.599H153.12V134.569H154.572V126.599Z" fill="#373435"/>
<path id="Vector_15" d="M131.032 123.588H129.58V134.525H131.032V123.588Z" fill="#373435"/>
<path id="Vector_16" d="M153.824 125.093C154.286 125.093 154.66 124.716 154.66 124.252C154.66 123.787 154.286 123.41 153.824 123.41C153.362 123.41 152.988 123.787 152.988 124.252C152.988 124.716 153.362 125.093 153.824 125.093Z" fill="#373435"/>
<path id="Vector_17" d="M85.8882 126.599H87.2962V127.529C87.2962 127.529 88.4842 126.244 89.9802 126.244C91.8722 126.244 92.4882 127.573 92.4882 128.724C92.4882 129.875 92.4882 134.569 92.4882 134.569H91.0802C91.0802 134.569 91.0802 129.698 91.0802 128.724C91.0802 127.75 90.2442 127.263 89.3642 127.263C88.0442 127.263 87.2962 128.724 87.2962 128.724V134.569H85.8882V126.599Z" fill="#373435"/>
<path id="Vector_18" d="M94.8641 124.473H96.316V126.554H97.988V127.484H96.316C96.316 127.484 96.316 131.647 96.316 132.709C96.316 133.772 96.976 134.082 97.416 134.082C97.856 134.082 98.428 133.772 98.428 133.772L98.648 134.171C98.648 134.171 97.812 134.835 97.064 134.835C96.3161 134.835 94.908 134.525 94.908 132.754C94.908 131.824 94.908 127.529 94.908 127.529H93.8521V126.599H94.908V124.473H94.8641Z" fill="#373435"/>
<path id="Vector_19" d="M114.004 126.599H112.552V134.569H114.004V126.599Z" fill="#373435"/>
<path id="Vector_20" d="M113.256 125.093C113.718 125.093 114.092 124.716 114.092 124.252C114.092 123.787 113.718 123.41 113.256 123.41C112.794 123.41 112.42 123.787 112.42 124.252C112.42 124.716 112.794 125.093 113.256 125.093Z" fill="#373435"/>
<path id="Vector_21" d="M119.108 126.244C116.996 126.244 115.324 127.706 115.324 130.54C115.324 133.374 117.04 134.835 119.108 134.835C121.22 134.835 122.892 133.418 122.892 130.54C122.892 127.661 121.176 126.244 119.108 126.244ZM119.108 134.038C117.612 134.038 116.776 132.488 116.776 130.584C116.776 128.68 117.48 127.13 119.108 127.13C120.692 127.13 121.44 128.68 121.44 130.584C121.396 132.488 120.56 134.038 119.108 134.038Z" fill="#373435"/>
<path id="Vector_22" d="M87.3399 142.85H88.7919V143.78C88.7919 143.78 89.7599 142.717 90.6839 142.717C91.6079 142.717 91.6079 142.85 91.6079 142.85V144.222C91.6079 144.222 91.4319 143.78 90.3759 143.78C89.3199 143.78 88.7479 144.754 88.7479 144.754V150.82H87.2959V142.85H87.3399Z" fill="#373435"/>
<path id="Vector_23" d="M77.44 140.193C77.88 140.193 78.452 140.503 78.452 140.503L78.672 140.104C78.672 140.104 77.836 139.44 77.088 139.44C76.34 139.44 74.932 139.75 74.932 141.521C74.932 141.698 74.932 142.185 74.932 142.85H73.876V143.78H74.932C74.932 146.569 74.932 150.82 74.932 150.82H76.384C76.384 150.82 76.384 146.569 76.384 143.78H78.056V142.85H76.384C76.384 142.23 76.384 141.787 76.384 141.566C76.34 140.503 77 140.193 77.44 140.193Z" fill="#373435"/>
<path id="Vector_24" d="M81.972 142.495C79.86 142.495 78.188 143.957 78.188 146.791C78.188 149.625 79.904 151.086 81.972 151.086C84.084 151.086 85.756 149.669 85.756 146.791C85.756 143.912 84.084 142.495 81.972 142.495ZM81.972 150.289C80.476 150.289 79.64 148.739 79.64 146.835C79.64 144.931 80.344 143.381 81.972 143.381C83.6 143.381 84.304 144.931 84.304 146.835C84.304 148.739 83.468 150.289 81.972 150.289Z" fill="#373435"/>
<path id="Vector_25" d="M140.888 132.399L141.284 132.267C141.284 132.267 142.032 133.816 143.924 133.816C145.816 133.816 145.816 132.709 145.816 132.532C145.816 132.355 145.948 131.425 143.924 130.938C141.9 130.451 141.328 129.433 141.328 128.68C141.328 127.927 141.9 126.2 144.144 126.2C146.432 126.2 146.96 127.661 147.092 128.414L146.696 128.636C146.696 128.636 146.08 127.263 144.364 127.263C142.648 127.263 142.736 128.547 142.736 128.724C142.736 128.901 142.912 129.477 144.408 129.875C145.948 130.274 147.224 130.805 147.224 132.355C147.224 133.861 145.86 134.879 144.056 134.879C141.064 134.835 140.888 132.399 140.888 132.399Z" fill="#373435"/>
<path id="Vector_26" d="M177.76 133.861C176.088 133.861 174.856 132.532 174.856 130.54H180.972C180.972 128.148 179.784 126.244 177.188 126.244C175.076 126.244 173.404 128.193 173.404 130.54C173.404 132.931 174.768 134.835 177.188 134.835C178.992 134.835 180.312 133.994 180.796 132.355L180.356 132.134C180.356 132.134 179.432 133.861 177.76 133.861ZM177.188 127.263C179.52 127.263 179.52 129.654 179.52 129.654H174.812C174.856 129.654 175.208 127.263 177.188 127.263Z" fill="#373435"/>
<path id="Vector_27" d="M185.988 142.451C183.612 142.451 182.996 144.311 182.864 144.931L183.26 145.019C183.26 145.019 183.92 143.602 185.636 143.602C187.352 143.602 187.616 144.798 187.616 146.126C187.616 146.126 186.912 145.772 185.768 145.772C184.624 145.772 182.336 146.392 182.336 148.65C182.336 150.909 184.756 151.086 185.196 151.086C186.692 151.086 187.616 149.802 187.616 149.802V150.776H188.98C188.98 150.776 188.98 147.233 188.98 145.772C189.068 144.267 188.408 142.451 185.988 142.451ZM187.66 149.093C187.66 149.093 186.912 150.023 185.768 150.023C184.668 150.023 183.876 149.58 183.876 148.429C183.876 147.012 185.372 146.658 185.988 146.658C186.604 146.658 187.66 146.879 187.66 146.879V149.093Z" fill="#373435"/>
<path id="Vector_28" d="M167.112 148.606L167.508 148.473C167.508 148.473 168.256 150.023 170.148 150.023C172.04 150.023 172.04 148.916 172.04 148.739C172.04 148.562 172.172 147.632 170.148 147.145C168.124 146.658 167.552 145.639 167.552 144.887C167.552 144.134 168.124 142.407 170.368 142.407C172.656 142.407 173.184 143.868 173.316 144.621L172.92 144.842C172.92 144.842 172.304 143.47 170.588 143.47C168.872 143.47 168.96 144.754 168.96 144.931C168.96 145.108 169.136 145.684 170.632 146.082C172.128 146.481 173.448 147.012 173.448 148.562C173.448 150.067 172.084 151.086 170.28 151.086C167.288 151.042 167.112 148.606 167.112 148.606Z" fill="#373435"/>
<path id="Vector_29" d="M163.328 150.067C161.656 150.067 160.424 148.739 160.424 146.746H166.54C166.54 144.355 165.352 142.451 162.756 142.451C160.644 142.451 158.972 144.399 158.972 146.746C158.972 149.137 160.336 151.042 162.756 151.042C164.56 151.042 165.88 150.2 166.364 148.562L165.924 148.34C165.924 148.34 165 150.067 163.328 150.067ZM162.756 143.47C165.088 143.47 165.088 145.861 165.088 145.861H160.38C160.424 145.861 160.776 143.47 162.756 143.47Z" fill="#373435"/>
<path id="Vector_30" d="M178.772 150.067C177.1 150.067 175.868 148.739 175.868 146.746H181.984C181.984 144.355 180.796 142.451 178.2 142.451C176.088 142.451 174.416 144.399 174.416 146.746C174.416 149.137 175.78 151.042 178.2 151.042C180.004 151.042 181.324 150.2 181.808 148.562L181.368 148.34C181.368 148.34 180.444 150.067 178.772 150.067ZM178.2 143.47C180.532 143.47 180.532 145.861 180.532 145.861H175.824C175.868 145.861 176.22 143.47 178.2 143.47Z" fill="#373435"/>
<path id="Vector_31" d="M111.1 142.495C108.724 142.495 108.108 144.355 107.976 144.975L108.372 145.064C108.372 145.064 109.032 143.647 110.748 143.647C112.464 143.647 112.728 144.842 112.728 146.171C112.728 146.171 112.024 145.816 110.88 145.816C109.736 145.816 107.448 146.436 107.448 148.695C107.448 150.953 109.868 151.13 110.308 151.13C111.804 151.13 112.728 149.846 112.728 149.846V150.82H114.092C114.092 150.82 114.092 147.278 114.092 145.816C114.092 144.355 113.476 142.495 111.1 142.495ZM112.772 149.137C112.772 149.137 112.024 150.067 110.88 150.067C109.78 150.067 108.988 149.625 108.988 148.473C108.988 147.056 110.484 146.702 111.1 146.702C111.716 146.702 112.772 146.923 112.772 146.923V149.137Z" fill="#373435"/>
<path id="Vector_32" d="M140.624 142.85H142.076V143.78C142.076 143.78 143.044 142.717 143.968 142.717C144.892 142.717 144.892 142.85 144.892 142.85V144.222C144.892 144.222 144.716 143.78 143.66 143.78C142.604 143.78 142.032 144.754 142.032 144.754V150.82H140.58V142.85H140.624Z" fill="#373435"/>
<path id="Vector_33" d="M115.94 142.85H117.348V143.78C117.348 143.78 118.536 142.495 120.032 142.495C121.924 142.495 122.54 143.824 122.54 144.975C122.54 146.126 122.54 150.82 122.54 150.82H121.132C121.132 150.82 121.132 145.949 121.132 144.975C121.132 144.045 120.296 143.514 119.416 143.514C118.096 143.514 117.348 144.975 117.348 144.975V150.82H115.94V142.85Z" fill="#373435"/>
<path id="Vector_34" d="M203.148 139.794H204.556V143.78C204.556 143.78 205.744 142.495 207.24 142.495C209.132 142.495 209.748 143.824 209.748 144.975C209.748 146.126 209.748 150.82 209.748 150.82H208.34C208.34 150.82 208.34 145.949 208.34 144.975C208.34 144.045 207.504 143.514 206.624 143.514C205.304 143.514 204.556 144.975 204.556 144.975V150.82H203.148V139.794Z" fill="#373435"/>
<path id="Vector_35" d="M136.092 150.112C134.42 150.112 133.188 148.783 133.188 146.791H139.304C139.304 144.399 138.116 142.495 135.52 142.495C133.408 142.495 131.736 144.444 131.736 146.791C131.736 149.182 133.1 151.086 135.52 151.086C137.324 151.086 138.644 150.245 139.128 148.606L138.688 148.385C138.732 148.385 137.808 150.112 136.092 150.112ZM135.564 143.558C137.896 143.558 137.896 145.949 137.896 145.949H133.188C133.232 145.949 133.54 143.558 135.564 143.558Z" fill="#373435"/>
<path id="Vector_36" d="M130.944 145.064C130.636 143.47 129.712 142.495 127.644 142.495C125.532 142.495 123.86 144.444 123.86 146.791C123.86 149.182 125.224 151.086 127.644 151.086C129.448 151.086 130.46 150.156 130.9 148.473L130.548 148.34C130.548 148.34 129.536 150.067 128.216 150.067C126.544 150.067 125.312 148.739 125.312 146.746C125.312 144.754 126.632 143.47 127.688 143.47C130.02 143.47 130.504 145.108 130.504 145.108L130.944 145.064Z" fill="#373435"/>
<path id="Vector_37" d="M202.004 145.064C201.696 143.47 200.772 142.495 198.704 142.495C196.592 142.495 194.92 144.444 194.92 146.791C194.92 149.182 196.284 151.086 198.704 151.086C200.508 151.086 201.52 150.156 201.96 148.473L201.608 148.34C201.608 148.34 200.596 150.067 199.276 150.067C197.604 150.067 196.372 148.739 196.372 146.746C196.372 144.754 197.692 143.47 198.748 143.47C201.08 143.47 201.564 145.108 201.564 145.108L202.004 145.064Z" fill="#373435"/>
<path id="Vector_38" d="M106.26 142.584L106.656 142.407C106.656 142.407 106.348 139.44 102.652 139.44C98.9562 139.44 97.2842 142.451 97.2842 144.975C97.2842 147.499 98.3842 151.13 102.256 151.13C106.128 151.13 106.744 148.163 106.744 148.163L106.304 147.986C106.304 147.986 105.072 150.156 102.828 150.156C100.584 150.156 98.7802 148.119 98.7802 145.019C98.7802 141.92 101.068 140.547 102.696 140.547C105.38 140.503 106.26 142.584 106.26 142.584Z" fill="#373435"/>
<path id="Vector_39" d="M156.112 145.418C156.112 145.418 158.136 144.887 158.136 142.495C158.136 140.724 156.684 139.75 154.528 139.75C153.56 139.75 151.052 139.75 151.052 139.75V150.82H152.548V145.816C154.044 145.816 154.616 145.684 154.616 145.684L157.608 150.82H159.192L156.112 145.418ZM152.592 145.197V140.768C152.592 140.768 153.34 140.768 154.396 140.768C155.452 140.768 156.596 141.521 156.596 142.54C156.596 143.514 156.2 145.197 152.592 145.197Z" fill="#373435"/>
</g>
<g id="Group_3">
<path id="Vector_40" d="M140.096 33.6534L150.876 19.5278C147.62 17.0038 144.232 14.7012 140.668 12.62L131.78 28.0297C134.684 29.7566 137.456 31.6164 140.096 33.6534Z" fill="#8CC63F"/>
<path id="Vector_41" d="M122.936 23.6459L129.712 7.21775C125.928 5.62364 122.012 4.29522 117.964 3.23248L113.388 20.4577C116.688 21.2547 119.856 22.3618 122.936 23.6459Z" fill="#38793A"/>
<path id="Vector_42" d="M93.764 17.8009V0C89.54 0 85.404 0.265685 81.312 0.841334L83.644 18.5094C86.944 18.0223 90.332 17.8009 93.764 17.8009Z" fill="#38793A"/>
<path id="Vector_43" d="M33.264 140.724L19.228 151.529C21.692 154.806 24.376 157.905 27.236 160.784L39.776 148.208C37.444 145.905 35.244 143.381 33.264 140.724Z" fill="#8CC63F"/>
<path id="Vector_44" d="M17.688 94.3622C17.688 94.3179 17.688 94.2293 17.688 94.1851H0C0 94.2293 0 94.3179 0 94.3622C0 98.5246 0.264 102.598 0.791999 106.628L18.348 104.281C17.908 101.004 17.688 97.7275 17.688 94.3622Z" fill="#38793A"/>
<path id="Vector_45" d="M64.2838 43.3066L55.5278 28.1625C52.6678 29.8452 49.8958 31.705 47.2998 33.7419L57.9478 47.6018C59.9718 46.052 62.0838 44.5907 64.2838 43.3066Z" fill="#9ECD59"/>
<path id="Vector_46" d="M36.4318 19.6606C33.2198 22.1846 30.1398 24.8858 27.2798 27.764L52.1838 52.6498C53.9878 50.8342 55.8798 49.1516 57.9038 47.6018L36.4318 19.6606Z" fill="#38793A"/>
<path id="Vector_47" d="M101.332 35.8231L103.576 18.4651C100.364 18.0666 97.1082 17.8452 93.7642 17.8452V35.3803C96.3162 35.336 98.8242 35.5132 101.332 35.8231Z" fill="#A0CE5C"/>
<path id="Vector_48" d="M93.764 35.336V17.8008C90.332 17.8008 86.988 18.0222 83.688 18.4651L86.02 35.8231C88.528 35.5131 91.124 35.336 93.764 35.336Z" fill="black"/>
<path id="Vector_49" d="M123.112 43.2623L131.824 28.1183C128.964 26.4356 125.972 24.9743 122.936 23.6902L116.248 39.8526C118.624 40.8268 120.912 41.9781 123.112 43.2623Z" fill="black"/>
<path id="Vector_50" d="M52.0959 135.897L39.7759 148.252C42.1519 150.687 44.7039 152.901 47.3879 154.982L57.9919 141.078C55.8799 139.484 53.9439 137.757 52.0959 135.897Z" fill="url(#paint0_linear_715_286)"/>
<path id="Vector_51" d="M47.0802 130.097L33.2642 140.724C35.2882 143.381 37.4442 145.861 39.7762 148.252L52.0962 135.897C50.2922 134.082 48.6202 132.134 47.0802 130.097Z" fill="black"/>
<path id="Vector_52" d="M123.112 43.2623C125.312 44.5464 127.468 46.0077 129.492 47.5575L140.096 33.6533C137.456 31.6164 134.728 29.7566 131.824 28.074L123.112 43.2623Z" fill="#38793A"/>
<path id="Vector_53" d="M42.9442 64.8713L27.8522 56.1479C26.1802 59.0705 24.6842 62.1259 23.4082 65.2698L39.5122 71.9119C40.5242 69.4322 41.6682 67.0853 42.9442 64.8713Z" fill="black"/>
<path id="Vector_54" d="M37.0922 109.595L20.2842 114.156C21.1202 117.344 22.1762 120.399 23.4082 123.41L39.5122 116.724C38.5442 114.421 37.7522 112.03 37.0922 109.595Z" fill="black"/>
<path id="Vector_55" d="M39.5122 71.8677L23.4082 65.2256C22.1762 68.2367 21.1202 71.3363 20.2842 74.5245L37.0922 79.0412C37.7522 76.5615 38.5442 74.1703 39.5122 71.8677Z" fill="url(#paint1_linear_715_286)"/>
<path id="Vector_56" d="M72.9523 58.2292L64.2843 43.3066C62.0843 44.5908 59.9722 46.052 57.9482 47.6019L68.4643 61.2846C69.8723 60.1776 71.3683 59.1591 72.9523 58.2292Z" fill="black"/>
<path id="Vector_57" d="M64.416 64.8713L52.228 52.6941C50.424 54.5096 48.752 56.458 47.168 58.4949L60.852 68.9451C61.952 67.5282 63.14 66.1555 64.416 64.8713Z" fill="#C2DE98"/>
<path id="Vector_58" d="M60.8519 68.9451L47.1678 58.4949C45.6278 60.5318 44.2198 62.6573 42.9438 64.8713L57.8599 73.4617C58.7399 71.8676 59.7519 70.3621 60.8519 68.9451Z" fill="black"/>
<path id="Vector_59" d="M77.8362 55.7937L71.1922 39.8527C68.8162 40.8711 66.4842 42.0224 64.2842 43.3066L72.9522 58.2292C74.4922 57.3436 76.1202 56.5022 77.8362 55.7937Z" fill="#38793A"/>
<path id="Vector_60" d="M109.648 55.7937L116.248 39.8083C113.872 38.8341 111.452 37.9928 108.9 37.2843L104.456 54.0224C106.26 54.5095 107.976 55.0852 109.648 55.7937Z" fill="url(#paint2_linear_715_286)"/>
<path id="Vector_61" d="M104.456 54.0225L108.9 37.3287C106.436 36.6645 103.884 36.1774 101.288 35.8231L99.0879 52.9598C100.936 53.1812 102.74 53.5354 104.456 54.0225Z" fill="black"/>
<path id="Vector_62" d="M93.7641 52.6056V35.3361C91.1241 35.3361 88.5281 35.5132 85.9761 35.8674L88.2641 53.0041C90.0681 52.7384 91.8721 52.6056 93.7641 52.6056Z" fill="#C2DE98"/>
<path id="Vector_63" d="M69.0801 3.32104C65.1641 4.38378 61.3361 5.71221 57.6401 7.26203L77.8361 55.7938C79.4641 55.1296 81.1361 54.5096 82.8961 54.0668L69.0801 3.32104Z" fill="url(#paint3_linear_715_286)"/>
<path id="Vector_64" d="M57.728 115.041L42.812 123.676C44.088 125.934 45.496 128.06 47.08 130.141L60.72 119.647C59.62 118.141 58.608 116.635 57.728 115.041Z" fill="#BFDC92"/>
<path id="Vector_65" d="M52.6678 88.6942L35.6398 86.4359C35.2878 88.9599 35.1118 91.5282 35.1118 94.185H52.2718C52.2718 92.3253 52.4038 90.5097 52.6678 88.6942Z" fill="black"/>
<g id="Group_4">
<path id="Vector_66" d="M12.4082 141.256C14.4762 144.842 16.7202 148.296 19.2282 151.573L47.1242 130.097C45.5842 128.06 44.1322 125.89 42.8562 123.632L12.4082 141.256Z" fill="#38793A"/>
<path id="Vector_67" d="M55.3523 110.126L39.4683 116.724C40.4363 119.115 41.5363 121.418 42.8123 123.632L57.7283 114.997C56.8483 113.447 56.0563 111.809 55.3523 110.126Z" fill="#38793A"/>
</g>
<path id="Vector_68" d="M83.6441 18.4651C80.2561 18.9079 76.9561 19.5721 73.7441 20.4577L82.8521 54.0225C84.6121 53.5354 86.4161 53.1812 88.2641 52.9155L83.6441 18.4651Z" fill="#38793A"/>
<path id="Vector_69" d="M19.2281 37.063C16.7641 40.2955 14.5201 43.7051 12.4521 47.2476L42.9001 64.827C44.1761 62.613 45.5841 60.4875 47.1241 58.4506L19.2281 37.063Z" fill="url(#paint4_linear_715_286)"/>
<path id="Vector_70" d="M39.512 71.8676C38.544 74.1702 37.752 76.5613 37.092 78.9968L3.16794 69.9635C2.15594 73.8159 1.36394 77.8012 0.835938 81.8308L52.668 88.7386C52.888 86.9673 53.24 85.1961 53.724 83.5134C54.208 81.7865 54.78 80.1038 55.44 78.4654L39.512 71.8676Z" fill="#38793A"/>
<path id="Vector_71" d="M52.624 99.6759C52.404 97.9489 52.272 96.1334 52.272 94.3622C52.272 94.3179 52.272 94.2293 52.272 94.1851H35.112C35.112 94.2293 35.112 94.3179 35.112 94.3622C35.112 96.9305 35.288 99.4988 35.596 101.978L0.791992 106.628C1.31999 110.79 2.15599 114.864 3.21199 118.849L53.68 105.122C53.196 103.307 52.844 101.536 52.624 99.6759Z" fill="url(#paint5_linear_715_286)"/>
</g>
</g>
</g>
<defs>
<linearGradient id="paint0_linear_715_286" x1="43.4567" y1="151.749" x2="55.0287" y2="138.132" gradientUnits="userSpaceOnUse">
<stop stop-color="#9BCC53"/>
<stop offset="1" stop-color="#B0D67B"/>
</linearGradient>
<linearGradient id="paint1_linear_715_286" x1="21.2816" y1="69.6156" x2="38.8462" y2="76.8376" gradientUnits="userSpaceOnUse">
<stop stop-color="#8CC63F"/>
<stop offset="1" stop-color="#CAE2A6"/>
</linearGradient>
<linearGradient id="paint2_linear_715_286" x1="116.715" y1="26.8226" x2="106.626" y2="55.0735" gradientUnits="userSpaceOnUse">
<stop stop-color="#8CC63F"/>
<stop offset="1" stop-color="#CAE2A6"/>
</linearGradient>
<linearGradient id="paint3_linear_715_286" x1="63.3943" y1="5.3491" x2="80.2105" y2="54.8702" gradientUnits="userSpaceOnUse">
<stop stop-color="#8CC63F"/>
<stop offset="1" stop-color="#CAE2A6"/>
</linearGradient>
<linearGradient id="paint4_linear_715_286" x1="15.6112" y1="42.0014" x2="45.05" y2="61.905" gradientUnits="userSpaceOnUse">
<stop stop-color="#8CC63F"/>
<stop offset="1" stop-color="#CAE2A6"/>
</linearGradient>
<linearGradient id="paint5_linear_715_286" x1="1.37614" y1="110.735" x2="52.4956" y2="98.7123" gradientUnits="userSpaceOnUse">
<stop stop-color="#8CC63F"/>
<stop offset="1" stop-color="#CAE2A6"/>
</linearGradient>
<clipPath id="clip0_715_286">
<rect width="220" height="160.828" fill="white"/>
</clipPath>
</defs>
</svg>
