<svg width="141" height="123" viewBox="0 0 141 123" fill="none" xmlns="http://www.w3.org/2000/svg">
<g clip-path="url(#clip0_715_1677)">
<g opacity="0.14">
<path d="M88.0774 91.6143L35.231 122.152H70.4619L88.0774 91.6143Z" fill="black"/>
<path d="M123.308 91.6142L140.924 61.0762L88.0771 91.6142H123.308Z" fill="black"/>
</g>
<g opacity="0.29">
<path d="M88.0776 30.5381L140.924 61.0761L123.309 30.5381H88.0776Z" fill="black"/>
<path d="M70.4619 0H35.231L88.0775 30.5381L70.4619 0Z" fill="black"/>
</g>
<g opacity="0.43">
<path d="M35.231 61.0762L88.0775 91.6142L70.4619 61.0762H35.231Z" fill="black"/>
<path d="M88.0774 91.6144L70.4619 122.152H105.693L88.0774 91.6143V91.6144Z" fill="black"/>
<path d="M0 61.0762L17.6154 91.6142L35.231 61.0762H0Z" fill="black"/>
</g>
<g opacity="0.57">
<path d="M88.0776 91.6143L105.693 122.152L123.309 91.6143H88.0776Z" fill="black"/>
<path d="M70.4619 61.0761L88.0774 91.6142V30.5381L70.4619 61.0761Z" fill="black"/>
<path d="M123.309 30.5381L105.693 0L88.0776 30.5381H123.309Z" fill="black"/>
</g>
<g opacity="0.71">
<path d="M88.0775 30.5381V30.5381L35.231 0V61.0762L88.0775 30.5381Z" fill="black"/>
<path d="M35.231 61.0762V122.152L88.0775 91.6143V91.6142L35.231 61.0762Z" fill="black"/>
<path d="M88.0776 30.5381V91.6142L140.924 61.0761L88.0776 30.5381Z" fill="black"/>
</g>
<g opacity="0.86">
<path d="M88.0775 30.5381L35.231 61.0761H70.4619L88.0775 30.5381Z" fill="black"/>
<path d="M88.0774 30.5381L105.693 0H70.4619L88.0774 30.5381V30.5381Z" fill="black"/>
<path d="M35.231 61.0761L17.6154 30.5381L10.1703 43.4449L0 61.0761H35.231Z" fill="black"/>
</g>
<path d="M17.6152 91.6142L35.2308 122.152V61.0762L17.6152 91.6142Z" fill="black"/>
<path d="M35.2308 0L17.6152 30.5381L35.2308 61.0762V0Z" fill="black"/>
</g>
<defs>
<clipPath id="clip0_715_1677">
<rect width="140.924" height="122.152" fill="white"/>
</clipPath>
</defs>
</svg>
