<?xml version="1.0" encoding="utf-8"?>
<!-- Generator: Adobe Illustrator 28.2.0, SVG Export Plug-In . SVG Version: 6.00 Build 0)  -->
<svg version="1.1" id="Layer_1" xmlns="http://www.w3.org/2000/svg" xmlns:xlink="http://www.w3.org/1999/xlink" x="0px" y="0px"
	 viewBox="0 0 140.9 122.2" style="enable-background:new 0 0 140.9 122.2;" xml:space="preserve">
<style type="text/css">
	.st0{fill:#FFFFFF;}
	.st1{clip-path:url(#SVGID_00000054265311906150284840000005108815367863495353_);}
	.st2{opacity:0.14;}
	.st3{opacity:0.29;}
	.st4{opacity:0.43;}
	.st5{opacity:0.57;}
	.st6{opacity:0.71;}
	.st7{opacity:0.86;}
</style>
<rect class="st0" width="140.9" height="122.2"/>
<g>
	<g>
		<g>
			<g>
				<g>
					<defs>
						<rect id="SVGID_1_" x="30.8" y="26.8" width="79.3" height="68.7"/>
					</defs>
					<clipPath id="SVGID_00000077288014072213739700000005371068901270235017_">
						<use xlink:href="#SVGID_1_"  style="overflow:visible;"/>
					</clipPath>
					<g style="clip-path:url(#SVGID_00000077288014072213739700000005371068901270235017_);">
						<g class="st2">
							<path d="M80.4,78.3L50.6,95.5h19.8L80.4,78.3z"/>
							<path d="M100.2,78.3l9.9-17.2L80.4,78.3H100.2z"/>
						</g>
						<g class="st3">
							<path d="M80.4,43.9l29.7,17.2l-9.9-17.2C100.2,43.9,80.4,43.9,80.4,43.9z"/>
							<path d="M70.5,26.8H50.6L80.3,44L70.5,26.8z"/>
						</g>
						<g class="st4">
							<path d="M50.6,61.1l29.8,17.2l-9.9-17.2C70.5,61.1,50.6,61.1,50.6,61.1z"/>
							<path d="M80.4,78.3l-9.9,17.2h19.8L80.4,78.3L80.4,78.3L80.4,78.3z"/>
							<path d="M30.8,61.1l9.9,17.2l9.9-17.2C50.6,61.1,30.8,61.1,30.8,61.1z"/>
						</g>
						<g class="st5">
							<path d="M80.4,78.3l9.9,17.2l9.9-17.2H80.4z"/>
							<path d="M70.5,61.1l9.9,17.2V43.9L70.5,61.1z"/>
							<path d="M100.2,43.9l-9.9-17.2l-9.9,17.2H100.2z"/>
						</g>
						<g class="st6">
							<path d="M80.4,43.9L80.4,43.9L50.6,26.8v34.3L80.4,43.9z"/>
							<path d="M50.6,61.1v34.3l29.8-17.2l0,0L50.6,61.1z"/>
							<path d="M80.4,43.9v34.4l29.7-17.2C110.1,61.1,80.4,43.9,80.4,43.9z"/>
						</g>
						<g class="st7">
							<path d="M80.4,43.9L50.6,61.1h19.8L80.4,43.9z"/>
							<path d="M80.4,43.9l9.9-17.2H70.5L80.4,43.9L80.4,43.9z"/>
							<path d="M50.6,61.1l-9.9-17.2l-4.2,7.3l-5.7,9.9C30.8,61.1,50.6,61.1,50.6,61.1z"/>
						</g>
						<path d="M40.7,78.3l9.9,17.2V61.1L40.7,78.3z"/>
						<path d="M50.6,26.8L40.7,44l9.9,17.2V26.8z"/>
					</g>
				</g>
			</g>
		</g>
	</g>
</g>
</svg>
