<?xml version="1.0" encoding="utf-8"?>
<!-- Generator: Adobe Illustrator 28.2.0, SVG Export Plug-In . SVG Version: 6.00 Build 0)  -->
<svg version="1.1" id="Layer_1" xmlns="http://www.w3.org/2000/svg" xmlns:xlink="http://www.w3.org/1999/xlink" x="0px" y="0px"
	 viewBox="0 0 140.9 122.2" style="enable-background:new 0 0 140.9 122.2;" xml:space="preserve">
<style type="text/css">
	.st0{clip-path:url(#SVGID_00000128469384649773762510000007071467457720311487_);}
	.st1{opacity:0.14;}
	.st2{opacity:0.29;}
	.st3{opacity:0.43;}
	.st4{opacity:0.57;}
	.st5{opacity:0.71;}
	.st6{opacity:0.86;}
</style>
<g>
	<g>
		<defs>
			<rect id="SVGID_1_" x="30.8" y="26.8" width="79.3" height="68.7"/>
		</defs>
		<clipPath id="SVGID_00000107549867209997528830000004226613864858719876_">
			<use xlink:href="#SVGID_1_"  style="overflow:visible;"/>
		</clipPath>
		<g style="clip-path:url(#SVGID_00000107549867209997528830000004226613864858719876_);">
			<g class="st1">
				<path d="M80.4,78.3L50.6,95.5h19.8L80.4,78.3z"/>
				<path d="M100.2,78.3l9.9-17.2L80.4,78.3H100.2z"/>
			</g>
			<g class="st2">
				<path d="M80.4,43.9l29.7,17.2l-9.9-17.2C100.2,43.9,80.4,43.9,80.4,43.9z"/>
				<path d="M70.5,26.8H50.6l29.7,17.2L70.5,26.8z"/>
			</g>
			<g class="st3">
				<path d="M50.6,61.1l29.8,17.2l-9.9-17.2H50.6z"/>
				<path d="M80.4,78.3l-9.9,17.2h19.8L80.4,78.3L80.4,78.3L80.4,78.3z"/>
				<path d="M30.8,61.1l9.9,17.2l9.9-17.2H30.8z"/>
			</g>
			<g class="st4">
				<path d="M80.4,78.3l9.9,17.2l9.9-17.2H80.4z"/>
				<path d="M70.5,61.1l9.9,17.2V43.9L70.5,61.1z"/>
				<path d="M100.2,43.9l-9.9-17.2l-9.9,17.2H100.2z"/>
			</g>
			<g class="st5">
				<path d="M80.4,43.9L80.4,43.9L50.6,26.8v34.3L80.4,43.9z"/>
				<path d="M50.6,61.1v34.3l29.8-17.2l0,0L50.6,61.1z"/>
				<path d="M80.4,43.9v34.4l29.7-17.2C110.1,61.1,80.4,43.9,80.4,43.9z"/>
			</g>
			<g class="st6">
				<path d="M80.4,43.9L50.6,61.1h19.8L80.4,43.9z"/>
				<path d="M80.4,43.9l9.9-17.2H70.5L80.4,43.9L80.4,43.9z"/>
				<path d="M50.6,61.1l-9.9-17.2l-4.2,7.3l-5.7,9.9C30.8,61.1,50.6,61.1,50.6,61.1z"/>
			</g>
			<path d="M40.7,78.3l9.9,17.2V61.1L40.7,78.3z"/>
			<path d="M50.6,26.8l-9.9,17.2l9.9,17.2V26.8z"/>
		</g>
	</g>
</g>
</svg>
