<?xml version="1.0" encoding="utf-8"?>
<!-- Generator: Adobe Illustrator 28.2.0, SVG Export Plug-In . SVG Version: 6.00 Build 0)  -->
<svg version="1.1" id="Layer_1" xmlns="http://www.w3.org/2000/svg" xmlns:xlink="http://www.w3.org/1999/xlink" x="0px" y="0px"
	 viewBox="0 0 140.9 122.2" style="enable-background:new 0 0 140.9 122.2;" xml:space="preserve">
<style type="text/css">
	.st0{clip-path:url(#SVGID_00000036241921647167226150000002355728837170211255_);}
	.st1{opacity:0.14;}
	.st2{opacity:0.29;}
	.st3{opacity:0.43;}
	.st4{opacity:0.57;}
	.st5{opacity:0.71;}
	.st6{opacity:0.86;}
</style>
<g>
	<defs>
		<rect id="SVGID_1_" x="17.6" y="15.3" width="105.7" height="91.6"/>
	</defs>
	<clipPath id="SVGID_00000103243025704716292270000016116022363699709075_">
		<use xlink:href="#SVGID_1_"  style="overflow:visible;"/>
	</clipPath>
	<g style="clip-path:url(#SVGID_00000103243025704716292270000016116022363699709075_);">
		<g class="st1">
			<path d="M83.7,84L44,106.9h26.4L83.7,84z"/>
			<path d="M110.1,84l13.2-22.9L83.7,84H110.1z"/>
		</g>
		<g class="st2">
			<path d="M83.7,38.2l39.6,22.9l-13.2-22.9H83.7z"/>
			<path d="M70.5,15.3H44l39.6,22.9L70.5,15.3z"/>
		</g>
		<g class="st3">
			<path d="M44,61.1L83.7,84L70.5,61.1C70.5,61.1,44,61.1,44,61.1z"/>
			<path d="M83.7,84l-13.2,22.9h26.4L83.7,84L83.7,84L83.7,84z"/>
			<path d="M17.6,61.1L30.8,84L44,61.1C44,61.1,17.6,61.1,17.6,61.1z"/>
		</g>
		<g class="st4">
			<path d="M83.7,84l13.2,22.9L110.1,84H83.7z"/>
			<path d="M70.5,61.1L83.7,84V38.2L70.5,61.1z"/>
			<path d="M110.1,38.2L96.9,15.3L83.7,38.2H110.1z"/>
		</g>
		<g class="st5">
			<path d="M83.7,38.2L83.7,38.2L44,15.3v45.8L83.7,38.2z"/>
			<path d="M44,61.1v45.8L83.7,84l0,0C83.7,84,44,61.1,44,61.1z"/>
			<path d="M83.7,38.2V84l39.6-22.9C123.3,61.1,83.7,38.2,83.7,38.2z"/>
		</g>
		<g class="st6">
			<path d="M83.7,38.2L44,61.1h26.4L83.7,38.2z"/>
			<path d="M83.7,38.2l13.2-22.9H70.5L83.7,38.2L83.7,38.2z"/>
			<path d="M44,61.1L30.8,38.2l-5.6,9.7l-7.6,13.2H44z"/>
		</g>
		<path d="M30.8,84L44,106.9V61.1C44,61.1,30.8,84,30.8,84z"/>
		<path d="M44,15.3L30.8,38.2L44,61.1V15.3z"/>
	</g>
</g>
</svg>
