<?xml version="1.0" encoding="utf-8"?>
<!-- Generator: Adobe Illustrator 28.2.0, SVG Export Plug-In . SVG Version: 6.00 Build 0)  -->
<svg version="1.1" id="Layer_1" xmlns="http://www.w3.org/2000/svg" xmlns:xlink="http://www.w3.org/1999/xlink" x="0px" y="0px"
	 viewBox="0 0 140.9 122.2" style="enable-background:new 0 0 140.9 122.2;" xml:space="preserve">
<style type="text/css">
	.st0{fill:#FFFFFF;}
	.st1{clip-path:url(#SVGID_00000054980441459757941530000001496859803829358245_);}
	.st2{opacity:0.29;}
	.st3{opacity:0.14;}
	.st4{opacity:0.86;}
	.st5{opacity:0.43;}
	.st6{opacity:0.57;}
	.st7{opacity:0.71;}
</style>
<rect class="st0" width="140.9" height="122.2"/>
<g>
	<g>
		<g>
			<g>
				<g>
					<g>
						<defs>
							<rect id="SVGID_1_" x="30.8" y="26.8" width="79.3" height="68.7"/>
						</defs>
						<clipPath id="SVGID_00000088109682870697480240000015634554185379239306_">
							<use xlink:href="#SVGID_1_"  style="overflow:visible;"/>
						</clipPath>
						<g style="clip-path:url(#SVGID_00000088109682870697480240000015634554185379239306_);">
							<g>
								<g>
									<polygon points="50.6,61.1 50.6,26.8 40.7,43.9 									"/>
									<polygon points="40.7,78.3 50.6,95.4 50.6,61.1 									"/>
								</g>
								<g class="st2">
									<polygon points="80.4,43.9 110.1,61.1 100.2,43.9 									"/>
									<polygon points="70.5,26.7 50.6,26.8 80.4,43.9 									"/>
								</g>
								<g class="st3">
									<polygon points="80.4,78.3 50.6,95.4 70.4,95.4 									"/>
									<polygon points="100.2,78.3 110.1,61.1 80.4,78.3 									"/>
								</g>
								<g class="st4">
									<polygon points="40.7,43.9 30.8,61.1 50.6,61.1 									"/>
									<polygon points="80.4,43.9 90.3,26.8 70.5,26.7 									"/>
									<polygon points="80.4,43.9 50.6,61.1 70.4,61.1 									"/>
								</g>
								<g class="st5">
									<polygon points="50.6,61.1 30.8,61.1 40.7,78.3 									"/>
									<polygon points="70.4,95.4 90.3,95.4 80.4,78.3 									"/>
									<polygon points="50.6,61.1 80.4,78.3 70.4,61.1 									"/>
								</g>
								<g class="st6">
									<polygon points="100.2,43.9 90.3,26.8 80.4,43.9 									"/>
									<polygon points="80.4,78.3 90.3,95.4 100.2,78.3 									"/>
									<polygon points="80.4,43.9 80.4,78.3 70.4,61.1 									"/>
								</g>
								<g class="st7">
									<polygon points="50.6,26.7 50.6,61.1 80.4,43.9 									"/>
									<polygon points="50.6,95.4 80.4,78.3 50.6,61.1 									"/>
									<polygon points="80.4,43.9 80.4,78.3 110.1,61.1 									"/>
								</g>
							</g>
						</g>
					</g>
				</g>
			</g>
		</g>
	</g>
</g>
</svg>
