<?xml version="1.0" encoding="UTF-8"?><svg id="Layer_1" xmlns="http://www.w3.org/2000/svg" xmlns:xlink="http://www.w3.org/1999/xlink" viewBox="0 0 140.924 122.152"><defs><style>.cls-1{clip-path:url(#clippath);}.cls-2{fill:none;}.cls-2,.cls-3{stroke-width:0px;}.cls-4{opacity:.14;}.cls-5{opacity:.29;}.cls-6{opacity:.43;}.cls-7{opacity:.57;}.cls-8{opacity:.86;}.cls-9{opacity:.71;}</style><clipPath id="clippath"><rect class="cls-2" width="140.924" height="122.152"/></clipPath></defs><g class="cls-1"><g class="cls-4"><path class="cls-3" d="M88.0774,91.6143l-52.8464,30.5377h35.2309l17.6155-30.5377Z"/><path class="cls-3" d="M123.308,91.6142l17.616-30.538-52.8469,30.538h35.2309Z"/></g><g class="cls-5"><path class="cls-3" d="M88.0776,30.5381l52.8464,30.538-17.615-30.538h-35.2314Z"/><path class="cls-3" d="M70.4619,0h-35.2309l52.8465,30.5381L70.4619,0Z"/></g><g class="cls-6"><path class="cls-3" d="M35.231,61.0762l52.8465,30.538-17.6156-30.538h-35.2309Z"/><path class="cls-3" d="M88.0774,91.6144l-17.6155,30.5376h35.2311l-17.6156-30.5377h0Z"/><path class="cls-3" d="M0,61.0762l17.6154,30.538,17.6156-30.538H0Z"/></g><g class="cls-7"><path class="cls-3" d="M88.0776,91.6143l17.6154,30.5377,17.616-30.5377h-35.2314Z"/><path class="cls-3" d="M70.4619,61.0761l17.6155,30.5381V30.5381l-17.6155,30.538Z"/><path class="cls-3" d="M123.309,30.5381L105.693,0l-17.6154,30.5381h35.2314Z"/></g><g class="cls-9"><path class="cls-3" d="M88.0775,30.5381h0L35.231,0v61.0762l52.8465-30.5381Z"/><path class="cls-3" d="M35.231,61.0762v61.0758l52.8465-30.5377h0s-52.8465-30.5381-52.8465-30.5381Z"/><path class="cls-3" d="M88.0776,30.5381v61.0761l52.8464-30.5381-52.8464-30.538Z"/></g><g class="cls-8"><path class="cls-3" d="M88.0775,30.5381l-52.8465,30.538h35.2309l17.6156-30.538Z"/><path class="cls-3" d="M88.0774,30.5381L105.693,0h-35.2311l17.6155,30.5381h0Z"/><path class="cls-3" d="M35.231,61.0761l-17.6156-30.538-7.4451,12.9068L0,61.0761h35.231Z"/></g><path class="cls-3" d="M17.6152,91.6142l17.6156,30.5378v-61.0758l-17.6156,30.538Z"/><path class="cls-3" d="M35.2308,0l-17.6156,30.5381,17.6156,30.5381V0Z"/></g></svg>