<?xml version="1.0" encoding="UTF-8"?><svg id="Layer_1" xmlns="http://www.w3.org/2000/svg" viewBox="0 0 140.9 122.2"><defs><style>.cls-1,.cls-2{stroke-width:0px;}.cls-2{fill:#fff;}</style></defs><rect class="cls-2" width="140.9" height="122.2"/><path class="cls-1" d="M106.75,41.918c-1.2,0-2.1.7-2.9,1.6l-8.9-2.4c-.1-1.8-1.6-3.1-3.3-3.1-.5,0-1,.1-1.6.3l-1.6-1.6c0-.3-.4-.3-.7-.3h-11.3c-1.6-1.7-3.7-2.8-6.2-2.8-.3,0-.5,0-.7.1l-2.8-3.9c-.2-.4-.7-.5-1.1-.4l-6.4,1.8c-.3.1-.5.3-.7.7l-1.4,3.8-6,1c-.3.1-.4.1-.5.3l-3.1,3-1-.8c.1-.3.1-.7.1-1,0-1.8-1.6-3.4-3.4-3.4s-3.6,1.6-3.6,3.4,1.6,3.4,3.4,3.4c.7,0,1.4-.1,2-.5l2.2,1.7h0l.4,1h-10.2c-.5-1.3-1.8-2.2-3.3-2.2-1.8,0-3.4,1.6-3.4,3.4s1.6,3.4,3.4,3.4c1.4,0,2.8-.9,3.3-2.2h10.7l.3.7c.1.3.4.7.7.7l1,.3-3.7,2.8c-.5-.5-1.2-.7-1.8-.7-1.8,0-3.4,1.6-3.4,3.4s1.6,3.4,3.4,3.4,3.4-1.6,3.4-3.4c0-.3-.1-.7-.1-1l5-3.7,2.1.7,1.6,4.2c-.7.5-1.2,1.6-1.2,2.5,0,1.8,1.6,3.4,3.4,3.4s3.4-1.6,3.4-3.4-1.6-3.4-3.4-3.4h-.1l-1-2.4,13.4,4.6c.1.1.3.1.3.1h6.2l1.8,3.4c-.5.7-.9,1.4-.9,2.4,0,1.8,1.6,3.4,3.4,3.4,1,0,2-.5,2.5-1l15.2,6.4v.3h0l-15.2,5.4c-.6-.9-1.7-1.4-2.7-1.4-.4,0-.8.1-1.2.3l-6.7-8.1c.3-.5.5-1,.5-1.7,0-1.8-1.6-3.4-3.4-3.4s-3.4,1.6-3.4,3.4,1.6,3.4,3.4,3.4c.4,0,.8-.1,1.2-.3l6.6,7.9-15.9-4.1c-.1-1.7-1.6-3.1-3.3-3.1-1.8,0-3.4,1.6-3.4,3.4s1.6,3.4,3.4,3.4c1.2,0,2.2-.7,2.9-1.6l15.9,3.9-10.5,4.5c-.7-.7-1.6-1-2.6-1-1.8,0-3.4,1.6-3.4,3.4s1.6,3.4,3.4,3.4,3.4-1.6,3.4-3.4v-.1l10.7-4.7.3.3-2.4,6.3h-.1c-1.8,0-3.4,1.6-3.4,3.4s1.6,3.4,3.4,3.4,3.4-1.6,3.4-3.4c0-1-.5-2-1.3-2.6l2.4-6.3h.1c1.8,0,3.4-1.6,3.4-3.4h0l15.1-5.4c.5.8,1.6,1.3,2.6,1.3,1.8,0,3.4-1.6,3.4-3.4s-1.6-3.4-3.4-3.4c-1,0-2,.5-2.6,1l-15.1-6.4v-.1c0-1.8-1.6-3.4-3.4-3.4-.1,0-.3,0-.5.1l-2-3.9c-.1-.4-.5-.7-1-.7h-6.6l-18.7-6.3h0l-2.5-.9-1.6-3.9,2.8-2.6,6.1-1.3c.4-.1.7-.3.9-.7l1.5-3.7,5.1-1.4,2,2.5c-2.9,1.3-5.1,4.2-5.1,7.7,0,4.5,3.8,8.3,8.3,8.3s8.3-3.7,8.3-8.3c0-1-.3-2.2-.7-3.3h9.3l1.2,1.2c-.1.5-.3.9-.3,1.4,0,1.8,1.6,3.4,3.4,3.4,1.2,0,2.1-.7,2.9-1.6l8.9,2.4c.1,1.8,1.6,3.1,3.3,3.1,1.8,0,3.4-1.6,3.4-3.4,0-1.8-1.4-3.5-3.4-3.5h0ZM42.05,39.118c-.5-.4-.7-1-.3-1.6s1-.7,1.6-.3l.1.2c.3.3.3.6.3,1,0,.7-.5,1-1,1-.2-.1-.5-.1-.7-.3.1.2,0,0,0,0h0ZM34.15,46.018c-.7,0-1-.5-1-1s.5-1,1-1h.1c.7.1,1,.5,1,1s-.4,1-1.1,1h0ZM45.25,54.418c-.1.1-.5.3-.7.3-.3,0-.7-.1-.9-.5-.4-.5-.3-1.2.1-1.6.1,0,.1-.1.1-.1.3-.1.4-.1.7-.1.7,0,1,.5,1,1,0,.3-.1.5-.3.8v.2h0ZM58.65,55.018c.5,0,.8.3,1,.7,0,0,0,.1.1.1.3.7-.1,1.3-.7,1.4,0,.2-.1.2-.3.2-.5,0-.9-.3-1-.7l-.1-.1c0-.1-.1-.3-.1-.3.1-.9.5-1.3,1.1-1.3h0ZM70.35,64.818c-.4-.5-.3-1.2.1-1.6.5-.4,1.2-.3,1.6.1l.1.1c.1.3.3.4.3.7,0,.7-.5,1-1,1-.5.1-.9.1-1.1-.3h0ZM59.45,72.718c-.7-.1-1-.8-.8-1.4.1-.5.8-1,1.4-.8l.1.1c.4.3.7.7.7,1,0,.7-.5,1-1,1h-.4v.1ZM65.75,85.318c-.1.1-.3.1-.4.1-.5,0-.9-.3-1-.7-.3-.5,0-1.3.7-1.4l.1-.1c.1,0,.3-.1.3-.1.7,0,1,.5,1,1s-.3.8-.7,1c.1.2,0,.2,0,.2ZM78.45,89.918c-.3.5-.7.7-1,.7-.1,0-.3,0-.4-.1-.7-.3-.9-.9-.7-1.4l.1-.1c.3-.4.5-.7,1-.7.7,0,1,.5,1,1v.3s0,.3,0,.3h0ZM80.85,77.218c0-.7.5-1,1-1,.7,0,1,.5,1,1,0,.7-.5,1-1,1-.6,0-1-.4-1-1ZM103.45,68.418c.4.3.7.7.7,1s-.3.9-.7,1l-.1.1h-.1c-.7,0-1-.5-1-1,0-.7.5-1,1-1,0-.1.1-.1.2-.1h0ZM81.95,59.518c.7,0,1,.5,1,1,0,.7-.5,1-1,1-.1,0-.2,0-.3-.1-.1,0-.1-.1-.1-.1-.1-.1-.4-.3-.5-.5h-.1c-.1-.1-.1-.3-.1-.4,0-.3.5-.9,1.1-.9h0ZM76.25,41.918c0,3.3-2.6,6-6,6-3.3,0-6-2.6-6-6,0-2.8,1.7-5,4.2-5.6.5-.1,1-.3,1.7-.3.3,0,.7.1,1,.1.5.1.9.1,1.4.4,1,.5,2.1,1.3,2.6,2.2.8,1,1.1,2,1.1,3.2h0ZM91.25,42.418c-.1-.1-.3-.1-.5-.3l-.1-.1c-.1-.3-.3-.5-.3-.7,0-.7.5-1,1-1,.7,0,1,.5,1,1,0,.7-.5,1-1,1h-.1c.2.1,0,.1,0,.1ZM105.55,45.318c0-.7.5-1,1-1h.2l.1.1c.5.1,1,.8.8,1.3-.1.7-.8,1-1.3.8h-.1c-.3-.3-.7-.7-.7-1.2h0Z"/></svg>
