<svg width="109" height="123" viewBox="0 0 109 123" fill="none" xmlns="http://www.w3.org/2000/svg">
<g clip-path="url(#clip0_715_1745)">
<path d="M57.517 36.8063V24.0325C62.7851 22.6798 66.6846 17.9093 66.6846 12.2146C66.6846 5.46862 61.2208 0 54.481 0C47.7407 0 42.2773 5.46862 42.2773 12.2146C42.2773 17.8987 46.1621 22.6619 51.4154 24.0249V36.8025C52.4109 36.6789 53.4224 36.6078 54.4513 36.6078C55.4905 36.6077 56.5119 36.6802 57.517 36.8063Z" fill="black"/>
<path d="M12.2036 97.7209C18.9438 97.7209 24.4076 92.2522 24.4076 85.5063C24.4076 84.3701 24.2406 83.2749 23.9506 82.2313L35.0044 75.8481C33.776 74.2325 32.7407 72.4616 31.9407 70.5664L20.8993 76.9423C18.6856 74.6908 15.6092 73.2917 12.2036 73.2917C5.46377 73.2917 0 78.7604 0 85.5063C0 92.2522 5.46377 97.7209 12.2036 97.7209Z" fill="black"/>
<path d="M84.9999 82.2791C84.7183 83.3088 84.5552 84.3874 84.5552 85.5065C84.5552 92.2525 90.0189 97.7211 96.7588 97.7211C103.499 97.7211 108.963 92.2525 108.963 85.5065C108.963 78.7606 103.499 73.292 96.7588 73.292C93.3361 73.292 90.2467 74.7066 88.0307 76.9784L76.9604 70.5723C76.1595 72.4673 75.1238 74.2378 73.895 75.853L84.9999 82.2791Z" fill="black"/>
<path d="M12.2036 48.8584C15.6163 48.8584 18.6979 47.4531 20.9123 45.1935L51.4156 62.8448V98.1254C46.1624 99.4885 42.2776 104.252 42.2776 109.936C42.2776 116.682 47.741 122.15 54.4812 122.15C61.2211 122.15 66.6849 116.682 66.6849 109.936C66.6849 104.241 62.7855 99.4705 57.5172 98.1178V62.8466L88.0641 45.2061C90.2777 47.4586 93.3549 48.8584 96.7613 48.8584C103.501 48.8584 108.965 43.3898 108.965 36.6439C108.965 29.8979 103.501 24.4293 96.7613 24.4293C90.0215 24.4293 84.5578 29.8979 84.5578 36.6439C84.5578 37.7792 84.7243 38.8735 85.0139 39.9166L54.4678 57.5567L23.9554 39.8998C24.2422 38.8617 24.4076 37.7731 24.4076 36.6438C24.4076 29.8978 18.9439 24.4292 12.2036 24.4292C5.46377 24.4292 0 29.8978 0 36.6438C0 43.3897 5.46377 48.8584 12.2036 48.8584Z" fill="black"/>
</g>
<defs>
<clipPath id="clip0_715_1745">
<rect width="108.965" height="122.15" fill="white"/>
</clipPath>
</defs>
</svg>
