<?xml version="1.0" encoding="utf-8"?>
<!-- Generator: Adobe Illustrator 28.2.0, SVG Export Plug-In . SVG Version: 6.00 Build 0)  -->
<svg version="1.1" id="Layer_1" xmlns="http://www.w3.org/2000/svg" xmlns:xlink="http://www.w3.org/1999/xlink" x="0px" y="0px"
	 viewBox="0 0 61.6 68.9" style="enable-background:new 0 0 61.6 68.9;" xml:space="preserve">
<style type="text/css">
	.st0{fill:#FFFFFF;}
	.st1{clip-path:url(#SVGID_00000014596977022486569440000005018920520031775161_);}
</style>
<rect x="-39.6" y="-26.6" class="st0" width="140.9" height="122.2"/>
<g>
	<defs>
		<rect id="SVGID_1_" x="0.1" y="0.1" width="61.3" height="68.7"/>
	</defs>
	<clipPath id="SVGID_00000125580348053442396690000015657132256911588742_">
		<use xlink:href="#SVGID_1_"  style="overflow:visible;"/>
	</clipPath>
	<g style="clip-path:url(#SVGID_00000125580348053442396690000015657132256911588742_);">
		<path d="M32.5,20.8v-7.2c3-0.8,5.2-3.5,5.2-6.7c0-3.8-3.1-6.9-6.9-6.9s-6.9,3.1-6.9,6.9c0,3.2,2.2,5.8,5.2,6.7v7.2
			c0.5-0.1,1.1-0.1,1.7-0.1C31.3,20.6,31.9,20.7,32.5,20.8z"/>
		<path d="M7,55c3.8,0,6.9-3.1,6.9-6.9c0-0.7-0.1-1.3-0.2-1.9l6.2-3.6c-0.7-0.9-1.3-1.9-1.7-3l-6.3,3.7c-1.3-1.3-3-2-4.9-2
			c-3.8,0-6.9,3.1-6.9,6.9S3.2,55,7,55z"/>
		<path d="M48,46.3c-0.1,0.6-0.2,1.2-0.2,1.8c0,3.8,3.1,6.9,6.9,6.9s6.9-3.1,6.9-6.9s-3.1-6.9-6.9-6.9c-1.9,0-3.7,0.8-4.9,2.1
			l-6.2-3.6c-0.4,1.1-1.1,2-1.7,3C41.7,42.7,48,46.3,48,46.3z"/>
		<path d="M7,27.5c1.9,0,3.7-0.8,4.9-2l17.2,9.9v19.9c-2.9,0.8-5.2,3.4-5.2,6.7c0,3.8,3.1,6.9,6.9,6.9s6.9-3.1,6.9-6.9
			c0-3.2-2.2-5.8-5.2-6.7V35.4l17.2-9.9c1.3,1.3,3,2,4.9,2c3.8,0,6.9-3.1,6.9-6.9s-3.1-6.9-6.9-6.9s-6.9,3.1-6.9,6.9
			c0,0.7,0.1,1.3,0.2,1.9l-17.1,9.9l-17.2-9.9c0.2-0.6,0.2-1.2,0.2-1.8c0-3.8-3.1-6.9-6.9-6.9S0,16.9,0,20.7S3.2,27.5,7,27.5z"/>
	</g>
</g>
</svg>
