<?xml version="1.0" encoding="utf-8"?>
<!-- Generator: Adobe Illustrator 28.2.0, SVG Export Plug-In . SVG Version: 6.00 Build 0)  -->
<svg version="1.1" id="Layer_1" xmlns="http://www.w3.org/2000/svg" xmlns:xlink="http://www.w3.org/1999/xlink" x="0px" y="0px"
	 viewBox="0 0 109 122.2" style="enable-background:new 0 0 109 122.2;" xml:space="preserve">
<style type="text/css">
	.st0{clip-path:url(#SVGID_00000117667683479809277370000015620469628926662306_);}
</style>
<g>
	<defs>
		<rect id="SVGID_1_" x="13.6" y="15.3" width="81.7" height="91.6"/>
	</defs>
	<clipPath id="SVGID_00000069370067723625124400000018368276299077823121_">
		<use xlink:href="#SVGID_1_"  style="overflow:visible;"/>
	</clipPath>
	<g style="clip-path:url(#SVGID_00000069370067723625124400000018368276299077823121_);">
		<path d="M56.8,42.9v-9.6c4-1,6.9-4.6,6.9-8.9c0-5.1-4.1-9.2-9.2-9.2s-9.2,4.1-9.2,9.2c0,4.3,2.9,7.8,6.9,8.9v9.6
			c0.7-0.1,1.5-0.1,2.3-0.1C55.2,42.7,56,42.8,56.8,42.9z"/>
		<path d="M22.8,88.6c5.1,0,9.2-4.1,9.2-9.2c0-0.9-0.1-1.7-0.3-2.5l8.3-4.8c-0.9-1.2-1.7-2.5-2.3-4L29.3,73c-1.7-1.7-4-2.7-6.5-2.7
			c-5.1,0-9.2,4.1-9.2,9.2S17.7,88.6,22.8,88.6z"/>
		<path d="M77.4,77c-0.2,0.8-0.3,1.6-0.3,2.4c0,5.1,4.1,9.2,9.2,9.2s9.2-4.1,9.2-9.2s-4.1-9.2-9.2-9.2c-2.6,0-4.9,1.1-6.5,2.8
			l-8.3-4.8c-0.6,1.4-1.4,2.7-2.3,4C69,72.2,77.4,77,77.4,77z"/>
		<path d="M22.8,51.9c2.6,0,4.9-1.1,6.5-2.7l22.9,13.2v26.5c-3.9,1-6.9,4.6-6.9,8.9c0,5.1,4.1,9.2,9.2,9.2s9.2-4.1,9.2-9.2
			c0-4.3-2.9-7.8-6.9-8.9V62.4l22.9-13.2c1.7,1.7,4,2.7,6.5,2.7c5.1,0,9.2-4.1,9.2-9.2s-4.1-9.2-9.2-9.2c-5.1,0-9.2,4.1-9.2,9.2
			c0,0.9,0.1,1.7,0.3,2.5L54.5,58.4L31.6,45.2c0.2-0.8,0.3-1.6,0.3-2.4c0-5.1-4.1-9.2-9.2-9.2s-9.2,4.1-9.2,9.2S17.7,51.9,22.8,51.9
			z"/>
	</g>
</g>
</svg>
