<?xml version="1.0" encoding="utf-8"?>
<!-- Generator: Adobe Illustrator 28.2.0, SVG Export Plug-In . SVG Version: 6.00 Build 0)  -->
<svg version="1.1" id="Layer_1" xmlns="http://www.w3.org/2000/svg" xmlns:xlink="http://www.w3.org/1999/xlink" x="0px" y="0px"
	 viewBox="0 0 109 122.2" style="enable-background:new 0 0 109 122.2;" xml:space="preserve">
<style type="text/css">
	.st0{clip-path:url(#SVGID_00000095310120704991282530000001853711036003234447_);}
</style>
<g>
	<g>
		<defs>
			<rect id="SVGID_1_" x="23.8" y="26.8" width="61.3" height="68.7"/>
		</defs>
		<clipPath id="SVGID_00000143591506305632959530000010266649004123782813_">
			<use xlink:href="#SVGID_1_"  style="overflow:visible;"/>
		</clipPath>
		<g style="clip-path:url(#SVGID_00000143591506305632959530000010266649004123782813_);">
			<path d="M56.2,47.5v-7.2c3-0.8,5.2-3.5,5.2-6.7c0-3.8-3.1-6.9-6.9-6.9s-6.9,3.1-6.9,6.9c0,3.2,2.2,5.8,5.2,6.7v7.2
				c0.5-0.1,1.1-0.1,1.7-0.1C55,47.3,55.6,47.4,56.2,47.5z"/>
			<path d="M30.7,81.7c3.8,0,6.9-3.1,6.9-6.9c0-0.7-0.1-1.3-0.2-1.9l6.2-3.6c-0.7-0.9-1.3-1.9-1.7-3L35.6,70c-1.3-1.3-3-2-4.9-2
				c-3.8,0-6.9,3.1-6.9,6.9S26.9,81.7,30.7,81.7z"/>
			<path d="M71.7,73c-0.1,0.6-0.2,1.2-0.2,1.8c0,3.8,3.1,6.9,6.9,6.9c3.8,0,6.9-3.1,6.9-6.9c0-3.8-3.1-6.9-6.9-6.9
				c-1.9,0-3.7,0.8-4.9,2.1l-6.2-3.6c-0.4,1.1-1.1,2-1.7,3C65.4,69.4,71.7,73,71.7,73z"/>
			<path d="M30.7,54.2c1.9,0,3.7-0.8,4.9-2l17.2,9.9V82c-2.9,0.8-5.2,3.4-5.2,6.7c0,3.8,3.1,6.9,6.9,6.9s6.9-3.1,6.9-6.9
				c0-3.2-2.2-5.8-5.2-6.7V62.1l17.2-9.9c1.3,1.3,3,2,4.9,2c3.8,0,6.9-3.1,6.9-6.9s-3.1-6.9-6.9-6.9s-6.9,3.1-6.9,6.9
				c0,0.7,0.1,1.3,0.2,1.9l-17.1,9.9l-17.2-9.9c0.2-0.6,0.2-1.2,0.2-1.8c0-3.8-3.1-6.9-6.9-6.9s-6.9,3.1-6.9,6.9
				S26.9,54.2,30.7,54.2z"/>
		</g>
	</g>
</g>
</svg>
