<?xml version="1.0" encoding="UTF-8"?><svg id="Layer_1" xmlns="http://www.w3.org/2000/svg" xmlns:xlink="http://www.w3.org/1999/xlink" viewBox="0 0 140.9 122.2"><defs><style>.cls-1{clip-path:url(#clippath);}.cls-2{fill:none;}.cls-2,.cls-3,.cls-4{stroke-width:0px;}.cls-4{fill:#fff;}</style><clipPath id="clippath"><rect class="cls-2" x="39.8" y="26.75" width="61.3" height="68.7"/></clipPath></defs><rect class="cls-4" width="140.9" height="122.2"/><g class="cls-1"><path class="cls-3" d="M72.2,47.45v-7.2c3-.8,5.2-3.5,5.2-6.7,0-3.8-3.1-6.9-6.9-6.9s-6.9,3.1-6.9,6.9c0,3.2,2.2,5.8,5.2,6.7v7.2c.5-.1,1.1-.1,1.7-.1.5-.1,1.1,0,1.7.1Z"/><path class="cls-3" d="M46.7,81.65c3.8,0,6.9-3.1,6.9-6.9,0-.7-.1-1.3-.2-1.9l6.2-3.6c-.7-.9-1.3-1.9-1.7-3l-6.3,3.7c-1.3-1.3-3-2-4.9-2-3.8,0-6.9,3.1-6.9,6.9s3.1,6.8,6.9,6.8Z"/><path class="cls-3" d="M87.7,72.95c-.1.6-.2,1.2-.2,1.8,0,3.8,3.1,6.9,6.9,6.9s6.9-3.1,6.9-6.9-3.1-6.9-6.9-6.9c-1.9,0-3.7.8-4.9,2.1l-6.2-3.6c-.4,1.1-1.1,2-1.7,3-.2,0,6.1,3.6,6.1,3.6Z"/><path class="cls-3" d="M46.7,54.15c1.9,0,3.7-.8,4.9-2l17.2,9.9v19.9c-2.9.8-5.2,3.4-5.2,6.7,0,3.8,3.1,6.9,6.9,6.9s6.9-3.1,6.9-6.9c0-3.2-2.2-5.8-5.2-6.7v-19.9l17.2-9.9c1.3,1.3,3,2,4.9,2,3.8,0,6.9-3.1,6.9-6.9s-3.1-6.9-6.9-6.9-6.9,3.1-6.9,6.9c0,.7.1,1.3.2,1.9l-17.1,9.9-17.2-9.9c.2-.6.2-1.2.2-1.8,0-3.8-3.1-6.9-6.9-6.9s-6.9,3.1-6.9,6.9,3.2,6.8,7,6.8Z"/></g></svg>