<?xml version="1.0" encoding="UTF-8"?><svg id="Layer_1" xmlns="http://www.w3.org/2000/svg" xmlns:xlink="http://www.w3.org/1999/xlink" viewBox="0 0 108.965 122.15"><defs><style>.cls-1{clip-path:url(#clippath);}.cls-2{fill:none;}.cls-2,.cls-3{stroke-width:0px;}</style><clipPath id="clippath"><rect class="cls-2" width="108.965" height="122.15"/></clipPath></defs><g class="cls-1"><path class="cls-3" d="M57.517,36.8063v-12.7738c5.2681-1.3527,9.1676-6.1232,9.1676-11.8179,0-6.746-5.4638-12.2146-12.2036-12.2146s-12.2037,5.4686-12.2037,12.2146c0,5.6841,3.8848,10.4473,9.1381,11.8103v12.7776c.9955-.1236,2.007-.1947,3.0359-.1947,1.0392,0,2.0606.0724,3.0657.1985Z"/><path class="cls-3" d="M12.2036,97.7209c6.7402,0,12.204-5.4687,12.204-12.2146,0-1.1362-.167-2.2314-.457-3.275l11.0538-6.3832c-1.2284-1.6156-2.2637-3.3865-3.0637-5.2817l-11.0414,6.3759c-2.2137-2.2515-5.2901-3.6506-8.6957-3.6506-6.7398,0-12.2036,5.4687-12.2036,12.2146s5.4638,12.2146,12.2036,12.2146Z"/><path class="cls-3" d="M84.9999,82.2791c-.2816,1.0297-.4447,2.1083-.4447,3.2274,0,6.746,5.4637,12.2146,12.2036,12.2146s12.2042-5.4686,12.2042-12.2146-5.464-12.2145-12.2042-12.2145c-3.4227,0-6.5121,1.4146-8.7281,3.6864l-11.0703-6.4061c-.8009,1.895-1.8366,3.6655-3.0654,5.2807l11.1049,6.4261Z"/><path class="cls-3" d="M12.2036,48.8584c3.4127,0,6.4943-1.4053,8.7087-3.6649l30.5033,17.6513v35.2806c-5.2532,1.3631-9.138,6.1266-9.138,11.8106,0,6.746,5.4634,12.214,12.2036,12.214s12.2037-5.468,12.2037-12.214c0-5.695-3.8994-10.4655-9.1677-11.8182v-35.2712l30.5469-17.6405c2.2136,2.2525,5.2908,3.6523,8.6972,3.6523,6.7397,0,12.2037-5.4686,12.2037-12.2145s-5.464-12.2146-12.2037-12.2146-12.2035,5.4686-12.2035,12.2146c0,1.1353.1665,2.2296.4561,3.2727l-30.5461,17.6401-30.5124-17.6569c.2868-1.0381.4522-2.1267.4522-3.256,0-6.746-5.4637-12.2146-12.204-12.2146S0,29.8978,0,36.6438s5.4638,12.2146,12.2036,12.2146Z"/></g></svg>