<?xml version="1.0" encoding="utf-8"?>
<!-- Generator: Adobe Illustrator 28.2.0, SVG Export Plug-In . SVG Version: 6.00 Build 0)  -->
<svg version="1.1" id="Layer_1" xmlns="http://www.w3.org/2000/svg" xmlns:xlink="http://www.w3.org/1999/xlink" x="0px" y="0px"
	 viewBox="0 0 140.9 122.2" style="enable-background:new 0 0 140.9 122.2;" xml:space="preserve">
<style type="text/css">
	.st0{fill:#FFFFFF;}
</style>
<rect class="st0" width="140.9" height="122.2"/>
<g>
	<path d="M72.2,47.5v-7.2c3-0.8,5.2-3.5,5.2-6.7c0-3.8-3.1-6.9-6.9-6.9s-6.9,3.1-6.9,6.9c0,3.2,2.2,5.8,5.2,6.7v7.2
		c0.5-0.1,1.1-0.1,1.7-0.1C71,47.3,71.6,47.4,72.2,47.5L72.2,47.5z"/>
	<path d="M46.7,81.7c3.8,0,6.9-3.1,6.9-6.9c0-0.7-0.1-1.3-0.2-1.9l6.2-3.6c-0.7-0.9-1.3-1.9-1.7-3l-6.3,3.7c-1.3-1.3-3-2-4.9-2
		c-3.8,0-6.9,3.1-6.9,6.9S42.9,81.7,46.7,81.7z"/>
	<path d="M87.7,72.9c-0.1,0.6-0.2,1.2-0.2,1.8c0,3.8,3.1,6.9,6.9,6.9s6.9-3.1,6.9-6.9s-3.1-6.9-6.9-6.9c-1.9,0-3.7,0.8-4.9,2.1
		l-6.2-3.6c-0.4,1.1-1.1,2-1.7,3C81.4,69.3,87.7,72.9,87.7,72.9z"/>
	<path d="M46.7,54.2c1.9,0,3.7-0.8,4.9-2l17.2,9.9V82c-2.9,0.8-5.2,3.4-5.2,6.7c0,3.8,3.1,6.9,6.9,6.9s6.9-3.1,6.9-6.9
		c0-3.2-2.2-5.8-5.2-6.7V62.1l17.2-9.9c1.3,1.3,3,2,4.9,2c3.8,0,6.9-3.1,6.9-6.9s-3.1-6.9-6.9-6.9s-6.9,3.1-6.9,6.9
		c0,0.7,0.1,1.3,0.2,1.9l-17.1,9.9l-17.2-9.9c0.2-0.6,0.2-1.2,0.2-1.8c0-3.8-3.1-6.9-6.9-6.9s-6.9,3.1-6.9,6.9S42.9,54.2,46.7,54.2z
		"/>
</g>
</svg>
