<svg width="217" height="102" viewBox="0 0 217 102" fill="none" xmlns="http://www.w3.org/2000/svg">
<g clip-path="url(#clip0_715_1750)">
<path d="M0.17041 60.3275V0.000488281H43.7534V7.11757H8.1471V25.5948H41.4927V32.6736H8.1471V53.2077H45.1509V60.3277L0.17041 60.3275Z" fill="black"/>
<path d="M55.8403 60.3275V0.000488281H78.4553C83.0588 0.000488281 86.7521 0.608807 89.5353 1.83121C92.3185 3.05072 94.4969 4.93125 96.0735 7.46719C97.6501 10.006 98.4369 12.6595 98.4369 15.4304C98.4369 18.0104 97.7382 20.4376 96.3407 22.715C94.9432 24.9923 92.8323 26.8288 90.008 28.2305C93.6543 29.3001 96.4551 31.125 98.4163 33.702C100.375 36.282 101.355 39.3263 101.355 42.8377C101.355 45.6645 100.759 48.2915 99.5672 50.7187C98.3752 53.1459 96.9014 55.0177 95.1486 56.3371C93.393 57.6535 91.194 58.6467 88.5488 59.3197C85.9037 59.9926 82.6624 60.3275 78.8252 60.3275H55.8403ZM63.8171 25.3478H76.8524C80.3872 25.3478 82.9238 25.1158 84.4593 24.6485C86.485 24.0461 88.0147 23.0441 89.0422 21.6454C90.0698 20.2467 90.5836 18.4895 90.5836 16.3766C90.5836 14.3755 90.1051 12.6124 89.145 11.0903C88.185 9.56816 86.814 8.52495 85.0348 7.96076C83.2527 7.39947 80.1965 7.11746 75.8661 7.11746H63.8171V25.3478ZM63.8171 53.2076H78.8253C81.4001 53.2076 83.2115 53.1136 84.2508 52.9197C86.0887 52.5906 87.6242 52.044 88.8572 51.2741C90.0903 50.5071 91.1032 49.3876 91.8988 47.9213C92.6944 46.452 93.0907 44.7595 93.0907 42.8377C93.0907 40.5897 92.5153 38.6327 91.3644 36.9725C90.2136 35.3152 88.6165 34.1486 86.576 33.4757C84.5326 32.8029 81.5938 32.4679 77.7567 32.4679H63.8171V53.2076Z" fill="black"/>
<path d="M113.691 60.3275V0.000488281H121.665V60.3275H113.691Z" fill="black"/>
<path d="M0 93.7497L2.68383 93.5131C2.8121 94.5906 3.10894 95.4743 3.57172 96.1666C4.03704 96.8564 4.7589 97.4152 5.7374 97.8407C6.71581 98.2662 7.81752 98.4801 9.03993 98.4801C10.1266 98.4801 11.0848 98.3165 11.9174 97.9942C12.7475 97.672 13.3662 97.229 13.7737 96.665C14.1787 96.1011 14.3824 95.4868 14.3824 94.8222C14.3824 94.1449 14.1862 93.5558 13.7963 93.0498C13.4039 92.5463 12.7575 92.1234 11.857 91.7811C11.281 91.5545 10.0033 91.2046 8.02629 90.7313C6.05176 90.2555 4.66585 89.8073 3.87362 89.3869C2.84742 88.8481 2.08022 88.1785 1.57715 87.3805C1.07154 86.5824 0.820054 85.6888 0.820054 84.6994C0.820054 83.6118 1.12945 82.5972 1.74571 81.6507C2.36197 80.7065 3.26242 79.9891 4.44706 79.5007C5.62927 79.0097 6.94724 78.7656 8.39349 78.7656C9.98816 78.7656 11.3967 79.0224 12.6141 79.5359C13.8314 80.0495 14.7696 80.8073 15.4237 81.8067C16.0801 82.8036 16.4322 83.9365 16.48 85.2003L13.7509 85.4043C13.6051 84.0448 13.107 83.0152 12.2619 82.3203C11.4143 81.6255 10.1641 81.278 8.51165 81.278C6.78871 81.278 5.5336 81.5928 4.74634 82.2246C3.95908 82.8565 3.56667 83.6168 3.56667 84.508C3.56667 85.2834 3.84336 85.9179 4.40172 86.4189C4.95004 86.9173 6.38121 87.4309 8.6953 87.9545C11.0094 88.4782 12.5965 88.9364 13.4567 89.3266C14.7093 89.9056 15.635 90.6382 16.2311 91.5244C16.8297 92.4105 17.1265 93.4301 17.1265 94.5856C17.1265 95.7311 16.7995 96.8111 16.143 97.8256C15.4891 98.8402 14.5458 99.6282 13.3183 100.19C12.0909 100.754 10.7075 101.035 9.17317 101.035C7.22385 101.035 5.59395 100.751 4.2785 100.182C2.96052 99.6156 1.92927 98.7596 1.17967 97.6192C0.432611 96.4787 0.0377597 95.1872 0 93.7497Z" fill="black"/>
<path d="M21.0752 100.667V79.1328H36.6321V81.6729H23.9224V88.2687H35.8247V90.7963H23.9224V98.1273H37.1326V100.667L21.0752 100.667Z" fill="black"/>
<path d="M38.7026 100.667L46.9653 79.1328H50.034L58.8399 100.667H55.5952L53.085 94.1446H44.0878L41.7259 100.667H38.7026ZM44.9103 91.8235H52.2046L49.9585 85.8595C49.2743 84.0468 48.7662 82.559 48.4317 81.3935C48.1601 82.7755 47.7727 84.145 47.2722 85.507L44.9103 91.8235Z" fill="black"/>
<path d="M61.1587 100.667V79.1328H70.6992C72.6158 79.1328 74.0747 79.3241 75.0707 79.7118C76.0693 80.0995 76.8666 80.7817 77.4652 81.7611C78.0613 82.7404 78.3606 83.8229 78.3606 85.0087C78.3606 86.5368 77.8651 87.8233 76.8766 88.8706C75.8881 89.9204 74.3613 90.585 72.2988 90.8694C73.0508 91.232 73.6244 91.5895 74.0142 91.9419C74.8468 92.7047 75.6341 93.6614 76.3786 94.8068L80.1213 100.668H76.5395L73.6923 96.1864C72.8598 94.895 72.1756 93.9056 71.6373 93.2208C71.099 92.5335 70.6161 92.0552 70.191 91.7808C69.7659 91.5064 69.3333 91.3151 68.8932 91.2068C68.5687 91.1388 68.0405 91.1035 67.3086 91.1035H64.006V100.667H61.1587ZM64.006 88.6364H70.1256C71.426 88.6364 72.4447 88.5029 73.1792 88.2336C73.9112 87.9642 74.4695 87.5311 74.8518 86.9396C75.2341 86.3479 75.4253 85.7034 75.4253 85.0086C75.4253 83.989 75.0555 83.1532 74.3161 82.4962C73.5766 81.8391 72.4095 81.5118 70.8148 81.5118H64.0059L64.006 88.6364Z" fill="black"/>
<path d="M98.1737 93.1178L101.021 93.8378C100.425 96.1766 99.3508 97.9615 97.8014 99.1925C96.2494 100.421 94.353 101.035 92.1119 101.035C89.7928 101.035 87.9089 100.562 86.455 99.618C85.0012 98.6715 83.8971 97.3044 83.1374 95.5119C82.3803 93.7195 82.0005 91.7961 82.0005 89.7393C82.0005 87.4962 82.4281 85.5401 83.2858 83.8685C84.141 82.1994 85.3583 80.9306 86.938 80.0646C88.5201 79.1986 90.2581 78.7656 92.1571 78.7656C94.3102 78.7656 96.1186 79.3144 97.5876 80.4095C99.054 81.5072 100.078 83.0504 100.654 85.0367L97.8517 85.6988C97.3537 84.1329 96.6293 82.99 95.6785 82.275C94.7303 81.56 93.5355 81.2025 92.0993 81.2025C90.4443 81.2025 89.0634 81.6002 87.9516 82.3932C86.8424 83.1863 86.0601 84.2512 85.6099 85.5879C85.1597 86.9247 84.9358 88.3044 84.9358 89.7242C84.9358 91.5545 85.2024 93.1531 85.7356 94.5201C86.2689 95.887 87.0989 96.9067 88.2233 97.5839C89.3476 98.2585 90.5675 98.596 91.8779 98.596C93.4726 98.596 94.8232 98.1352 95.93 97.2163C97.0343 96.2949 97.7838 94.9279 98.1737 93.1178Z" fill="black"/>
<path d="M104.618 100.667V79.1328H107.465V87.9743H118.648V79.1328H121.495V100.667H118.648V90.5169H107.465V100.667H104.618Z" fill="black"/>
<path d="M216.141 31.7654L206.674 16.3128C203.878 11.8085 201.14 7.31177 198.477 2.68843C197.822 1.5521 196.61 0.853736 195.299 0.853646C189.969 0.853465 184.732 0.667395 179.426 0.502478L161.308 0.00068438C160.563 -0.0180314 159.825 0.347694 159.404 1.02734L159.334 1.14135C153.137 11.1539 146.934 21.162 140.831 31.2289C140.275 32.1519 140.204 33.3413 140.752 34.3586L140.831 34.5045C143.626 39.6862 146.498 44.8232 149.379 49.9552L155.842 61.2583C156.544 62.485 156.479 64.0057 155.676 65.1683L138 90.765C137.81 91.0445 137.617 91.3721 137.468 91.6872C135.867 95.0696 137.407 99.1317 140.91 100.574C144.195 101.926 147.962 100.186 149.482 96.9728L162.634 69.1871C163.238 67.9112 164.519 67.0964 165.93 67.0905C170.27 67.0726 174.61 67.0468 178.95 66.9763C184.831 66.9305 190.712 66.7446 196.592 66.6185L196.75 66.6157C197.796 66.5906 198.799 66.0214 199.333 65.0349L216.141 33.9682L216.199 33.8612C216.542 33.224 216.546 32.4267 216.141 31.7654ZM210.589 34.6008L195.954 58.4451C195.27 59.5587 194.047 60.2253 192.741 60.1937C188.144 60.0826 183.547 59.9632 178.95 59.9274C174.47 59.8544 169.99 59.8292 165.51 59.8112C164.211 59.8061 163.012 59.1136 162.359 57.9903L155.594 46.3634C153.259 42.4229 150.913 38.489 148.533 34.5742C147.856 33.4598 147.822 32.073 148.446 30.9282C152.896 22.7704 157.295 14.5829 161.687 6.39225C162.307 5.2354 163.498 4.49871 164.809 4.46038L178.474 4.06101C183.518 3.89717 188.63 3.71264 193.651 3.70984C194.961 3.70911 196.17 4.41039 196.826 5.54572C199.336 9.89556 201.774 14.3694 204.154 18.8356L210.69 30.9339C211.313 32.0866 211.274 33.4843 210.589 34.6008Z" fill="black"/>
<path d="M167.835 42.738C169.738 42.738 171.281 41.194 171.281 39.2894C171.281 37.3848 169.738 35.8408 167.835 35.8408C165.932 35.8408 164.39 37.3848 164.39 39.2894C164.39 41.194 165.932 42.738 167.835 42.738Z" fill="white" stroke="black" stroke-width="1.4208" stroke-miterlimit="10"/>
<path d="M178.95 23.4694C180.853 23.4694 182.395 21.9254 182.395 20.0208C182.395 18.1162 180.853 16.5723 178.95 16.5723C177.047 16.5723 175.504 18.1162 175.504 20.0208C175.504 21.9254 177.047 23.4694 178.95 23.4694Z" fill="black"/>
<path d="M190.065 42.738C191.968 42.738 193.51 41.194 193.51 39.2894C193.51 37.3848 191.968 35.8408 190.065 35.8408C188.162 35.8408 186.619 37.3848 186.619 39.2894C186.619 41.194 188.162 42.738 190.065 42.738Z" fill="black"/>
</g>
<defs>
<clipPath id="clip0_715_1750">
<rect width="216.451" height="101.035" fill="white"/>
</clipPath>
</defs>
</svg>
