<?xml version="1.0" encoding="UTF-8"?><svg id="Layer_1" xmlns="http://www.w3.org/2000/svg" viewBox="0 0 140.9 122.2"><defs><style>.cls-1{stroke:#000;stroke-miterlimit:10;stroke-width:.9636px;}.cls-1,.cls-2{fill:#fff;}.cls-3,.cls-2{stroke-width:0px;}</style></defs><rect class="cls-2" width="140.9" height="122.2"/><path class="cls-3" d="M97.2695,48.2717l-6.4-10.5c-1.9-3-3.7-6.1-5.7-9.2-.5-.7-1.2-1.2-2.2-1.2-3.6,0-7.2-.1-10.7-.2l-12.1-.4c-.5,0-1,.1-1.2.7l-.1.1c-4.3,6.8-8.5,13.5-12.6,20.4-.4.6-.4,1.4-.1,2l.1.1c1.9,3.5,3.9,7,5.8,10.5l4.5,7.7c.5.8.5,1.8-.1,2.7l-12.1,17.5c-.1.1-.2.4-.4.6-1.2,2.4-.1,5.1,2.3,6,2.3,1,4.8-.2,5.8-2.4l8.9-18.8c.5-1,1.3-1.4,2.3-1.4,2.9,0,5.9,0,8.8-.1,4,0,8.1-.1,11.9-.2h.1c.7,0,1.3-.5,1.8-1.1l11.3-21.3.1-.1c.2-.5.2-1.1,0-1.4h0ZM93.3695,50.1717l-9.9,16c-.5.7-1.2,1.2-2.2,1.2-3.1-.1-6.3-.2-9.4-.2-3-.1-6.1-.1-9-.1-1,0-1.7-.5-2.2-1.2l-4.6-7.7c-1.6-2.7-3.1-5.3-4.8-8-.5-.7-.5-1.7-.1-2.4,3-5.5,5.9-11,8.9-16.6.4-.8,1.2-1.2,2-1.2l9.4-.3c3.4-.1,7-.1,10.2-.2,1,0,1.7.5,2.2,1.2,1.7,2.9,3.4,6,4.9,9l4.5,8.2c.7.6.6,1.6.1,2.3h0Z"/><path class="cls-1" d="M64.4695,55.6717c1.3,0,2.3-1,2.3-2.3,0-1.2-1-2.3-2.3-2.3-1.2,0-2.3,1-2.3,2.3s1,2.3,2.3,2.3Z"/><path class="cls-3" d="M72.0695,42.6717c1.2,0,2.3-1,2.3-2.4,0-1.2-1-2.3-2.3-2.3s-2.3,1-2.3,2.3c-.1,1.3.8,2.4,2.3,2.4Z"/><path class="cls-3" d="M79.5695,55.6717c1.2,0,2.3-1,2.3-2.3,0-1.2-1-2.3-2.3-2.3s-2.4,1-2.4,2.3c0,1.3,1,2.3,2.4,2.3Z"/></svg>
