<?xml version="1.0" encoding="utf-8"?>
<!-- Generator: Adobe Illustrator 28.2.0, SVG Export Plug-In . SVG Version: 6.00 Build 0)  -->
<svg version="1.1" id="Layer_1" xmlns="http://www.w3.org/2000/svg" xmlns:xlink="http://www.w3.org/1999/xlink" x="0px" y="0px"
	 viewBox="0 0 69.1 66" style="enable-background:new 0 0 69.1 66;" xml:space="preserve">
<style type="text/css">
	.st0{fill:#FFFFFF;}
</style>
<rect x="-35.9" y="-28.1" class="st0" width="140.9" height="122.2"/>
<path d="M67.1,36.7v-7.4c1.1-0.5,2-1.5,2-2.8c0-1.7-1.4-3-3-3c-0.2,0-0.3,0-0.5,0.1l-7.5-13.2c0.4-0.5,0.8-1.2,0.8-1.9
	c0-1.7-1.3-3-3-3c-0.8,0-1.4,0.3-1.9,0.8l-6.7-3.9V2.3C47.3,1,46.3,0,45,0c-0.9,0-1.7,0.5-2.1,1.3H26.3C25.9,0.5,25.1,0,24.2,0
	c-1.3,0-2.3,1.1-2.3,2.3v0.1l-6.4,3.8c-0.5-0.4-1.1-0.7-1.9-0.7c-1.7,0-3,1.4-3,3c0,0.7,0.2,1.3,0.6,1.7L3.5,23.5
	c-0.2,0-0.3-0.1-0.5-0.1c-1.6,0-3,1.3-3,3c0,1.3,0.8,2.3,2,2.8v7.4c-0.8,0.4-1.3,1.2-1.3,2.1C0.7,40,1.7,41,3,41h0.1l8.5,14.5
	c-0.3,0.4-0.5,0.9-0.5,1.4c0,1.3,1,2.3,2.3,2.3c0.5,0,1-0.2,1.4-0.5l6.5,3.8c0,0.2-0.1,0.3-0.1,0.5c0,1.6,1.3,3,3,3
	c1.3,0,2.3-0.8,2.8-2h15.2c0.5,1.1,1.5,2,2.8,2c1.6,0,3-1.4,3-3c0-0.2,0-0.3-0.1-0.5l6.4-3.7c0.4,0.2,0.8,0.4,1.3,0.4
	c1.3,0,2.3-1.1,2.3-2.3c0-0.4-0.1-0.8-0.4-1.2L66,41h0.1c1.3,0,2.3-1.1,2.3-2.3C68.4,37.9,67.9,37.1,67.1,36.7L67.1,36.7z
	 M63.8,38.8c0,0.5,0.2,1,0.5,1.3l-8.5,14.6h-0.2c-1.3,0-2.3,1.1-2.3,2.3v0.1l-6.4,3.7L52,46.3h0.1c1.9,0,3.6-1.6,3.6-3.6
	c0-0.7-0.2-1.4-0.5-1.9l10-11.6v7.4C64.3,37.1,63.8,37.9,63.8,38.8z M13.4,54.7L5,40.2c0.3-0.4,0.5-0.8,0.5-1.3
	c0-0.9-0.5-1.7-1.3-2.1v-7.4l10,11.6c-0.4,0.5-0.5,1.2-0.5,1.9c0,2,1.6,3.6,3.6,3.6h0.2l5,14.5l-6.6-3.8
	C15.7,55.7,14.7,54.8,13.4,54.7z M24.2,4.7c0.9,0,1.7-0.5,2.1-1.3h16.5c0.4,0.8,1.2,1.3,2.1,1.3c0.5,0,1-0.1,1.3-0.4l6.6,3.8l0,0
	l-15.1,2.8c-0.6-1.1-1.8-2-3.2-2s-2.6,0.8-3.2,2L16.5,8.1V7.9l6.4-3.7C23.3,4.4,23.8,4.7,24.2,4.7z M63.2,26.5c0,0.5,0.1,1,0.4,1.4
	l-4.4,5.2l-5.6,6.5c-0.4-0.2-1-0.3-1.5-0.3c-1,0-1.9,0.4-2.5,1l-11-6.4c0.1-0.4,0.2-0.8,0.2-1.1c0-1.9-1.3-3.5-3.1-4V15.9
	c1.4-0.4,2.4-1.6,2.5-3.1l15.1-2.7c0.5,0.8,1.4,1.3,2.5,1.3h0.4l7.6,13.2C63.4,25.1,63.2,25.7,63.2,26.5z M13.7,11.4
	c1,0,1.9-0.5,2.5-1.3l14.9,2.8c0.2,1.4,1.2,2.6,2.6,3.1v12.8c-1.8,0.4-3.1,2.1-3.1,4c0,0.4,0.1,0.8,0.2,1.1l-11,6.4
	c-0.7-0.6-1.5-1-2.5-1c-0.5,0-1,0.2-1.5,0.3l-5.6-6.5l-4.4-5.2C6,27.4,6.2,27,6.2,26.5c0-0.8-0.2-1.3-0.7-1.9l7.7-13.3
	C13.2,11.3,13.4,11.4,13.7,11.4C13.7,11.4,13.7,11.4,13.7,11.4z M24.3,60.2l-5.1-14.5c0.9-0.7,1.5-1.7,1.5-2.9c0-0.3,0-0.5-0.1-0.8
	l11.1-6.4c0.8,0.8,1.8,1.2,2.9,1.2s2.2-0.5,2.9-1.2l11,6.4c-0.1,0.2-0.1,0.5-0.1,0.8c0,1.2,0.6,2.2,1.5,2.9l-5,14.5
	c-1.3,0-2.3,0.8-2.7,1.9H27C26.6,61,25.6,60.2,24.3,60.2z"/>
</svg>
