<?xml version="1.0" encoding="utf-8"?>
<!-- Generator: Adobe Illustrator 28.2.0, SVG Export Plug-In . SVG Version: 6.00 Build 0)  -->
<svg version="1.1" id="Layer_1" xmlns="http://www.w3.org/2000/svg" xmlns:xlink="http://www.w3.org/1999/xlink" x="0px" y="0px"
	 viewBox="0 0 122.6 117.6" style="enable-background:new 0 0 122.6 117.6;" xml:space="preserve">
<path d="M93.8,62.5v-7.4c1.1-0.5,2-1.5,2-2.8c0-1.7-1.4-3-3-3c-0.2,0-0.3,0-0.5,0.1l-7.5-13.2c0.4-0.5,0.8-1.2,0.8-1.9
	c0-1.7-1.3-3-3-3c-0.8,0-1.4,0.3-1.9,0.8L74,28.2v-0.1c0-1.3-1-2.3-2.3-2.3c-0.9,0-1.7,0.5-2.1,1.3H53c-0.4-0.8-1.2-1.3-2.1-1.3
	c-1.3,0-2.3,1.1-2.3,2.3v0.1L42.2,32c-0.5-0.4-1.1-0.7-1.9-0.7c-1.7,0-3,1.4-3,3c0,0.7,0.2,1.3,0.6,1.7l-7.7,13.3
	c-0.2,0-0.3-0.1-0.5-0.1c-1.6,0-3,1.3-3,3c0,1.3,0.8,2.3,2,2.8v7.4c-0.8,0.4-1.3,1.2-1.3,2.1c0,1.3,1,2.3,2.3,2.3h0.1l8.5,14.5
	c-0.3,0.4-0.5,0.9-0.5,1.4c0,1.3,1,2.3,2.3,2.3c0.5,0,1-0.2,1.4-0.5l6.5,3.8c0,0.2-0.1,0.3-0.1,0.5c0,1.6,1.3,3,3,3
	c1.3,0,2.3-0.8,2.8-2h15.2c0.5,1.1,1.5,2,2.8,2c1.6,0,3-1.4,3-3c0-0.2,0-0.3-0.1-0.5l6.4-3.7c0.4,0.2,0.8,0.4,1.3,0.4
	c1.3,0,2.3-1.1,2.3-2.3c0-0.4-0.1-0.8-0.4-1.2l8.5-14.7h0.1c1.3,0,2.3-1.1,2.3-2.3C95.1,63.7,94.6,62.9,93.8,62.5L93.8,62.5z
	 M90.5,64.6c0,0.5,0.2,1,0.5,1.3l-8.5,14.6c-0.1,0-0.2,0-0.2,0c-1.3,0-2.3,1.1-2.3,2.3c0,0.1,0,0.1,0,0.1l-6.4,3.7l5.1-14.5
	c0.1,0,0.1,0,0.1,0c1.9,0,3.6-1.6,3.6-3.6c0-0.7-0.2-1.4-0.5-1.9l10-11.6v7.4C91,62.9,90.5,63.7,90.5,64.6z M40.1,80.5l-8.4-14.5
	c0.3-0.4,0.5-0.8,0.5-1.3c0-0.9-0.5-1.7-1.3-2.1v-7.4l10,11.6c-0.4,0.5-0.5,1.2-0.5,1.9c0,2,1.6,3.6,3.6,3.6c0.1,0,0.1,0,0.2,0
	l5,14.5l-6.6-3.8C42.4,81.5,41.4,80.6,40.1,80.5z M50.9,30.5c0.9,0,1.7-0.5,2.1-1.3h16.5c0.4,0.8,1.2,1.3,2.1,1.3
	c0.5,0,1-0.1,1.3-0.4l6.6,3.8l0,0l-15.1,2.8c-0.6-1.1-1.8-2-3.2-2c-1.4,0-2.6,0.8-3.2,2l-14.8-2.8c0-0.1,0-0.2,0-0.2l6.4-3.7
	C50,30.2,50.5,30.5,50.9,30.5z M89.9,52.3c0,0.5,0.1,1,0.4,1.4l-4.4,5.2l-5.6,6.5c-0.4-0.2-1-0.3-1.5-0.3c-1,0-1.9,0.4-2.5,1
	l-11-6.4c0.1-0.4,0.2-0.8,0.2-1.1c0-1.9-1.3-3.5-3.1-4V41.7c1.4-0.4,2.4-1.6,2.5-3.1L80,35.9c0.5,0.8,1.4,1.3,2.5,1.3
	c0.1,0,0.3,0,0.4,0l7.6,13.2C90.1,50.9,89.9,51.5,89.9,52.3z M40.4,37.2c1,0,1.9-0.5,2.5-1.3l14.9,2.8c0.2,1.4,1.2,2.6,2.6,3.1v12.8
	c-1.8,0.4-3.1,2.1-3.1,4c0,0.4,0.1,0.8,0.2,1.1l-11,6.4c-0.7-0.6-1.5-1-2.5-1c-0.5,0-1,0.2-1.5,0.3l-5.6-6.5l-4.4-5.2
	c0.2-0.5,0.4-0.9,0.4-1.4c0-0.8-0.2-1.3-0.7-1.9l7.7-13.3C39.9,37.1,40.1,37.2,40.4,37.2L40.4,37.2z M51,86l-5.1-14.5
	c0.9-0.7,1.5-1.7,1.5-2.9c0-0.3,0-0.5-0.1-0.8l11.1-6.4c0.8,0.8,1.8,1.2,2.9,1.2s2.2-0.5,2.9-1.2l11,6.4c-0.1,0.2-0.1,0.5-0.1,0.8
	c0,1.2,0.6,2.2,1.5,2.9L71.6,86c-1.3,0-2.3,0.8-2.7,1.9H53.7C53.3,86.8,52.3,86,51,86z"/>
</svg>
