<svg width="123" height="118" viewBox="0 0 123 118" fill="none" xmlns="http://www.w3.org/2000/svg">
<path d="M119.165 65.3376L119.16 52.1185C121.163 51.3717 122.596 49.4434 122.596 47.1813C122.596 44.2743 120.234 41.9091 117.329 41.9091C117.031 41.9091 116.74 41.94 116.455 41.988L102.972 18.5373C103.775 17.6118 104.265 16.4071 104.265 15.0876C104.265 12.1806 101.903 9.8154 98.9983 9.8154C97.6561 9.8154 96.4336 10.3247 95.5025 11.1549L83.8125 4.36206C83.8156 4.29669 83.832 4.2352 83.832 4.1691C83.832 1.86661 81.967 0 79.6667 0C78.0288 0 76.6259 0.954782 75.9455 2.33071H46.6512C45.9706 0.954782 44.5678 0 42.9302 0C40.6295 0 38.7647 1.86661 38.7647 4.1691C38.7647 4.23511 38.7811 4.29659 38.784 4.36196L27.3939 10.9808C26.4909 10.2534 25.3455 9.8154 24.0988 9.8154C21.1944 9.8154 18.8318 12.1806 18.8318 15.0876C18.8318 16.2394 19.2071 17.3027 19.8356 18.1709L6.14239 41.988C5.85729 41.94 5.5664 41.9091 5.26793 41.9091C2.36351 41.9091 0 44.2743 0 47.1813C0 49.4434 1.43406 51.3717 3.4374 52.1185L3.43263 65.3372C2.05693 66.0179 1.10219 67.4226 1.10219 69.0626C1.10219 71.3652 2.96703 73.2317 5.26766 73.2317C5.32096 73.2317 5.3703 73.218 5.42306 73.216L20.3217 99.0031C19.7731 99.7092 19.4332 100.585 19.4332 101.549C19.4332 103.852 21.2981 105.718 23.5985 105.718C24.5603 105.718 25.4351 105.379 26.1404 104.83L37.7392 111.491C37.693 111.772 37.6627 112.059 37.6627 112.352C37.6627 115.259 40.0253 117.625 42.9297 117.625C45.1876 117.625 47.1128 116.193 47.8606 114.191H74.7366C75.4844 116.193 77.4089 117.625 79.6668 117.625C82.5712 117.625 84.9338 115.259 84.9338 112.352C84.9338 112.059 84.9035 111.772 84.8573 111.491L96.1611 105C96.8276 105.453 97.6314 105.718 98.4978 105.718C100.798 105.718 102.663 103.852 102.663 101.549C102.663 100.758 102.431 100.026 102.048 99.3957L117.174 73.2162C117.227 73.2182 117.276 73.2318 117.329 73.2318C119.629 73.2318 121.494 71.3652 121.494 69.0627C121.494 67.4229 120.54 66.0184 119.165 65.3376ZM113.164 69.0626C113.164 69.9622 113.455 70.7899 113.939 71.471L98.9423 97.4249C98.7943 97.4089 98.6501 97.3801 98.4978 97.3801C96.1972 97.3801 94.3323 99.2467 94.3323 101.549C94.3323 101.634 94.3523 101.713 94.3573 101.796L83.0449 108.292L92.1327 82.5005C92.2195 82.504 92.3048 82.5137 92.3924 82.5137C95.9043 82.5137 98.7614 79.6536 98.7614 76.1381C98.7614 74.9001 98.4015 73.7473 97.789 72.7682L115.487 52.1421L115.491 65.3385C114.117 66.0198 113.164 67.4237 113.164 69.0626ZM23.6301 97.3833L8.658 71.4707C9.14192 70.7896 9.4328 69.9621 9.4328 69.0627C9.4328 67.424 8.4797 66.0203 7.10572 65.339L7.11049 52.1423L24.8072 72.7682C24.1947 73.7473 23.8348 74.9001 23.8348 76.1382C23.8348 79.6537 26.6919 82.5138 30.2038 82.5138C30.2914 82.5138 30.3767 82.5041 30.4635 82.5005L39.5513 108.293L27.761 101.521C27.7456 99.2429 25.906 97.4007 23.6301 97.3833ZM42.9301 8.33831C44.5679 8.33831 45.9708 7.38335 46.6511 6.00733H75.9452C76.6257 7.38344 78.0285 8.33831 79.6667 8.33831C80.5519 8.33831 81.3694 8.05748 82.0443 7.58606L93.7803 14.4061L93.7801 14.4077L66.9559 19.37C65.896 17.3186 63.7605 15.9107 61.2988 15.9107C58.8364 15.9107 56.7006 17.3186 55.6407 19.3699L29.3317 14.503C29.3182 14.3802 29.2979 14.2592 29.2761 14.1389L40.5523 7.58596C41.2271 8.05747 42.0446 8.33831 42.9301 8.33831ZM112.061 47.1813C112.061 48.1033 112.301 48.9697 112.718 49.7245L104.841 58.9045L95.0281 70.3411C94.2238 69.9731 93.3331 69.7625 92.3924 69.7625C90.6776 69.7625 89.1218 70.4477 87.9757 71.555L68.3343 60.1861C68.5063 59.5647 68.6056 58.9131 68.6056 58.2376C68.6056 54.8407 66.2765 51.9856 63.1352 51.167V28.389C65.5388 27.6627 67.3463 25.5514 67.6272 22.9853L94.6081 17.9941C95.5521 19.4179 97.1665 20.3594 98.9981 20.3594C99.2528 20.3594 99.5013 20.3351 99.7464 20.2999L113.271 43.8237C112.516 44.7364 112.061 45.9066 112.061 47.1813ZM24.0987 20.3594C25.8945 20.3594 27.4815 19.4538 28.4327 18.0763L54.9689 22.9851C55.2499 25.5515 57.0576 27.6629 59.4619 28.3891V51.1669C56.3203 51.9856 53.9905 54.8407 53.9905 58.2376C53.9905 58.9133 54.0898 59.5649 54.2621 60.1864L34.6206 71.5551C33.4744 70.4478 31.9187 69.7626 30.2037 69.7626C29.263 69.7626 28.3724 69.9732 27.5679 70.3412L17.6256 58.7532L9.8786 49.7241C10.2957 48.9694 10.5346 48.1031 10.5346 47.1814C10.5346 45.9068 10.08 44.7367 9.3252 43.8241L22.8981 20.216C23.2845 20.3065 23.6851 20.3594 24.0987 20.3594ZM43.0214 107.085L33.9341 81.2947C35.5296 80.135 36.5728 78.2584 36.5728 76.1382C36.5728 75.6653 36.5172 75.2058 36.4192 74.762L56.1003 63.3704C57.4265 64.7153 59.2661 65.5516 61.2986 65.5516C63.331 65.5516 65.1706 64.7153 66.4964 63.3702L86.1771 74.7618C86.079 75.2056 86.0234 75.6651 86.0234 76.138C86.0234 78.2582 87.0666 80.1348 88.6622 81.2945L79.5748 107.085C77.3571 107.123 75.474 108.539 74.7365 110.514H47.8605C47.1228 108.54 45.2392 107.123 43.0214 107.085Z" fill="black"/>
</svg>
