<?xml version="1.0" encoding="utf-8"?>
<!-- Generator: Adobe Illustrator 28.2.0, SVG Export Plug-In . SVG Version: 6.00 Build 0)  -->
<svg version="1.1" id="Layer_1" xmlns="http://www.w3.org/2000/svg" xmlns:xlink="http://www.w3.org/1999/xlink" x="0px" y="0px"
	 viewBox="0 0 140.9 122.2" style="enable-background:new 0 0 140.9 122.2;" xml:space="preserve">
<style type="text/css">
	.st0{fill:#FFFFFF;}
</style>
<rect class="st0" width="140.9" height="122.2"/>
<g>
	<path d="M101.6,56.1c0-0.1,0-0.1,0-0.1c0-0.1,0-0.1-0.1-0.1c0,0,0-0.1,0-0.1L91.5,36.6c0,0,0,0-0.1-0.1c0,0-0.1-0.1-0.1-0.1
		c0,0-0.1-0.1-0.1-0.1c0,0,0,0-0.1-0.1l-10.1-6.7c-0.2-0.1-0.4-0.2-0.5-0.2H60.4c-0.2,0-0.4,0.1-0.5,0.2l-10.1,6.7c0,0,0,0-0.1,0.1
		c0,0-0.1,0.1-0.1,0.1c0,0-0.1,0.1-0.1,0.1c0,0,0,0-0.1,0.1L39.4,55.8c0,0,0,0.1,0,0.1c0,0,0,0.1-0.1,0.1c0,0,0,0.1,0,0.1
		c0,0,0,0.1,0,0.1v8.9c0,0.2,0,0.3,0.1,0.5l10.1,18.9c0.1,0.1,0.2,0.3,0.3,0.4l10.1,6.7c0,0,0.1,0,0.1,0.1c0,0,0.1,0,0.1,0.1
		c0.1,0,0.2,0,0.3,0h20.1c0.1,0,0.2,0,0.3,0c0,0,0.1,0,0.1-0.1c0,0,0.1,0,0.1-0.1l10.1-6.7c0.1-0.1,0.2-0.2,0.3-0.4l10.1-18.9
		c0.1-0.1,0.1-0.3,0.1-0.5L101.6,56.1C101.6,56.2,101.6,56.2,101.6,56.1z M50.9,38.1l18.6,3.1V60l-7.9,4.7l-7.7,4.6L41.4,56.1
		L50.9,38.1z M99.5,56.1L87.1,69.4l-7.9-4.7L71.4,60V41.2L90,38.1L99.5,56.1z M61.1,89.8L54.9,71l15.6-9.4L86,71l-6.2,18.7H61.1z
		 M60.7,31.3h19.5l7.8,5.2l-17.5,2.9l-17.5-2.9L60.7,31.3z M41.2,64.8v-6.1l7,7.6l4.5,4.9l5.7,17.2l-7.5-5L41.2,64.8z M99.7,64.8
		l-9.8,18.5l-7.5,5l1.7-5.2l4-12l4.5-4.9l7-7.6V64.8z"/>
	<g>
		<circle cx="70.5" cy="60.5" r="4.5"/>
		<circle cx="70.5" cy="40.4" r="4.5"/>
		<circle cx="87.2" cy="70.6" r="4.5"/>
		<circle cx="53.7" cy="70.6" r="4.5"/>
		<circle cx="80.5" cy="90.7" r="3.4"/>
		<circle cx="60.4" cy="90.7" r="3.4"/>
		<circle cx="40.2" cy="56.2" r="3.4"/>
		<circle cx="100.7" cy="56.2" r="3.4"/>
		<circle cx="50.3" cy="37" r="3.4"/>
		<circle cx="90.6" cy="37" r="3.4"/>
		<circle cx="90.6" cy="84" r="2.2"/>
		<circle cx="50.3" cy="84" r="2.2"/>
		<circle cx="100.7" cy="65.1" r="2.2"/>
		<circle cx="40.2" cy="65.1" r="2.2"/>
		<circle cx="80.5" cy="30.3" r="2.2"/>
		<circle cx="60.4" cy="30.3" r="2.2"/>
	</g>
</g>
</svg>
