<?xml version="1.0" encoding="UTF-8"?><svg id="Layer_1" xmlns="http://www.w3.org/2000/svg" viewBox="0 0 140.9 122.2"><defs><style>.cls-1,.cls-2{stroke-width:0px;}.cls-2{fill:#fff;}</style></defs><rect class="cls-2" width="140.9" height="122.2"/><path class="cls-1" d="M103,64.8v-7.4c1.1-.5,2-1.5,2-2.8,0-1.7-1.4-3-3-3-.2,0-.3,0-.5.1l-7.5-13.2c.4-.5.8-1.2.8-1.9,0-1.7-1.3-3-3-3-.8,0-1.4.3-1.9.8l-6.7-3.9v-.1c0-1.3-1-2.3-2.3-2.3-.9,0-1.7.5-2.1,1.3h-16.6c-.4-.8-1.2-1.3-2.1-1.3-1.3,0-2.3,1.1-2.3,2.3v.1l-6.4,3.8c-.5-.4-1.1-.7-1.9-.7-1.7,0-3,1.4-3,3,0,.7.2,1.3.6,1.7l-7.7,13.3c-.2,0-.3-.1-.5-.1-1.6,0-3,1.3-3,3,0,1.3.8,2.3,2,2.8v7.4c-.8.4-1.3,1.2-1.3,2.1,0,1.3,1,2.3,2.3,2.3h.1l8.5,14.5c-.3.4-.5.9-.5,1.4,0,1.3,1,2.3,2.3,2.3.5,0,1-.2,1.4-.5l6.5,3.8c0,.2-.1.3-.1.5,0,1.6,1.3,3,3,3,1.3,0,2.3-.8,2.8-2h15.2c.5,1.1,1.5,2,2.8,2,1.6,0,3-1.4,3-3,0-.2,0-.3-.1-.5l6.4-3.7c.4.2.8.4,1.3.4,1.3,0,2.3-1.1,2.3-2.3,0-.4-.1-.8-.4-1.2l8.5-14.7h.1c1.3,0,2.3-1.1,2.3-2.3,0-.8-.5-1.6-1.3-2h0ZM99.7,66.9c0,.5.2,1,.5,1.3l-8.5,14.6h-.2c-1.3,0-2.3,1.1-2.3,2.3v.1l-6.4,3.7,5.1-14.5h.1c1.9,0,3.6-1.6,3.6-3.6,0-.7-.2-1.4-.5-1.9l10-11.6v7.4c-.9.5-1.4,1.3-1.4,2.2ZM49.3,82.8l-8.4-14.5c.3-.4.5-.8.5-1.3,0-.9-.5-1.7-1.3-2.1v-7.4l10,11.6c-.4.5-.5,1.2-.5,1.9,0,2,1.6,3.6,3.6,3.6h.2l5,14.5-6.6-3.8c-.2-1.5-1.2-2.4-2.5-2.5ZM60.1,32.8c.9,0,1.7-.5,2.1-1.3h16.5c.4.8,1.2,1.3,2.1,1.3.5,0,1-.1,1.3-.4l6.6,3.8h0l-15.1,2.8c-.6-1.1-1.8-2-3.2-2s-2.6.8-3.2,2l-14.8-2.8v-.2l6.4-3.7c.4.2.9.5,1.3.5ZM99.1,54.6c0,.5.1,1,.4,1.4l-4.4,5.2-5.6,6.5c-.4-.2-1-.3-1.5-.3-1,0-1.9.4-2.5,1l-11-6.4c.1-.4.2-.8.2-1.1,0-1.9-1.3-3.5-3.1-4v-12.9c1.4-.4,2.4-1.6,2.5-3.1l15.1-2.7c.5.8,1.4,1.3,2.5,1.3h.4l7.6,13.2c-.4.5-.6,1.1-.6,1.9ZM49.6,39.5c1,0,1.9-.5,2.5-1.3l14.9,2.8c.2,1.4,1.2,2.6,2.6,3.1v12.8c-1.8.4-3.1,2.1-3.1,4,0,.4.1.8.2,1.1l-11,6.4c-.7-.6-1.5-1-2.5-1-.5,0-1,.2-1.5.3l-5.6-6.5-4.4-5.2c.2-.5.4-.9.4-1.4,0-.8-.2-1.3-.7-1.9l7.7-13.3s.2.1.5.1h0ZM60.2,88.3l-5.1-14.5c.9-.7,1.5-1.7,1.5-2.9,0-.3,0-.5-.1-.8l11.1-6.4c.8.8,1.8,1.2,2.9,1.2s2.2-.5,2.9-1.2l11,6.4c-.1.2-.1.5-.1.8,0,1.2.6,2.2,1.5,2.9l-5,14.5c-1.3,0-2.3.8-2.7,1.9h-15.2c-.4-1.1-1.4-1.9-2.7-1.9Z"/></svg>