<?xml version="1.0" encoding="utf-8"?>
<!-- Generator: Adobe Illustrator 28.2.0, SVG Export Plug-In . SVG Version: 6.00 Build 0)  -->
<svg version="1.1" id="Layer_1" xmlns="http://www.w3.org/2000/svg" xmlns:xlink="http://www.w3.org/1999/xlink" x="0px" y="0px"
	 viewBox="0 0 122.6 117.6" style="enable-background:new 0 0 122.6 117.6;" xml:space="preserve">
<path d="M104.7,63.7l0-9.9c1.5-0.6,2.6-2,2.6-3.7c0-2.2-1.8-4-4-4c-0.2,0-0.4,0-0.7,0.1L92.6,28.6c0.6-0.7,1-1.6,1-2.6
	c0-2.2-1.8-4-4-4c-1,0-1.9,0.4-2.6,1L78.2,18c0,0,0-0.1,0-0.1c0-1.7-1.4-3.1-3.1-3.1c-1.2,0-2.3,0.7-2.8,1.7h-22
	c-0.5-1-1.6-1.7-2.8-1.7c-1.7,0-3.1,1.4-3.1,3.1c0,0,0,0.1,0,0.1l-8.5,5c-0.7-0.5-1.5-0.9-2.5-0.9c-2.2,0-4,1.8-4,4
	c0,0.9,0.3,1.7,0.8,2.3L19.9,46.2c-0.2,0-0.4-0.1-0.7-0.1c-2.2,0-4,1.8-4,4c0,1.7,1.1,3.1,2.6,3.7l0,9.9c-1,0.5-1.7,1.6-1.7,2.8
	c0,1.7,1.4,3.1,3.1,3.1c0,0,0.1,0,0.1,0L30.6,89c-0.4,0.5-0.7,1.2-0.7,1.9c0,1.7,1.4,3.1,3.1,3.1c0.7,0,1.4-0.3,1.9-0.7l8.7,5
	c0,0.2-0.1,0.4-0.1,0.6c0,2.2,1.8,4,4,4c1.7,0,3.1-1.1,3.7-2.6h20.2c0.6,1.5,2,2.6,3.7,2.6c2.2,0,4-1.8,4-4c0-0.2,0-0.4-0.1-0.6
	l8.5-4.9c0.5,0.3,1.1,0.5,1.8,0.5c1.7,0,3.1-1.4,3.1-3.1c0-0.6-0.2-1.1-0.5-1.6l11.3-19.6c0,0,0.1,0,0.1,0c1.7,0,3.1-1.4,3.1-3.1
	C106.4,65.3,105.7,64.2,104.7,63.7L104.7,63.7z M100.2,66.5c0,0.7,0.2,1.3,0.6,1.8L89.5,87.8c-0.1,0-0.2,0-0.3,0
	c-1.7,0-3.1,1.4-3.1,3.1c0,0.1,0,0.1,0,0.2l-8.5,4.9l6.8-19.3c0.1,0,0.1,0,0.2,0c2.6,0,4.8-2.1,4.8-4.8c0-0.9-0.3-1.8-0.7-2.5
	l13.3-15.5l0,9.9C100.9,64.2,100.2,65.3,100.2,66.5z M33,87.7L21.8,68.3c0.4-0.5,0.6-1.1,0.6-1.8c0-1.2-0.7-2.3-1.7-2.8l0-9.9
	l13.3,15.5c-0.5,0.7-0.7,1.6-0.7,2.5c0,2.6,2.1,4.8,4.8,4.8c0.1,0,0.1,0,0.2,0L45,95.9l-8.8-5.1C36.1,89.1,34.8,87.8,33,87.7z
	 M47.5,21c1.2,0,2.3-0.7,2.8-1.7h22c0.5,1,1.6,1.7,2.8,1.7c0.7,0,1.3-0.2,1.8-0.6l8.8,5.1l0,0l-20.1,3.7c-0.8-1.5-2.4-2.6-4.2-2.6
	s-3.4,1.1-4.2,2.6l-19.7-3.7c0-0.1,0-0.2,0-0.3l8.5-4.9C46.2,20.7,46.9,21,47.5,21z M99.4,50.1c0,0.7,0.2,1.3,0.5,1.9L94,58.9
	l-7.4,8.6c-0.6-0.3-1.3-0.4-2-0.4c-1.3,0-2.5,0.5-3.3,1.3l-14.7-8.5c0.1-0.5,0.2-1,0.2-1.5c0-2.5-1.7-4.7-4.1-5.3V36
	c1.8-0.5,3.2-2.1,3.4-4.1l20.2-3.7c0.7,1.1,1.9,1.8,3.3,1.8c0.2,0,0.4,0,0.6,0l10.1,17.6C99.7,48.3,99.4,49.1,99.4,50.1z M33.4,30
	c1.3,0,2.5-0.7,3.3-1.7l19.9,3.7c0.2,1.9,1.6,3.5,3.4,4.1v17.1c-2.4,0.6-4.1,2.8-4.1,5.3c0,0.5,0.1,1,0.2,1.5l-14.7,8.5
	c-0.9-0.8-2-1.3-3.3-1.3c-0.7,0-1.4,0.2-2,0.4l-7.5-8.7L22.7,52c0.3-0.6,0.5-1.2,0.5-1.9c0-1-0.3-1.8-0.9-2.5l10.2-17.7
	C32.8,29.9,33.1,30,33.4,30L33.4,30z M47.6,95l-6.8-19.3c1.2-0.9,2-2.3,2-3.9c0-0.4,0-0.7-0.1-1l14.8-8.5c1,1,2.4,1.6,3.9,1.6
	c1.5,0,2.9-0.6,3.9-1.6L80,70.8c-0.1,0.3-0.1,0.7-0.1,1c0,1.6,0.8,3,2,3.9L75,95c-1.7,0-3.1,1.1-3.6,2.6H51.2
	C50.7,96.1,49.3,95,47.6,95z"/>
</svg>
