<?xml version="1.0" encoding="UTF-8"?><svg id="Layer_1" xmlns="http://www.w3.org/2000/svg" viewBox="0 0 122.596 117.625"><defs><style>.cls-1{stroke-width:0px;}</style></defs><path class="cls-1" d="M119.165,65.3376l-.005-13.2191c2.003-.7468,3.436-2.6751,3.436-4.9372,0-2.907-2.362-5.2722-5.267-5.2722-.298,0-.589.0309-.874.0789l-13.483-23.4507c.803-.9255,1.293-2.1302,1.293-3.4497,0-2.907-2.362-5.2722-5.2667-5.2722-1.3422,0-2.5647.5093-3.4958,1.3395l-11.69-6.7928c.0031-.0654.0195-.1269.0195-.193,0-2.3025-1.865-4.1691-4.1653-4.1691-1.6379,0-3.0408.9548-3.7212,2.3307h-29.2943c-.6806-1.3759-2.0834-2.3307-3.721-2.3307-2.3007,0-4.1655,1.8666-4.1655,4.1691,0,.066.0164.1275.0193.1929l-11.3901,6.6188c-.903-.7274-2.0484-1.1654-3.2951-1.1654-2.9044,0-5.267,2.3652-5.267,5.2722,0,1.1518.3753,2.2151,1.0038,3.0833l-13.6932,23.8171c-.2851-.048-.576-.0789-.8745-.0789-2.9044,0-5.2679,2.3652-5.2679,5.2722,0,2.2621,1.4341,4.1904,3.4374,4.9372l-.0048,13.2187c-1.3757.6807-2.3304,2.0854-2.3304,3.7254,0,2.3026,1.8648,4.1691,4.1655,4.1691.0533,0,.1026-.0137.1554-.0157l14.8986,25.7871c-.5486.7061-.8885,1.5819-.8885,2.5459,0,2.303,1.8649,4.169,4.1653,4.169.9618,0,1.8366-.339,2.5419-.888l11.5988,6.661c-.0462.281-.0765.568-.0765.861,0,2.907,2.3626,5.273,5.267,5.273,2.2579,0,4.1831-1.432,4.9309-3.434h26.876c.7478,2.002,2.6723,3.434,4.9302,3.434,2.9044,0,5.267-2.366,5.267-5.273,0-.293-.0303-.58-.0765-.861l11.3038-6.491c.6665.453,1.4703.718,2.3367.718,2.3002,0,4.1652-1.866,4.1652-4.169,0-.791-.232-1.523-.615-2.1533l15.126-26.1795c.053.002.102.0156.155.0156,2.3,0,4.165-1.8666,4.165-4.1691,0-1.6398-.954-3.0443-2.329-3.7251ZM113.164,69.0626c0,.8996.291,1.7273.775,2.4084l-14.9967,25.9539c-.148-.016-.2922-.0448-.4445-.0448-2.3006,0-4.1655,1.8666-4.1655,4.1689,0,.085.02.164.025.247l-11.3124,6.496,9.0878-25.7915c.0868.0035.1721.0132.2597.0132,3.5119,0,6.369-2.8601,6.369-6.3756,0-1.238-.3599-2.3908-.9724-3.3699l17.698-20.6261.004,13.1964c-1.374.6813-2.327,2.0852-2.327,3.7241ZM23.6301,97.3833l-14.9721-25.9126c.4839-.6811.7748-1.5086.7748-2.408,0-1.6387-.9531-3.0424-2.3271-3.7237l.0048-13.1967,17.6967,20.6259c-.6125.9791-.9724,2.1319-.9724,3.37,0,3.5155,2.8571,6.3756,6.369,6.3756.0876,0,.1729-.0097.2597-.0133l9.0878,25.7925-11.7903-6.772c-.0154-2.2781-1.855-4.1203-4.1309-4.1377ZM42.9301,8.3383c1.6378,0,3.0407-.955,3.721-2.331h29.2941c.6805,1.3761,2.0833,2.331,3.7215,2.331.8852,0,1.7027-.2808,2.3776-.7523l11.736,6.82-.0002.0016-26.8242,4.9623c-1.0599-2.0514-3.1954-3.4593-5.6571-3.4593s-4.5982,1.4079-5.6581,3.4592l-26.309-4.8669c-.0135-.1228-.0338-.2438-.0556-.3641l11.2762-6.5529c.6748.4715,1.4923.7524,2.3778.7524ZM112.061,47.1813c0,.922.24,1.7884.657,2.5432l-7.877,9.18-9.8129,11.4366c-.8043-.368-1.695-.5786-2.6357-.5786-1.7148,0-3.2706.6852-4.4167,1.7925l-19.6414-11.3689c.172-.6214.2713-1.273.2713-1.9485,0-3.3969-2.3291-6.252-5.4704-7.0706v-22.778c2.4036-.7263,4.2111-2.8376,4.492-5.4037l26.9809-4.9912c.944,1.4238,2.5584,2.3653,4.39,2.3653.2547,0,.5032-.0243.7483-.0595l13.5246,23.5238c-.755.9127-1.21,2.0829-1.21,3.3576ZM24.0987,20.3594c1.7958,0,3.3828-.9056,4.334-2.2831l26.5362,4.9088c.281,2.5664,2.0887,4.6778,4.493,5.404v22.7778c-3.1416.8187-5.4714,3.6738-5.4714,7.0707,0,.6757.0993,1.3273.2716,1.9488l-19.6415,11.3687c-1.1462-1.1073-2.7019-1.7925-4.4169-1.7925-.9407,0-1.8313.2106-2.6358.5786l-9.9423-11.588-7.747-9.0291c.4171-.7547.656-1.621.656-2.5427,0-1.2746-.4546-2.4447-1.2094-3.3573l13.5729-23.6081c.3864.0905.787.1434,1.2006.1434ZM43.0214,107.085l-9.0873-25.7903c1.5955-1.1597,2.6387-3.0363,2.6387-5.1565,0-.4729-.0556-.9324-.1536-1.3762l19.6811-11.3916c1.3262,1.3449,3.1658,2.1812,5.1983,2.1812s3.872-.8363,5.1978-2.1814l19.6807,11.3916c-.0981.4438-.1537.9033-.1537,1.3762,0,2.1202,1.0432,3.9968,2.6388,5.1565l-9.0874,25.7905c-2.2177.038-4.1008,1.454-4.8383,3.429h-26.876c-.7377-1.974-2.6213-3.391-4.8391-3.429Z"/></svg>