<?xml version="1.0" encoding="UTF-8"?><svg id="Layer_1" xmlns="http://www.w3.org/2000/svg" viewBox="0 0 79.6535 101.0802"><defs><style>.cls-1{stroke-width:0px;}.cls-2{fill:#fff;stroke:#000;stroke-miterlimit:10;stroke-width:1.4208px;}</style></defs><path class="cls-1" d="M79.3397,31.8l-9.5-15.5c-2.8-4.5-5.5-9-8.2-13.6-.7-1.1-1.9-1.8-3.2-1.8-5.3,0-10.6-.2-15.9-.4l-18-.5c-.7,0-1.5.3-1.9,1l-.1.1c-6.2,10-12.4,20-18.5,30.1-.6.9-.6,2.1-.1,3.1l.1.2c2.8,5.2,5.7,10.3,8.5,15.5l6.5,11.3c.7,1.2.6,2.7-.2,3.9L1.2397,90.8c-.2.2-.4.6-.6.9-1.6,3.4-.1,7.4,3.4,8.9,3.3,1.4,7.1-.4,8.6-3.6l13.2-27.8c.6-1.3,1.9-2.1,3.3-2.1,4.3,0,8.7,0,13-.1,5.9,0,11.8-.2,17.6-.4h.2c1,0,2-.6,2.6-1.6l16.8-31,.1-.1c.3-.7.3-1.5-.1-2.1ZM73.8397,34.6l-14.7,23.8c-.7,1.1-1.9,1.8-3.2,1.7-4.6-.1-9.2-.2-13.8-.3-4.5-.1-9-.1-13.4-.1-1.3,0-2.5-.7-3.2-1.8l-6.8-11.6c-2.3-3.9-4.7-7.9-7.1-11.8-.7-1.1-.7-2.5-.1-3.6,4.4-8.2,8.8-16.3,13.2-24.5.6-1.2,1.8-1.9,3.1-1.9l13.7-.4c5-.2,10.2-.3,15.2-.4,1.3,0,2.5.7,3.2,1.8,2.5,4.3,4.9,8.8,7.3,13.3l6.5,12.1c.8,1.2.7,2.6.1,3.7Z"/><path class="cls-2" d="M31.0397,42.7c1.9,0,3.4-1.5,3.4-3.4s-1.5-3.4-3.4-3.4-3.4,1.5-3.4,3.4c0,1.9,1.5,3.4,3.4,3.4Z"/><path class="cls-1" d="M42.1397,23.5c1.9,0,3.4-1.5,3.4-3.4s-1.5-3.4-3.4-3.4-3.4,1.5-3.4,3.4,1.5,3.4,3.4,3.4Z"/><path class="cls-1" d="M53.2397,42.7c1.9,0,3.4-1.5,3.4-3.4s-1.5-3.4-3.4-3.4-3.4,1.5-3.4,3.4,1.5,3.4,3.4,3.4Z"/></svg>