<?xml version="1.0" encoding="utf-8"?>
<!-- Generator: Adobe Illustrator 28.2.0, SVG Export Plug-In . SVG Version: 6.00 Build 0)  -->
<svg version="1.1" id="Layer_1" xmlns="http://www.w3.org/2000/svg" xmlns:xlink="http://www.w3.org/1999/xlink" x="0px" y="0px"
	 viewBox="0 0 79.7 101.1" style="enable-background:new 0 0 79.7 101.1;" xml:space="preserve">
<style type="text/css">
	.st0{fill:#FFFFFF;stroke:#000000;stroke-width:0.7992;stroke-miterlimit:10;}
</style>
<path d="M62.1,40l-5.3-8.7c-1.6-2.5-3.1-5.1-4.7-7.6c-0.4-0.6-1-1-1.8-1c-3,0-6-0.1-8.9-0.2l-10.1-0.3c-0.4,0-0.8,0.1-1,0.6
	l-0.1,0.1c-3.5,5.6-7,11.2-10.4,16.9c-0.3,0.5-0.3,1.2-0.1,1.7l0.1,0.1c1.6,2.9,3.2,5.8,4.8,8.7l3.7,6.4c0.4,0.7,0.4,1.5-0.1,2.2
	l-10,14.5c-0.1,0.1-0.2,0.3-0.3,0.5c-1,2-0.1,4.2,1.9,5c1.9,0.8,4-0.2,4.8-2l7.4-15.6c0.4-0.8,1.1-1.2,1.9-1.2c2.4,0,4.9,0,7.3-0.1
	c3.3,0,6.7-0.1,9.9-0.2h0.1c0.6,0,1.1-0.4,1.5-0.9L62,41.3l0.1-0.1C62.3,40.8,62.3,40.3,62.1,40L62.1,40z M58.9,41.6l-8.2,13.3
	c-0.4,0.6-1,1-1.8,1c-2.6-0.1-5.2-0.2-7.8-0.2c-2.5-0.1-5.1-0.1-7.5-0.1c-0.8,0-1.4-0.4-1.8-1L28,48.2c-1.3-2.2-2.6-4.4-4-6.6
	c-0.4-0.6-0.4-1.4-0.1-2c2.5-4.6,4.9-9.1,7.4-13.8c0.3-0.7,1-1,1.7-1l7.7-0.2c2.8-0.1,5.8-0.1,8.5-0.2c0.8,0,1.4,0.4,1.8,1
	c1.4,2.4,2.8,5,4.1,7.5l3.7,6.8C59.4,40.2,59.3,41,58.9,41.6z"/>
<path class="st0" d="M34.9,46.2c1.1,0,1.9-0.8,1.9-1.9c0-1-0.8-1.9-1.9-1.9c-1,0-1.9,0.8-1.9,1.9C33,45.3,33.8,46.2,34.9,46.2z"/>
<path d="M41.2,35.4c1,0,1.9-0.8,1.9-2c0-1-0.8-1.9-1.9-1.9c-1.1,0-1.9,0.8-1.9,1.9C39.2,34.5,40,35.4,41.2,35.4z"/>
<path d="M47.4,46.2c1,0,1.9-0.8,1.9-1.9c0-1-0.8-1.9-1.9-1.9c-1.1,0-2,0.8-2,1.9C45.4,45.3,46.3,46.2,47.4,46.2z"/>
</svg>
