<?xml version="1.0" encoding="UTF-8"?><svg id="Layer_1" xmlns="http://www.w3.org/2000/svg" viewBox="0 0 53.9685 68.7"><defs><style>.cls-1{fill:#fff;stroke:#000;stroke-miterlimit:10;stroke-width:.9636px;}.cls-2{stroke-width:0px;}</style></defs><path class="cls-2" d="M53.7876,21.4617l-6.3903-10.4897c-1.9291-3.0143-3.7377-6.1491-5.6668-9.1634-.4823-.7234-1.2057-1.2057-2.1703-1.2057-3.6171,0-7.2343-.1206-10.7308-.2411l-12.1777-.3617c-.4823,0-.9646.1206-1.2057.7234l-.1206.1206C11.1054,7.596,6.8854,14.348,2.786,21.2205c-.3617.6029-.3617,1.4469-.1206,2.0497l.1206.1206c1.9291,3.4966,3.8583,6.9931,5.7874,10.4897l4.4611,7.7166c.4823.844.4823,1.8086-.1206,2.6526L.8569,61.7324c-.1206.1206-.2411.3617-.3617.6029-1.2057,2.4114-.1206,5.064,2.2909,6.0286,2.2909.9646,4.8228-.2411,5.7874-2.4114l8.9223-18.8091c.4823-.9646,1.3263-1.4469,2.2909-1.4469,2.8937,0,5.908,0,8.8017-.1206,3.9788,0,8.0783-.1206,11.9365-.2411h.1206c.7234,0,1.3263-.4823,1.8086-1.0851l11.2131-21.2205.1206-.1206c.2411-.4823.2411-1.0851,0-1.4469h0ZM49.9293,23.3908l-9.8868,16.036c-.4823.7234-1.2057,1.2057-2.1703,1.2057-3.1348-.1206-6.2697-.2411-9.4045-.2411-3.0143-.1206-6.1491-.1206-9.0428-.1206-.9646,0-1.688-.4823-2.1703-1.2057l-4.5817-7.7166c-1.5674-2.6526-3.1349-5.3051-4.8228-7.9577-.4823-.7234-.4823-1.688-.1206-2.4114,3.0143-5.5463,5.908-10.972,8.9223-16.6388.3617-.844,1.2057-1.2057,2.0497-1.2057l9.284-.2411c3.376-.1206,6.9931-.1206,10.2485-.2411.9646,0,1.688.4823,2.1703,1.2057,1.688,2.8937,3.376,6.0286,4.9434,9.0428l4.4611,8.1988c.7234.6029.6029,1.5674.1206,2.2908Z"/><path class="cls-1" d="M20.9923,28.9371c1.3263,0,2.2909-.9646,2.2909-2.2909,0-1.2057-.9646-2.2909-2.2909-2.2909-1.2057,0-2.2909.9646-2.2909,2.2909,0,1.2057.9646,2.2909,2.2909,2.2909Z"/><path class="cls-2" d="M28.5882,15.9154c1.2057,0,2.2909-.9646,2.2909-2.4114,0-1.2057-.9646-2.2909-2.2909-2.2909s-2.2909.9646-2.2909,2.2909c-.1206,1.3263.844,2.4114,2.2909,2.4114Z"/><path class="cls-2" d="M36.0636,28.9371c1.2057,0,2.2909-.9646,2.2909-2.2909,0-1.2057-.9646-2.2909-2.2909-2.2909s-2.4114.9646-2.4114,2.2909c0,1.2057,1.0851,2.2909,2.4114,2.2909Z"/></svg>