<?xml version="1.0" encoding="utf-8"?>
<!-- Generator: Adobe Illustrator 28.2.0, SVG Export Plug-In . SVG Version: 6.00 Build 0)  -->
<svg version="1.1" id="Layer_1" xmlns="http://www.w3.org/2000/svg" xmlns:xlink="http://www.w3.org/1999/xlink" x="0px" y="0px"
	 viewBox="0 0 54 68.7" style="enable-background:new 0 0 54 68.7;" xml:space="preserve">
<style type="text/css">
	.st0{fill:#FFFFFF;}
	.st1{fill:#FFFFFF;stroke:#000000;stroke-width:0.9636;stroke-miterlimit:10;}
</style>
<rect x="-43.5" y="-26.8" class="st0" width="140.9" height="122.2"/>
<path d="M53.8,21.5L47.4,11c-1.9-3-3.7-6.1-5.7-9.2c-0.5-0.7-1.2-1.2-2.2-1.2c-3.6,0-7.2-0.1-10.7-0.2L16.7,0c-0.5,0-1,0.1-1.2,0.7
	l-0.1,0.1C11.1,7.6,6.9,14.3,2.8,21.2c-0.4,0.6-0.4,1.4-0.1,2l0.1,0.1c1.9,3.5,3.9,7,5.8,10.5l4.5,7.7c0.5,0.8,0.5,1.8-0.1,2.7
	L0.9,61.7c-0.1,0.1-0.2,0.4-0.4,0.6c-1.2,2.4-0.1,5.1,2.3,6c2.3,1,4.8-0.2,5.8-2.4l8.9-18.8c0.5-1,1.3-1.4,2.3-1.4
	c2.9,0,5.9,0,8.8-0.1c4,0,8.1-0.1,11.9-0.2h0.1c0.7,0,1.3-0.5,1.8-1.1L53.7,23l0.1-0.1C54,22.4,54,21.8,53.8,21.5L53.8,21.5
	L53.8,21.5z M49.9,23.4l-9.9,16c-0.5,0.7-1.2,1.2-2.2,1.2c-3.1-0.1-6.3-0.2-9.4-0.2c-3-0.1-6.1-0.1-9-0.1c-1,0-1.7-0.5-2.2-1.2
	l-4.6-7.7c-1.6-2.7-3.1-5.3-4.8-8c-0.5-0.7-0.5-1.7-0.1-2.4c3-5.5,5.9-11,8.9-16.6c0.4-0.8,1.2-1.2,2-1.2L28,2.9
	c3.4-0.1,7-0.1,10.2-0.2c1,0,1.7,0.5,2.2,1.2c1.7,2.9,3.4,6,4.9,9l4.5,8.2C50.5,21.7,50.4,22.7,49.9,23.4L49.9,23.4z"/>
<path class="st1" d="M21,28.9c1.3,0,2.3-1,2.3-2.3c0-1.2-1-2.3-2.3-2.3c-1.2,0-2.3,1-2.3,2.3C18.7,27.9,19.7,28.9,21,28.9z"/>
<path d="M28.6,15.9c1.2,0,2.3-1,2.3-2.4c0-1.2-1-2.3-2.3-2.3s-2.3,1-2.3,2.3C26.2,14.8,27.1,15.9,28.6,15.9z"/>
<path d="M36.1,28.9c1.2,0,2.3-1,2.3-2.3c0-1.2-1-2.3-2.3-2.3s-2.4,1-2.4,2.3C33.7,27.9,34.7,28.9,36.1,28.9z"/>
</svg>
