<?xml version="1.0" encoding="utf-8"?>
<!-- Generator: Adobe Illustrator 28.2.0, SVG Export Plug-In . SVG Version: 6.00 Build 0)  -->
<svg version="1.1" id="Layer_1" xmlns="http://www.w3.org/2000/svg" xmlns:xlink="http://www.w3.org/1999/xlink" x="0px" y="0px"
	 viewBox="0 0 79.7 101.1" style="enable-background:new 0 0 79.7 101.1;" xml:space="preserve">
<style type="text/css">
	.st0{fill:#FFFFFF;stroke:#000000;stroke-width:1.0656;stroke-miterlimit:10;}
</style>
<path d="M69.5,36.5l-7.1-11.6c-2.1-3.4-4.1-6.8-6.2-10.2c-0.5-0.8-1.4-1.4-2.4-1.4c-4,0-8-0.1-11.9-0.3l-13.5-0.4
	c-0.5,0-1.1,0.2-1.4,0.8l-0.1,0.1C22.2,21,17.6,28.5,13,36c-0.4,0.7-0.4,1.6-0.1,2.3l0.1,0.1c2.1,3.9,4.3,7.7,6.4,11.6l4.9,8.5
	c0.5,0.9,0.5,2-0.1,2.9L10.9,80.7c-0.1,0.1-0.3,0.4-0.4,0.7C9.2,84,10.4,87,13,88.1c2.5,1.1,5.3-0.3,6.4-2.7l9.9-20.8
	c0.5-1,1.4-1.6,2.5-1.6c3.2,0,6.5,0,9.7-0.1c4.4,0,8.9-0.1,13.2-0.3h0.1c0.8,0,1.5-0.5,2-1.2l12.6-23.2l0.1-0.1
	C69.8,37.5,69.8,36.9,69.5,36.5L69.5,36.5z M65.3,38.6l-11,17.8c-0.5,0.8-1.4,1.3-2.4,1.3c-3.5-0.1-6.9-0.2-10.4-0.2
	c-3.4-0.1-6.8-0.1-10-0.1c-1,0-1.9-0.5-2.4-1.3L24,47.4c-1.7-2.9-3.5-5.9-5.3-8.8c-0.5-0.8-0.5-1.9-0.1-2.7
	c3.3-6.1,6.6-12.2,9.9-18.4c0.4-0.9,1.3-1.4,2.3-1.4l10.3-0.3c3.8-0.1,7.7-0.2,11.4-0.3c1,0,1.9,0.5,2.4,1.4c1.9,3.2,3.7,6.6,5.5,10
	l4.9,9.1C65.9,36.7,65.8,37.8,65.3,38.6z"/>
<path class="st0" d="M33.2,44.7c1.4,0,2.5-1.1,2.5-2.5c0-1.4-1.1-2.6-2.5-2.6s-2.5,1.1-2.5,2.6C30.7,43.5,31.8,44.7,33.2,44.7z"/>
<path d="M41.6,30.3c1.4,0,2.6-1.1,2.6-2.6c0-1.4-1.1-2.5-2.6-2.5c-1.4,0-2.5,1.1-2.5,2.5C39,29.1,40.1,30.3,41.6,30.3z"/>
<path d="M49.9,44.7c1.4,0,2.5-1.1,2.5-2.5c0-1.4-1.1-2.6-2.5-2.6c-1.4,0-2.6,1.1-2.6,2.6C47.3,43.5,48.5,44.7,49.9,44.7z"/>
</svg>
