<?xml version="1.0" encoding="utf-8"?>
<!-- Generator: Adobe Illustrator 27.0.0, SVG Export Plug-In . SVG Version: 6.00 Build 0)  -->
<svg version="1.1" id="Layer_1" xmlns="http://www.w3.org/2000/svg" xmlns:xlink="http://www.w3.org/1999/xlink" x="0px" y="0px"
	 viewBox="0 0 217 102" style="enable-background:new 0 0 217 102;" xml:space="preserve">
<style type="text/css">
	.st0{fill:#FFFFFF;stroke:#000000;stroke-width:1.4208;stroke-miterlimit:10;}
</style>
<g>
	<path d="M79.3,31.8l-9.5-15.5c-2.8-4.5-5.5-9-8.2-13.6c-0.7-1.1-1.9-1.8-3.2-1.8c-5.3,0-10.6-0.2-15.9-0.4L24.5,0
		c-0.7,0-1.5,0.3-1.9,1l-0.1,0.1c-6.2,10-12.4,20-18.5,30.1c-0.6,0.9-0.6,2.1-0.1,3.1L4,34.5c2.8,5.2,5.7,10.3,8.5,15.5L19,61.3
		c0.7,1.2,0.6,2.7-0.2,3.9L1.2,90.8C1,91,0.8,91.4,0.6,91.7c-1.6,3.4-0.1,7.4,3.4,8.9c3.3,1.4,7.1-0.4,8.6-3.6l13.2-27.8
		c0.6-1.3,1.9-2.1,3.3-2.1c4.3,0,8.7,0,13-0.1c5.9,0,11.8-0.2,17.6-0.4l0.2,0c1,0,2-0.6,2.6-1.6L79.3,34l0.1-0.1
		C79.7,33.2,79.7,32.4,79.3,31.8z M73.8,34.6L59.1,58.4c-0.7,1.1-1.9,1.8-3.2,1.7c-4.6-0.1-9.2-0.2-13.8-0.3
		c-4.5-0.1-9-0.1-13.4-0.1c-1.3,0-2.5-0.7-3.2-1.8l-6.8-11.6c-2.3-3.9-4.7-7.9-7.1-11.8c-0.7-1.1-0.7-2.5-0.1-3.6
		c4.4-8.2,8.8-16.3,13.2-24.5c0.6-1.2,1.8-1.9,3.1-1.9l13.7-0.4c5-0.2,10.2-0.3,15.2-0.4c1.3,0,2.5,0.7,3.2,1.8
		c2.5,4.3,4.9,8.8,7.3,13.3l6.5,12.1C74.5,32.1,74.4,33.5,73.8,34.6z"/>
	<path class="st0" d="M31,42.7c1.9,0,3.4-1.5,3.4-3.4c0-1.9-1.5-3.4-3.4-3.4s-3.4,1.5-3.4,3.4C27.6,41.2,29.1,42.7,31,42.7z"/>
	<path d="M42.1,23.5c1.9,0,3.4-1.5,3.4-3.4s-1.5-3.4-3.4-3.4s-3.4,1.5-3.4,3.4S40.2,23.5,42.1,23.5z"/>
	<path d="M53.2,42.7c1.9,0,3.4-1.5,3.4-3.4c0-1.9-1.5-3.4-3.4-3.4s-3.4,1.5-3.4,3.4C49.8,41.2,51.3,42.7,53.2,42.7z"/>
</g>
</svg>
