<?xml version="1.0" encoding="UTF-8"?><svg id="Layer_1" xmlns="http://www.w3.org/2000/svg" viewBox="0 0 140.9 122.2"><defs><style>.cls-1{opacity:.33;}.cls-1,.cls-2,.cls-3,.cls-4{stroke-width:0px;}.cls-1,.cls-4{isolation:isolate;}.cls-3{fill:#fff;}.cls-4{opacity:.66;}</style></defs><rect class="cls-3" width="140.9" height="122.2"/><path class="cls-1" d="M100.3,66.7l-29.7-17.2-29.8,17.2,10.4,6,19.4-11.3,19.4,11.3s10.3-6,10.3-6Z"/><path class="cls-4" d="M70.6,84l19.4-11.2-19.4-11.3-19.4,11.2,19.4,11.3Z"/><path class="cls-2" d="M70.6,49.5l-29.8,17.2,29.9,17.2,29.8-17.2c-.2,0-29.9-17.2-29.9-17.2ZM70.6,50.5l28.3,16.3-9.3,5.2-19-11.1-19,11.1-9.1-5.2c-.2-.1,28.1-16.3,28.1-16.3ZM79.8,77.9l-9.3-5.4-9.3,5.4-9.1-5.4,18.4-10.6,18.4,10.7c.1,0-9.2,5.2-9.1,5.3Z"/><path class="cls-2" d="M32.8,62.2l37.7-21.7,37.6,21.7,2-1.2-39.6-22.8-39.7,22.8,2,1.2Z"/></svg>
