<?xml version="1.0" encoding="utf-8"?>
<!-- Generator: Adobe Illustrator 28.2.0, SVG Export Plug-In . SVG Version: 6.00 Build 0)  -->
<svg version="1.1" id="Layer_1" xmlns="http://www.w3.org/2000/svg" xmlns:xlink="http://www.w3.org/1999/xlink" x="0px" y="0px"
	 viewBox="0 0 140.9 122.2" style="enable-background:new 0 0 140.9 122.2;" xml:space="preserve">
<style type="text/css">
	.st0{fill:#FFFFFF;}
	.st1{opacity:0.33;enable-background:new    ;}
	.st2{opacity:0.66;enable-background:new    ;}
</style>
<rect class="st0" width="140.9" height="122.2"/>
<path class="st1" d="M100.5,66.7L70.6,49.5L40.8,66.7l10.4,6l19.4-11.2L90,72.8C90,72.8,100.5,66.7,100.5,66.7z"/>
<path class="st2" d="M70.7,83.9L90,72.8L70.6,61.5L51.2,72.7C51.2,72.7,70.7,83.9,70.7,83.9z"/>
<path d="M70.6,49.5L40.8,66.7l29.9,17.2l29.8-17.2C100.5,66.7,70.6,49.5,70.6,49.5z M70.6,50.5l28.3,16.3L89.6,72l-19-11.1L51.6,72
	l-9.1-5.2C42.3,66.7,70.6,50.5,70.6,50.5z M79.8,77.9l-9.3-5.4l-9.3,5.4l-9.1-5.4l18.4-10.6l18.4,10.7C89,72.6,79.7,77.8,79.8,77.9z
	"/>
<path d="M32.8,62.2l37.7-21.7l37.6,21.7l2-1.2L70.5,38.2L30.8,61L32.8,62.2z"/>
</svg>
