<?xml version="1.0" encoding="utf-8"?>
<!-- Generator: Adobe Illustrator 28.2.0, SVG Export Plug-In . SVG Version: 6.00 Build 0)  -->
<svg version="1.1" id="Layer_1" xmlns="http://www.w3.org/2000/svg" xmlns:xlink="http://www.w3.org/1999/xlink" x="0px" y="0px"
	 viewBox="0 0 140.9 122.2" style="enable-background:new 0 0 140.9 122.2;" xml:space="preserve">
<style type="text/css">
	.st0{fill:#FFFFFF;}
</style>
<rect class="st0" width="140.9" height="122.2"/>
<g id="FROG_16_">
	<path id="OUTLINE_16_" d="M106.4,42.1c-1.2,0-2.2,0.6-2.8,1.5l-8.9-2.3c-0.1-1.7-1.6-3.1-3.4-3.1c-0.5,0-1,0.1-1.5,0.4L88.3,37
		c-0.2-0.2-0.5-0.3-0.8-0.3H76.3C74.8,35,72.7,34,70.2,34c-0.2,0-0.5,0-0.7,0l-3-4c-0.3-0.4-0.8-0.5-1.2-0.4L59,31.4
		c-0.3,0.1-0.6,0.3-0.7,0.7l-1.4,3.7L50.9,37c-0.2,0-0.4,0.1-0.6,0.3l-3.2,3l-1.1-0.8c0.1-0.3,0.1-0.6,0.1-1c0-1.9-1.5-3.4-3.4-3.4
		c-1.9,0-3.4,1.5-3.4,3.4c0,1.9,1.5,3.4,3.4,3.4c0.7,0,1.4-0.2,1.9-0.6L47,43l0,0l0.4,1h-9.9c-0.5-1.3-1.7-2.3-3.2-2.3
		c-1.9,0-3.4,1.5-3.4,3.4c0,1.9,1.5,3.4,3.4,3.4c1.5,0,2.7-0.9,3.2-2.3h10.8l0.3,0.7c0.1,0.3,0.4,0.6,0.7,0.7l1.1,0.4l-3.7,2.8
		c-0.5-0.4-1.2-0.6-1.9-0.6c-1.9,0-3.4,1.5-3.4,3.4c0,1.9,1.5,3.4,3.4,3.4c1.9,0,3.4-1.5,3.4-3.4c0-0.4-0.1-0.7-0.2-1l4.9-3.7l2,0.7
		l1.6,4.1c-0.7,0.6-1.2,1.5-1.2,2.6c0,1.9,1.5,3.4,3.4,3.4c1.9,0,3.4-1.5,3.4-3.4c0-1.9-1.5-3.4-3.4-3.4c0,0-0.1,0-0.1,0l-0.9-2.3
		L71.1,55c0.1,0,0.2,0.1,0.4,0.1h6l1.8,3.4c-0.5,0.6-0.9,1.4-0.9,2.3c0,1.9,1.5,3.4,3.4,3.4c1,0,1.9-0.4,2.5-1.1l15,6.3
		c0,0.1,0,0.1,0,0.2c0,0,0,0,0,0l-15,5.4c-0.6-0.8-1.6-1.2-2.6-1.2c-0.4,0-0.8,0.1-1.2,0.2L74,66c0.3-0.5,0.5-1.1,0.5-1.8
		c0-1.9-1.5-3.4-3.4-3.4c-1.9,0-3.4,1.5-3.4,3.4c0,1.9,1.5,3.4,3.4,3.4c0.4,0,0.8-0.1,1.2-0.2l6.4,7.9l-15.7-3.9
		c-0.2-1.7-1.6-3.1-3.4-3.1c-1.9,0-3.4,1.5-3.4,3.4c0,1.9,1.5,3.4,3.4,3.4c1.2,0,2.2-0.6,2.8-1.5l15.7,3.9l-10.5,4.4
		c-0.6-0.7-1.5-1.1-2.5-1.1c-1.9,0-3.4,1.5-3.4,3.4c0,1.9,1.5,3.4,3.4,3.4c1.9,0,3.4-1.5,3.4-3.4c0-0.1,0-0.1,0-0.2l10.7-4.5
		c0.1,0.1,0.2,0.2,0.3,0.3L77.3,86c0,0,0,0-0.1,0c-1.9,0-3.4,1.5-3.4,3.4c0,1.9,1.5,3.4,3.4,3.4c1.9,0,3.4-1.5,3.4-3.4
		c0-1-0.5-2-1.2-2.6l2.3-6.2c0,0,0,0,0.1,0c1.9,0,3.4-1.5,3.4-3.4c0,0,0,0,0,0l15-5.4c0.6,0.8,1.6,1.2,2.6,1.2
		c1.9,0,3.4-1.5,3.4-3.4c0-1.9-1.5-3.4-3.4-3.4c-1,0-1.9,0.4-2.5,1.1l-15-6.3c0-0.1,0-0.1,0-0.2c0-1.9-1.5-3.4-3.4-3.4
		c-0.2,0-0.4,0-0.5,0l-2.1-4c-0.2-0.4-0.6-0.6-1-0.6h-6.5L53,46.5c0,0,0,0,0,0l-2.6-0.9l-1.5-4l2.7-2.6l6.2-1.2
		c0.4-0.1,0.7-0.3,0.8-0.7l1.5-3.8l5.1-1.5l1.9,2.6c-3,1.2-5.1,4.2-5.1,7.6c0,4.5,3.7,8.2,8.2,8.2s8.2-3.7,8.2-8.2
		c0-1.1-0.2-2.2-0.7-3.2h9.3l1.2,1.2c-0.2,0.4-0.3,0.9-0.3,1.4c0,1.9,1.5,3.4,3.4,3.4c1.2,0,2.2-0.6,2.8-1.5l8.9,2.3
		c0.1,1.7,1.6,3.1,3.4,3.1c1.9,0,3.4-1.5,3.4-3.4C109.8,43.6,108.3,42.1,106.4,42.1z"/>
	<g id="W_x5F_CIRCLES">
		<circle class="st0" cx="70.2" cy="42.1" r="5.9"/>
		<circle class="st0" cx="34.2" cy="45.1" r="1.1"/>
		<circle class="st0" cx="44.7" cy="53.6" r="1.1"/>
		<circle class="st0" cx="58.7" cy="56.2" r="1.1"/>
		<circle class="st0" cx="42.8" cy="38.5" r="1.1"/>
		<circle class="st0" cx="102.8" cy="69.6" r="1.1"/>
		<circle class="st0" cx="81.8" cy="77.2" r="1.1"/>
		<circle class="st0" cx="77.2" cy="89.4" r="1.1"/>
		<circle class="st0" cx="65.2" cy="84.1" r="1.1"/>
		<circle class="st0" cx="59.7" cy="71.6" r="1.1"/>
		<circle class="st0" cx="71.1" cy="64.2" r="1.1"/>
		<circle class="st0" cx="91.3" cy="41.5" r="1.1"/>
		<circle class="st0" cx="106.4" cy="45.5" r="1.1"/>
		<path class="st0" d="M83,60.7c0,0.6-0.5,1.1-1.1,1.1c-0.6,0-1.1-0.5-1.1-1.1s0.5-1.1,1.1-1.1C82.5,59.6,83,60.1,83,60.7z"/>
	</g>
</g>
</svg>
