<?xml version="1.0" encoding="utf-8"?>
<!-- Generator: Adobe Illustrator 28.2.0, SVG Export Plug-In . SVG Version: 6.00 Build 0)  -->
<svg version="1.1" id="Layer_1" xmlns="http://www.w3.org/2000/svg" xmlns:xlink="http://www.w3.org/1999/xlink" x="0px" y="0px"
	 viewBox="0 0 107.9 86.4" style="enable-background:new 0 0 107.9 86.4;" xml:space="preserve">
<path d="M81.7,28.4c-0.9,0-1.6,0.5-2.2,1.2l-6.8-1.8c-0.1-1.4-1.2-2.4-2.5-2.4c-0.4,0-0.8,0.1-1.2,0.2l-1.2-1.2
	c-0.1-0.2-0.4-0.2-0.6-0.2h-8.6c-1.2-1.3-2.8-2.1-4.7-2.1c-0.2,0-0.4,0-0.5,0.1l-2.2-3c-0.2-0.3-0.6-0.4-0.9-0.3l-4.9,1.4
	c-0.2,0.1-0.4,0.2-0.5,0.5l-1.1,2.9l-4.6,0.8c-0.2,0.1-0.3,0.1-0.4,0.2L36.4,27l-0.8-0.6c0.1-0.2,0.1-0.5,0.1-0.8
	c0-1.4-1.2-2.6-2.6-2.6c-1.4,0-2.6,1.2-2.6,2.6c0,1.4,1.2,2.6,2.6,2.6c0.5,0,1.1-0.1,1.5-0.4l1.7,1.3l0,0l0.3,0.8h-7.8
	c-0.4-1-1.4-1.7-2.5-1.7c-1.4,0-2.6,1.2-2.6,2.6c0,1.4,1.2,2.6,2.6,2.6c1.1,0,2.1-0.7,2.5-1.7H37l0.2,0.5c0.1,0.2,0.3,0.5,0.5,0.5
	l0.8,0.2l-2.8,2.1c-0.4-0.4-0.9-0.5-1.4-0.5c-1.4,0-2.6,1.2-2.6,2.6c0,1.4,1.2,2.6,2.6,2.6s2.6-1.2,2.6-2.6c0-0.2-0.1-0.5-0.1-0.8
	l3.8-2.8l1.6,0.5l1.2,3.2c-0.5,0.4-0.9,1.2-0.9,1.9c0,1.4,1.2,2.6,2.6,2.6c1.4,0,2.6-1.2,2.6-2.6c0-1.4-1.2-2.6-2.6-2.6H45l-0.7-1.7
	l10.2,3.5c0.1,0.1,0.2,0.1,0.2,0.1h4.7l1.4,2.6c-0.4,0.5-0.7,1.1-0.7,1.8c0,1.4,1.2,2.6,2.6,2.6c0.8,0,1.5-0.4,1.9-0.8l11.6,4.9v0.2
	l0,0l-11.6,4.1c-0.4-0.6-1.2-1-2-1c-0.3,0-0.6,0.1-0.9,0.2l-5.1-6.2c0.2-0.4,0.4-0.8,0.4-1.3c0-1.4-1.2-2.6-2.6-2.6
	c-1.4,0-2.6,1.2-2.6,2.6c0,1.4,1.2,2.6,2.6,2.6c0.3,0,0.6-0.1,0.9-0.2l5,6l-12.1-3.1c-0.1-1.3-1.2-2.4-2.5-2.4
	c-1.4,0-2.6,1.2-2.6,2.6c0,1.4,1.2,2.6,2.6,2.6c0.9,0,1.7-0.5,2.2-1.2l12.1,3l-8,3.4c-0.5-0.5-1.2-0.8-2-0.8c-1.4,0-2.6,1.2-2.6,2.6
	c0,1.4,1.2,2.6,2.6,2.6c1.4,0,2.6-1.2,2.6-2.6v-0.1l8.2-3.5l0.2,0.2l-1.8,4.8h-0.1c-1.4,0-2.6,1.2-2.6,2.6c0,1.4,1.2,2.6,2.6,2.6
	c1.4,0,2.6-1.2,2.6-2.6c0-0.8-0.4-1.5-1-2l1.8-4.8h0.1c1.4,0,2.6-1.2,2.6-2.6l0,0l11.5-4.1c0.4,0.6,1.2,1,2,1c1.4,0,2.6-1.2,2.6-2.6
	c0-1.4-1.2-2.6-2.6-2.6c-0.8,0-1.5,0.4-2,0.8l-11.5-4.9v-0.1c0-1.4-1.2-2.6-2.6-2.6c-0.1,0-0.2,0-0.4,0.1l-1.5-3
	c-0.1-0.3-0.4-0.5-0.8-0.5h-5l-14.3-4.8l0,0l-1.9-0.7l-1.2-3l2.1-2l4.7-0.9c0.3-0.1,0.5-0.2,0.7-0.5l1.1-2.9l3.9-1.1l1.5,1.9
	c-2.2,1-3.9,3.2-3.9,5.9c0,3.4,2.9,6.3,6.3,6.3s6.3-2.8,6.3-6.3c0-0.8-0.2-1.7-0.5-2.5h7.1l0.9,0.9c-0.1,0.4-0.2,0.7-0.2,1.1
	c0,1.4,1.2,2.6,2.6,2.6c0.9,0,1.6-0.5,2.2-1.2l6.8,1.8c0.1,1.4,1.2,2.4,2.5,2.4c1.4,0,2.6-1.2,2.6-2.6
	C84.3,29.7,83.2,28.4,81.7,28.4z M32.3,26.3c-0.4-0.3-0.5-0.8-0.2-1.2c0.3-0.4,0.8-0.5,1.2-0.2l0.1,0.1c0.2,0.2,0.2,0.4,0.2,0.7
	c0,0.5-0.4,0.8-0.8,0.8C32.7,26.4,32.5,26.4,32.3,26.3C32.4,26.4,32.3,26.3,32.3,26.3z M26.3,31.5c-0.5,0-0.8-0.4-0.8-0.8
	s0.4-0.8,0.8-0.8h0.1c0.5,0.1,0.8,0.4,0.8,0.8S26.8,31.5,26.3,31.5L26.3,31.5z M34.8,37.9c-0.1,0.1-0.4,0.2-0.5,0.2
	c-0.2,0-0.5-0.1-0.7-0.4c-0.3-0.4-0.2-0.9,0.1-1.2c0.1,0,0.1-0.1,0.1-0.1c0.2-0.1,0.3-0.1,0.5-0.1c0.5,0,0.8,0.4,0.8,0.8
	c0,0.2-0.1,0.4-0.2,0.6L34.8,37.9z M45,38.4c0.4,0,0.6,0.2,0.8,0.5c0,0,0,0.1,0.1,0.1c0.2,0.5-0.1,1-0.5,1.1
	c-0.1,0.1-0.2,0.1-0.3,0.1c-0.4,0-0.7-0.2-0.8-0.5l-0.1-0.1c0-0.1-0.1-0.2-0.1-0.2C44.2,38.7,44.5,38.4,45,38.4z M53.9,45.9
	c-0.3-0.4-0.2-0.9,0.1-1.2c0.4-0.3,0.9-0.2,1.2,0.1l0.1,0.1c0.1,0.2,0.2,0.3,0.2,0.5c0,0.5-0.4,0.8-0.8,0.8
	C54.4,46.2,54.1,46.2,53.9,45.9L53.9,45.9z M45.6,51.9c-0.5-0.1-0.8-0.6-0.6-1.1c0.1-0.4,0.6-0.8,1.1-0.6l0.1,0.1
	c0.3,0.2,0.5,0.5,0.5,0.8c0,0.5-0.4,0.8-0.8,0.8h-0.1C45.7,51.9,45.6,51.9,45.6,51.9z M50.4,61.5c-0.1,0.1-0.2,0.1-0.3,0.1
	c-0.4,0-0.7-0.2-0.8-0.5c-0.2-0.4,0-1,0.5-1.1l0.1-0.1c0.1,0,0.2-0.1,0.2-0.1c0.5,0,0.8,0.4,0.8,0.8c0,0.4-0.2,0.6-0.5,0.8
	C50.5,61.5,50.4,61.5,50.4,61.5z M60.1,65c-0.2,0.4-0.5,0.5-0.8,0.5c-0.1,0-0.2,0-0.3-0.1c-0.5-0.2-0.7-0.7-0.5-1.1l0.1-0.1
	c0.2-0.3,0.4-0.5,0.8-0.5c0.5,0,0.8,0.4,0.8,0.8v0.2C60.1,64.8,60.1,65,60.1,65z M61.9,55.3c0-0.5,0.4-0.8,0.8-0.8
	c0.5,0,0.8,0.4,0.8,0.8c0,0.5-0.4,0.8-0.8,0.8C62.2,56.1,61.9,55.8,61.9,55.3z M79.2,48.6c0.3,0.2,0.5,0.5,0.5,0.8s-0.2,0.7-0.5,0.8
	l-0.1,0.1H79c-0.5,0-0.8-0.4-0.8-0.8c0-0.5,0.4-0.8,0.8-0.8C79,48.6,79,48.6,79.2,48.6L79.2,48.6z M62.8,41.8c0.5,0,0.8,0.4,0.8,0.8
	c0,0.5-0.4,0.8-0.8,0.8c-0.1,0-0.1,0-0.2-0.1c-0.1,0-0.1-0.1-0.1-0.1c-0.1-0.1-0.3-0.2-0.4-0.4H62c-0.1-0.1-0.1-0.2-0.1-0.3
	C61.9,42.3,62.3,41.8,62.8,41.8z M58.4,28.4c0,2.5-2,4.6-4.6,4.6c-2.5,0-4.6-2-4.6-4.6c0-2.1,1.3-3.8,3.2-4.3
	c0.4-0.1,0.8-0.2,1.3-0.2c0.2,0,0.5,0.1,0.8,0.1c0.4,0.1,0.7,0.1,1.1,0.3c0.8,0.4,1.6,1,2,1.7C58.2,26.7,58.4,27.5,58.4,28.4z
	 M69.9,28.8c-0.1-0.1-0.2-0.1-0.4-0.2l-0.1-0.1c-0.1-0.2-0.2-0.4-0.2-0.5c0-0.5,0.4-0.8,0.8-0.8c0.5,0,0.8,0.4,0.8,0.8
	c0,0.5-0.4,0.8-0.8,0.8H69.9C70,28.8,69.9,28.8,69.9,28.8z M80.8,31c0-0.5,0.4-0.8,0.8-0.8h0.1l0.1,0.1c0.4,0.1,0.8,0.6,0.6,1
	c-0.1,0.5-0.6,0.8-1,0.6h-0.1C81.1,31.7,80.8,31.4,80.8,31z"/>
</svg>
