<svg width="204" height="96" viewBox="0 0 204 96" fill="none" xmlns="http://www.w3.org/2000/svg">
<g clip-path="url(#clip0_715_1703)">
<path d="M192.334 95.0195H11.0051C4.92721 95.0195 0 90.0881 0 84.0047V11.0148C0 4.93157 4.92711 0 11.0051 0H192.334C198.412 0 203.339 4.93148 203.339 11.0148V84.0047C203.339 90.0881 198.412 95.0195 192.334 95.0195Z" fill="#E0E0E0"/>
<path d="M14.7603 68.2949V59.5908H16.0868V60.9103C16.4251 60.293 16.7379 59.8858 17.0244 59.6891C17.311 59.4923 17.6263 59.394 17.9702 59.394C18.4668 59.394 18.9718 59.5527 19.4851 59.8694L18.9774 61.2381C18.6171 61.025 18.2568 60.9185 17.8965 60.9185C17.5742 60.9185 17.2849 61.0157 17.0285 61.2095C16.7717 61.4036 16.5889 61.6726 16.4798 62.0168C16.316 62.5414 16.2342 63.1151 16.2342 63.7379V68.2949H14.7603Z" fill="black"/>
<path d="M38.0539 65.4919L39.577 65.6804C39.3366 66.5712 38.8918 67.2622 38.2422 67.754C37.5924 68.2457 36.7627 68.4916 35.7529 68.4916C34.4806 68.4916 33.4723 68.0996 32.7272 67.3154C31.982 66.5316 31.6094 65.4318 31.6094 64.0166C31.6094 62.5525 31.9861 61.4158 32.7394 60.607C33.4927 59.7987 34.4698 59.394 35.6709 59.394C36.8337 59.394 37.7835 59.7904 38.5206 60.5825C39.2575 61.3748 39.6261 62.4895 39.6261 63.9264C39.6261 64.014 39.6231 64.1452 39.6179 64.3198H33.1324C33.1868 65.2761 33.457 66.0082 33.943 66.5164C34.4288 67.0245 35.0348 67.2786 35.761 67.2786C36.3014 67.2786 36.7626 67.1366 37.1449 66.8523C37.5268 66.5685 37.8299 66.1147 38.0539 65.4919ZM33.2143 63.1068H38.0703C38.0048 62.3747 37.819 61.8257 37.5134 61.4595C37.0437 60.8913 36.4351 60.6071 35.6873 60.6071C35.0103 60.6071 34.4412 60.834 33.98 61.2874C33.5185 61.7411 33.2635 62.3476 33.2143 63.1068Z" fill="black"/>
<path d="M53.167 71.6307V59.5907H54.5099V60.7218C54.8263 60.2792 55.184 59.9473 55.5826 59.726C55.9809 59.5046 56.464 59.394 57.032 59.394C57.7742 59.394 58.4293 59.5855 58.9973 59.9677C59.565 60.3504 59.9934 60.8898 60.283 61.5864C60.5722 62.2831 60.7169 63.0468 60.7169 63.8772C60.7169 64.7679 60.5572 65.5696 60.2379 66.2826C59.9186 66.9957 59.4543 67.5422 58.8459 67.9219C58.2369 68.3015 57.5971 68.4915 56.9256 68.4915C56.4343 68.4915 55.9933 68.3875 55.6031 68.18C55.2126 67.9725 54.8918 67.7102 54.641 67.3932V71.6306L53.167 71.6307ZM54.5018 63.992C54.5018 65.1122 54.728 65.9401 55.1814 66.4754C55.6345 67.0111 56.1831 67.2786 56.8274 67.2786C57.4825 67.2786 58.0434 67.0014 58.5102 66.4467C58.9769 65.8924 59.2104 65.0329 59.2104 63.8691C59.2104 62.7601 58.9822 61.9296 58.5266 61.3776C58.0706 60.8258 57.5261 60.5497 56.8929 60.5497C56.265 60.5497 55.7096 60.8437 55.2265 61.4308C54.7433 62.0182 54.5018 62.8721 54.5018 63.992Z" fill="black"/>
<path d="M73.6846 63.9429C73.6846 62.3313 74.132 61.1372 75.0275 60.3612C75.7753 59.7167 76.6868 59.394 77.7625 59.394C78.9581 59.394 79.9352 59.7864 80.6941 60.5702C81.4527 61.3543 81.8323 62.4378 81.8323 63.8198C81.8323 64.9401 81.6644 65.8212 81.3287 66.463C80.9929 67.1053 80.5042 67.6038 79.8629 67.9587C79.2212 68.3138 78.5211 68.4915 77.7625 68.4915C76.5449 68.4915 75.5608 68.1011 74.8104 67.3194C74.0597 66.5384 73.6846 65.4129 73.6846 63.9429ZM75.1995 63.9429C75.1995 65.0575 75.4421 65.8924 75.9283 66.4467C76.414 67.0014 77.0256 67.2786 77.7625 67.2786C78.494 67.2786 79.1026 67 79.5887 66.4427C80.0744 65.8854 80.3175 65.0359 80.3175 63.8937C80.3175 62.8174 80.0729 62.002 79.5846 61.4472C79.0959 60.8928 78.4885 60.6153 77.7626 60.6153C77.0257 60.6153 76.4141 60.8913 75.9284 61.4431C75.4421 61.9953 75.1995 62.8283 75.1995 63.9429Z" fill="black"/>
<path d="M95.2832 68.2949V59.5908H96.6098V60.9103C96.9481 60.293 97.2608 59.8858 97.5473 59.6891C97.834 59.4923 98.1492 59.394 98.4931 59.394C98.9897 59.394 99.4948 59.5527 100.008 59.8694L99.5004 61.2381C99.14 61.025 98.7798 60.9185 98.4194 60.9185C98.0971 60.9185 97.8079 61.0157 97.5514 61.2095C97.2946 61.4036 97.1118 61.6726 97.0028 62.0168C96.839 62.5414 96.7572 63.1151 96.7572 63.7379V68.2949H95.2832Z" fill="black"/>
<path d="M115.842 66.9752L116.055 68.2784C115.64 68.3655 115.269 68.4095 114.941 68.4095C114.406 68.4095 113.991 68.3246 113.696 68.1554C113.402 67.9862 113.194 67.7635 113.074 67.4874C112.954 67.2118 112.894 66.6309 112.894 65.7458V60.738H111.813V59.5905H112.894V57.435L114.36 56.5498V59.5905H115.842V60.738H114.36V65.8277C114.36 66.2487 114.385 66.5192 114.437 66.6391C114.489 66.7594 114.574 66.8552 114.691 66.926C114.809 66.9971 114.976 67.0325 115.195 67.0325C115.359 67.0326 115.574 67.0137 115.842 66.9752Z" fill="black"/>
<path d="M12.916 51.1625V23.855H31.6197V28.4745H18.4248V34.9382H29.8146V39.5577H18.4248V51.1625H12.916Z" fill="black"/>
<path d="M36.1792 51.1625V23.855H47.7737C50.6892 23.855 52.8078 24.1001 54.1292 24.5911C55.4506 25.0814 56.5081 25.9539 57.3024 27.2079C58.0964 28.4627 58.4935 29.8969 58.4935 31.5108C58.4935 33.5598 57.8916 35.2519 56.6883 36.5872C55.4845 37.9216 53.6856 38.7635 51.2911 39.1108C52.4822 39.8067 53.4652 40.5705 54.2409 41.4019C55.0162 42.2342 56.0614 43.7117 57.3768 45.8352L60.7081 51.1626H54.1199L50.1373 45.2205C48.7228 43.097 47.7551 41.7588 47.234 41.2067C46.713 40.6538 46.1606 40.2753 45.5777 40.0697C44.9944 39.8656 44.0702 39.7628 42.8047 39.7628H41.688V51.1625H36.1792ZM41.688 35.4038H45.7637C48.4064 35.4038 50.0564 35.2921 50.7142 35.0686C51.3715 34.845 51.8866 34.4605 52.2589 33.9137C52.6311 33.3675 52.8172 32.6843 52.8172 31.8647C52.8172 30.946 52.572 30.2039 52.0821 29.6383C51.5918 29.0735 50.9002 28.7167 50.007 28.5677C49.5604 28.5058 48.2204 28.4745 45.9872 28.4745H41.688L41.688 35.4038Z" fill="black"/>
<path d="M62.5693 37.6763C62.5693 34.8949 62.9847 32.5605 63.8162 30.6724C64.4363 29.2821 65.2831 28.034 66.3566 26.9283C67.4297 25.8234 68.6051 25.0038 69.8833 24.4695C71.5829 23.7497 73.5433 23.3892 75.7644 23.3892C79.7842 23.3892 83.0006 24.6372 85.414 27.1332C87.8271 29.6293 89.0338 33.1007 89.0338 37.5458C89.0338 41.9545 87.8365 45.4036 85.442 47.8929C83.0471 50.383 79.8461 51.628 75.8389 51.628C71.7817 51.628 68.5558 50.3888 66.1613 47.9122C63.7663 45.4341 62.5693 42.0231 62.5693 37.6763ZM68.2456 37.49C68.2456 40.5821 68.9588 42.9262 70.3858 44.5222C71.8124 46.1175 73.624 46.9155 75.8201 46.9155C78.0162 46.9155 79.8181 46.1242 81.2265 44.5401C82.6346 42.9575 83.3388 40.5822 83.3388 37.4155C83.3388 34.2862 82.6532 31.9518 81.2823 30.4117C79.9111 28.8723 78.0905 28.1018 75.8201 28.1018C73.5496 28.1018 71.7195 28.8812 70.33 30.44C68.9402 31.998 68.2456 34.3487 68.2456 37.49Z" fill="black"/>
<path d="M106.025 41.1223V36.5214H117.899V47.3997C116.745 48.5173 115.073 49.5016 112.883 50.3518C110.693 51.2027 108.476 51.6282 106.23 51.6282C103.376 51.6282 100.889 51.0291 98.7673 49.8303C96.6457 48.6322 95.0511 46.9185 93.9843 44.6891C92.9172 42.4606 92.3838 40.036 92.3838 37.4155C92.3838 34.5723 92.9794 32.0449 94.1704 29.8343C95.3615 27.6244 97.1046 25.9293 99.4001 24.749C101.149 23.843 103.327 23.3892 105.932 23.3892C109.32 23.3892 111.965 24.1 113.87 25.5223C115.774 26.9439 116.999 28.9095 117.545 31.4174L112.074 32.4419C111.689 31.1008 110.967 30.042 109.906 29.2656C108.845 28.4899 107.52 28.1017 105.932 28.1017C103.525 28.1017 101.611 28.8655 100.191 30.3929C98.7703 31.9204 98.0602 34.1869 98.0602 37.1918C98.0602 40.433 98.7797 42.8635 100.219 44.4848C101.658 46.1045 103.544 46.9153 105.877 46.9153C107.031 46.9153 108.187 46.6888 109.348 46.2357C110.507 45.7819 111.503 45.2329 112.335 44.5868V41.1222L106.025 41.1223Z" fill="black"/>
<path d="M158.84 36.8479C162.302 36.8479 165.108 34.0393 165.108 30.5748C165.108 27.1103 162.302 24.3018 158.84 24.3018C155.379 24.3018 152.573 27.1103 152.573 30.5748C152.573 34.0393 155.379 36.8479 158.84 36.8479Z" fill="white"/>
<path d="M126.853 35.2108C127.966 35.2108 128.868 34.3079 128.868 33.194C128.868 32.0802 127.966 31.1772 126.853 31.1772C125.741 31.1772 124.838 32.0802 124.838 33.194C124.838 34.3079 125.741 35.2108 126.853 35.2108Z" fill="white"/>
<path d="M136.128 42.7806C137.241 42.7806 138.143 41.8777 138.143 40.7639C138.143 39.65 137.241 38.7471 136.128 38.7471C135.015 38.7471 134.113 39.65 134.113 40.7639C134.113 41.8777 135.015 42.7806 136.128 42.7806Z" fill="white"/>
<path d="M148.549 45.1014C149.662 45.1014 150.564 44.1985 150.564 43.0847C150.564 41.9708 149.662 41.0679 148.549 41.0679C147.436 41.0679 146.534 41.9708 146.534 43.0847C146.534 44.1985 147.436 45.1014 148.549 45.1014Z" fill="white"/>
<path d="M134.472 29.3539C135.584 29.3539 136.487 28.4509 136.487 27.3371C136.487 26.2233 135.584 25.3203 134.472 25.3203C133.359 25.3203 132.457 26.2233 132.457 27.3371C132.457 28.4509 133.359 29.3539 134.472 29.3539Z" fill="white"/>
<path d="M187.723 56.9804C188.836 56.9804 189.738 56.0774 189.738 54.9636C189.738 53.8497 188.836 52.9468 187.723 52.9468C186.611 52.9468 185.708 53.8497 185.708 54.9636C185.708 56.0774 186.611 56.9804 187.723 56.9804Z" fill="white"/>
<path d="M169.092 63.7474C170.205 63.7474 171.107 62.8445 171.107 61.7307C171.107 60.6168 170.205 59.7139 169.092 59.7139C167.979 59.7139 167.077 60.6168 167.077 61.7307C167.077 62.8445 167.979 63.7474 169.092 63.7474Z" fill="white"/>
<path d="M165.062 74.6254C166.175 74.6254 167.077 73.7224 167.077 72.6086C167.077 71.4947 166.175 70.5918 165.062 70.5918C163.949 70.5918 163.047 71.4947 163.047 72.6086C163.047 73.7224 163.949 74.6254 165.062 74.6254Z" fill="white"/>
<path d="M154.365 69.9472C155.478 69.9472 156.38 69.0442 156.38 67.9304C156.38 66.8165 155.478 65.9136 154.365 65.9136C153.252 65.9136 152.35 66.8165 152.35 67.9304C152.35 69.0442 153.252 69.9472 154.365 69.9472Z" fill="white"/>
<path d="M149.472 58.8324C150.584 58.8324 151.487 57.9295 151.487 56.8156C151.487 55.7018 150.584 54.7988 149.472 54.7988C148.359 54.7988 147.457 55.7018 147.457 56.8156C147.457 57.9295 148.359 58.8324 149.472 58.8324Z" fill="white"/>
<path d="M159.638 52.2206C160.751 52.2206 161.653 51.3176 161.653 50.2038C161.653 49.09 160.751 48.187 159.638 48.187C158.525 48.187 157.623 49.09 157.623 50.2038C157.623 51.3176 158.525 52.2206 159.638 52.2206Z" fill="white"/>
<path d="M177.587 32.0624C178.7 32.0624 179.602 31.1594 179.602 30.0456C179.602 28.9318 178.7 28.0288 177.587 28.0288C176.474 28.0288 175.572 28.9318 175.572 30.0456C175.572 31.1594 176.474 32.0624 177.587 32.0624Z" fill="white"/>
<path d="M190.98 35.5892C192.093 35.5892 192.995 34.6863 192.995 33.5724C192.995 32.4586 192.093 31.5557 190.98 31.5557C189.867 31.5557 188.965 32.4586 188.965 33.5724C188.965 34.6863 189.867 35.5892 190.98 35.5892Z" fill="white"/>
<path d="M169.138 49.1351C170.251 49.1351 171.153 48.2322 171.153 47.1183C171.153 46.0045 170.251 45.1016 169.138 45.1016C168.025 45.1016 167.123 46.0045 167.123 47.1183C167.123 48.2322 168.025 49.1351 169.138 49.1351Z" fill="white"/>
<path d="M190.98 30.5521C189.943 30.5521 189.027 31.0785 188.483 31.8782L180.592 29.7995C180.466 28.249 179.168 27.0252 177.587 27.0252C177.108 27.0252 176.657 27.1404 176.254 27.3399L174.896 26.0118C174.709 25.8286 174.458 25.7261 174.196 25.7261H164.246C162.914 24.2401 160.987 23.2983 158.84 23.2983C158.619 23.2983 158.4 23.312 158.184 23.3316L155.53 19.7926C155.28 19.4585 154.849 19.3154 154.449 19.4313L148.816 21.0678C148.516 21.1549 148.274 21.3777 148.161 21.6697L146.89 24.963L141.636 25.9834C141.45 26.0197 141.277 26.1082 141.139 26.2389L138.308 28.9147L137.358 28.2154C137.442 27.9373 137.489 27.6426 137.489 27.3371C137.489 25.6719 136.135 24.3172 134.472 24.3172C132.808 24.3172 131.454 25.6719 131.454 27.3371C131.454 29.0022 132.808 30.3569 134.472 30.3569C135.101 30.3569 135.686 30.1624 136.17 29.8312L138.163 31.2974L138.173 31.3245L138.499 32.1908H129.696C129.281 31.0178 128.165 30.1739 126.854 30.1739C125.19 30.1739 123.836 31.5285 123.836 33.1941C123.836 34.8591 125.19 36.2138 126.854 36.2138C128.165 36.2138 129.281 35.37 129.696 34.1972H139.256L139.505 34.8575C139.611 35.1389 139.838 35.358 140.123 35.454L141.072 35.774L137.795 38.2486C137.317 37.9303 136.744 37.7437 136.128 37.7437C134.464 37.7437 133.11 39.0984 133.11 40.7639C133.11 42.429 134.464 43.7837 136.128 43.7837C137.792 43.7837 139.145 42.429 139.145 40.7639C139.145 40.4453 139.095 40.1385 139.003 39.8498L143.373 36.5499L145.176 37.1577L146.586 40.7954C145.942 41.3497 145.532 42.1693 145.532 43.0846C145.532 44.7497 146.885 46.1044 148.549 46.1044C150.213 46.1044 151.566 44.7497 151.566 43.0846C151.566 41.4192 150.213 40.0644 148.549 40.0644C148.517 40.0644 148.487 40.0682 148.455 40.0692L147.65 37.9917L159.593 42.0184C159.696 42.0533 159.804 42.0709 159.913 42.0709H165.285L166.909 45.0899C166.421 45.6266 166.121 46.3371 166.121 47.1182C166.121 48.7833 167.474 50.1379 169.138 50.1379C170.02 50.1379 170.813 49.7542 171.366 49.1474L184.716 54.7824C184.712 54.8427 184.706 54.9023 184.706 54.9635C184.706 54.9729 184.708 54.9821 184.708 54.9915L171.424 59.8166C170.87 59.1419 170.031 58.7106 169.092 58.7106C168.73 58.7106 168.385 58.778 168.063 58.8952L162.216 51.7653C162.493 51.3089 162.656 50.7754 162.656 50.2033C162.656 48.5382 161.302 47.1836 159.638 47.1836C157.975 47.1836 156.621 48.5382 156.621 50.2033C156.621 51.8687 157.975 53.2235 159.638 53.2235C160 53.2235 160.345 53.1562 160.667 53.0389L166.393 60.0204L152.475 56.5336C152.332 55.0003 151.041 53.7956 149.472 53.7956C147.808 53.7956 146.455 55.1502 146.455 56.8153C146.455 58.4808 147.808 59.8355 149.472 59.8355C150.521 59.8355 151.447 59.2957 151.987 58.4795L165.931 61.9727L156.595 65.9029C156.043 65.2949 155.249 64.9102 154.365 64.9102C152.702 64.9102 151.348 66.2649 151.348 67.93C151.348 69.5954 152.702 70.9502 154.365 70.9502C156.029 70.9502 157.383 69.5955 157.383 67.93C157.383 67.8699 157.377 67.8111 157.374 67.7519L166.862 63.7575C166.957 63.8614 167.056 63.9605 167.164 64.0505L165.111 69.5905C165.095 69.5903 165.079 69.588 165.062 69.588C163.398 69.588 162.045 70.9427 162.045 72.6082C162.045 74.2733 163.399 75.628 165.062 75.628C166.726 75.628 168.08 74.2733 168.08 72.6082C168.08 71.6763 167.655 70.8422 166.991 70.2878L169.043 64.7478C169.06 64.7481 169.076 64.7503 169.092 64.7503C170.756 64.7503 172.11 63.3956 172.11 61.7305C172.11 61.7209 172.108 61.7116 172.108 61.702L185.392 56.8773C185.946 57.5521 186.785 57.9835 187.724 57.9835C189.387 57.9835 190.741 56.6288 190.741 54.9633C190.741 53.2982 189.387 51.9435 187.724 51.9435C186.841 51.9435 186.048 52.3272 185.496 52.9341L172.146 47.299C172.149 47.2388 172.155 47.1791 172.155 47.118C172.155 45.4526 170.802 44.0978 169.138 44.0978C168.98 44.0978 168.825 44.1137 168.673 44.1374L166.766 40.5921C166.592 40.2668 166.253 40.0642 165.884 40.0642H160.078L143.518 34.4811C143.517 34.481 143.518 34.4812 143.518 34.4811L141.213 33.7041L139.885 30.1835L142.304 27.8973L147.816 26.8267C148.155 26.7611 148.436 26.5255 148.56 26.2034L149.852 22.8558L154.343 21.551L156.067 23.8509C153.431 24.9443 151.57 27.5449 151.57 30.5741C151.57 34.5862 154.832 37.8504 158.84 37.8504C162.849 37.8504 166.11 34.5861 166.11 30.5741C166.11 29.5662 165.904 28.6059 165.532 27.7322H173.787L174.853 28.7748C174.673 29.1616 174.57 29.591 174.57 30.045C174.57 31.7101 175.923 33.0648 177.587 33.0648C178.623 33.0648 179.539 32.5388 180.083 31.7399L187.975 33.819C188.101 35.3686 189.399 36.5917 190.98 36.5917C192.643 36.5917 193.997 35.237 193.997 33.5719C193.997 31.9068 192.644 30.5521 190.98 30.5521ZM133.859 28.1281C133.431 27.7961 133.342 27.1823 133.664 26.7431C133.992 26.2965 134.619 26.2 135.065 26.5289L135.164 26.6017C135.36 26.7866 135.484 27.047 135.484 27.3371C135.484 27.896 135.03 28.3505 134.472 28.3505C134.287 28.3505 134.115 28.2969 133.966 28.2096C133.927 28.1869 133.895 28.1555 133.859 28.1281ZM126.854 34.1973C126.3 34.1973 125.851 33.7482 125.851 33.1941C125.851 32.6399 126.3 32.1908 126.854 32.1908H126.958C127.467 32.244 127.866 32.671 127.866 33.1941C127.866 33.7184 127.465 34.1459 126.954 34.1973H126.854ZM136.732 41.5649C136.551 41.7013 136.339 41.7671 136.129 41.7671C135.825 41.7671 135.525 41.6296 135.328 41.3682C134.999 40.9314 135.082 40.3139 135.509 39.9769C135.544 39.9497 135.575 39.9185 135.613 39.8959C135.765 39.8055 135.939 39.7501 136.128 39.7501C136.686 39.7501 137.14 40.2051 137.14 40.7639C137.14 41.045 137.025 41.2995 136.84 41.4832L136.732 41.5649ZM148.549 42.0708C148.941 42.0708 149.277 42.297 149.446 42.6236C149.462 42.6551 149.471 42.6904 149.484 42.7236C149.683 43.2396 149.427 43.8195 148.912 44.0199C148.793 44.0661 148.67 44.0881 148.55 44.0881C148.148 44.0881 147.769 43.8447 147.615 43.4474L147.573 43.3398C147.551 43.2578 147.536 43.1732 147.536 43.0846C147.536 42.5258 147.991 42.0708 148.549 42.0708ZM158.864 50.8398C158.512 50.4115 158.575 49.7794 159.002 49.4279C159.43 49.0764 160.062 49.1383 160.413 49.5671L160.492 49.6633C160.591 49.82 160.651 50.0045 160.651 50.2034C160.651 50.7622 160.197 51.2172 159.638 51.2172C159.368 51.2172 159.124 51.1093 158.943 50.9364L158.864 50.8398ZM149.228 57.7885C148.692 57.6541 148.365 57.1094 148.5 56.5717C148.634 56.0345 149.178 55.7057 149.715 55.8425L149.837 55.8728C150.215 56.02 150.484 56.3858 150.484 56.8154C150.484 57.3743 150.03 57.8292 149.472 57.8292C149.426 57.8292 149.381 57.8215 149.336 57.8155L149.228 57.7885ZM154.745 68.8575C154.621 68.9085 154.493 68.9338 154.366 68.9338C153.975 68.9338 153.603 68.7029 153.441 68.3189C153.227 67.8084 153.466 67.2201 153.977 67.0054L154.072 66.9652C154.166 66.9367 154.263 66.9168 154.365 66.9168C154.924 66.9168 155.378 67.3714 155.378 67.9302C155.378 68.3116 155.164 68.6407 154.852 68.8137C154.818 68.8322 154.781 68.8425 154.745 68.8575ZM166.002 72.9572C165.852 73.3616 165.469 73.6121 165.062 73.6121C164.946 73.6121 164.828 73.5917 164.714 73.549C164.195 73.3566 163.93 72.7794 164.123 72.2598L164.161 72.1567C164.327 71.825 164.667 71.5948 165.062 71.5948C165.621 71.5948 166.075 72.0497 166.075 72.6086C166.075 72.6849 166.065 72.7587 166.049 72.8302L166.002 72.9572ZM168.08 61.7308C168.08 61.1719 168.534 60.717 169.092 60.717C169.65 60.717 170.105 61.1719 170.105 61.7308C170.105 62.2896 169.65 62.7442 169.092 62.7442C168.534 62.7442 168.08 62.2896 168.08 61.7308ZM188.113 54.0391C188.493 54.1994 188.736 54.5763 188.726 54.9889C188.715 55.4016 188.453 55.7656 188.065 55.9063L187.927 55.9567C187.861 55.9701 187.793 55.9773 187.724 55.9773C187.165 55.9773 186.711 55.5223 186.711 54.9635C186.711 54.4046 187.165 53.9501 187.724 53.9501C187.827 53.9501 187.925 53.9702 188.019 53.999L188.113 54.0391ZM169.138 46.1044C169.696 46.1044 170.15 46.5593 170.15 47.1182C170.15 47.677 169.696 48.1315 169.138 48.1315C169.035 48.1315 168.937 48.1115 168.843 48.0825C168.805 48.0708 168.77 48.0511 168.734 48.0352C168.53 47.9451 168.361 47.7906 168.255 47.5935L168.196 47.4833C168.152 47.3696 168.125 47.2472 168.125 47.1182C168.125 46.5593 168.58 46.1044 169.138 46.1044ZM164.106 30.5744C164.106 33.4801 161.744 35.8443 158.84 35.8443C155.937 35.8443 153.575 33.4801 153.575 30.5744C153.575 28.1957 155.159 26.1822 157.326 25.5293C157.806 25.3846 158.314 25.3047 158.84 25.3047C159.142 25.3047 159.436 25.336 159.723 25.3849C160.134 25.4547 160.529 25.567 160.902 25.7262C161.877 26.1433 162.699 26.8487 163.268 27.7326C163.795 28.5535 164.106 29.5276 164.106 30.5744ZM177.332 31.0156C177.164 30.9713 177.011 30.8843 176.887 30.7628L176.814 30.6916C176.667 30.5156 176.575 30.2921 176.575 30.0453C176.575 29.4864 177.029 29.0315 177.587 29.0315C178.145 29.0315 178.6 29.4864 178.6 30.0453C178.6 30.6041 178.145 31.0587 177.587 31.0587C177.536 31.0587 177.487 31.0509 177.438 31.0436L177.332 31.0156ZM189.967 33.5723C189.967 33.0134 190.422 32.5585 190.98 32.5585C191.028 32.5585 191.073 32.5661 191.119 32.5726L191.235 32.6031C191.77 32.7442 192.09 33.2928 191.949 33.8289C191.808 34.3642 191.261 34.6824 190.725 34.5437L190.614 34.5146C190.237 34.3674 189.967 34.0017 189.967 33.5723Z" fill="black"/>
</g>
<defs>
<clipPath id="clip0_715_1703">
<rect width="203.339" height="95.0195" fill="white"/>
</clipPath>
</defs>
</svg>
