<?xml version="1.0" encoding="utf-8"?>
<!-- Generator: Adobe Illustrator 27.0.0, SVG Export Plug-In . SVG Version: 6.00 Build 0)  -->
<svg version="1.1" id="Layer_1" xmlns="http://www.w3.org/2000/svg" xmlns:xlink="http://www.w3.org/1999/xlink" x="0px" y="0px"
	 viewBox="0 0 204 96" style="enable-background:new 0 0 204 96;" xml:space="preserve">
<path d="M114.6,19.1c-1.8,0-3.3,0.9-4.3,2.3l-13.5-3.5c-0.2-2.6-2.4-4.7-5.1-4.7c-0.8,0-1.6,0.2-2.3,0.5l-2.3-2.3
	c-0.3-0.3-0.7-0.5-1.2-0.5H69c-2.3-2.5-5.6-4.1-9.2-4.1c-0.4,0-0.8,0-1.1,0.1l-4.5-6c-0.4-0.6-1.2-0.8-1.8-0.6l-9.6,2.8
	c-0.5,0.1-0.9,0.5-1.1,1l-2.2,5.6l-9,1.7c-0.3,0.1-0.6,0.2-0.8,0.4l-4.8,4.6l-1.6-1.2c0.1-0.5,0.2-1,0.2-1.5c0-2.8-2.3-5.2-5.2-5.2
	c-2.8,0-5.2,2.3-5.2,5.2c0,2.8,2.3,5.2,5.2,5.2c1.1,0,2.1-0.3,2.9-0.9l3.4,2.5l0,0l0.6,1.5H10c-0.7-2-2.6-3.4-4.9-3.4
	c-2.8,0-5.2,2.3-5.2,5.2c0,2.8,2.3,5.2,5.2,5.2c2.2,0,4.1-1.4,4.9-3.4h16.3l0.4,1.1c0.2,0.5,0.6,0.9,1.1,1l1.6,0.5l-5.6,4.2
	C23,31.6,22,31.3,21,31.3c-2.8,0-5.2,2.3-5.2,5.2c0,2.8,2.3,5.2,5.2,5.2s5.2-2.3,5.2-5.2c0-0.5-0.1-1.1-0.2-1.6l7.5-5.6l3.1,1
	l2.4,6.2c-1.1,0.9-1.8,2.3-1.8,3.9c0,2.8,2.3,5.2,5.2,5.2s5.2-2.3,5.2-5.2c0-2.8-2.3-5.2-5.2-5.2c-0.1,0-0.1,0-0.2,0l-1.4-3.5
	L61,38.6c0.2,0.1,0.4,0.1,0.5,0.1h9.2l2.8,5.2c-0.8,0.9-1.3,2.1-1.3,3.5c0,2.8,2.3,5.2,5.2,5.2c1.5,0,2.9-0.7,3.8-1.7l22.8,9.6
	c0,0.1,0,0.2,0,0.3c0,0,0,0,0,0L81.2,69c-0.9-1.2-2.4-1.9-4-1.9c-0.6,0-1.2,0.1-1.8,0.3l-10-12.2c0.5-0.8,0.8-1.7,0.8-2.7
	c0-2.8-2.3-5.2-5.2-5.2c-2.8,0-5.2,2.3-5.2,5.2c0,2.8,2.3,5.2,5.2,5.2c0.6,0,1.2-0.1,1.8-0.3l9.8,11.9l-23.8-6
	c-0.2-2.6-2.4-4.7-5.1-4.7c-2.8,0-5.2,2.3-5.2,5.2c0,2.8,2.3,5.2,5.2,5.2c1.8,0,3.4-0.9,4.3-2.3l23.8,6l-15.9,6.7
	c-0.9-1-2.3-1.7-3.8-1.7c-2.8,0-5.2,2.3-5.2,5.2c0,2.8,2.3,5.2,5.2,5.2c2.8,0,5.2-2.3,5.2-5.2c0-0.1,0-0.2,0-0.3l16.2-6.8
	c0.2,0.2,0.3,0.3,0.5,0.5l-3.5,9.5c0,0-0.1,0-0.1,0c-2.8,0-5.2,2.3-5.2,5.2c0,2.8,2.3,5.2,5.2,5.2c2.8,0,5.2-2.3,5.2-5.2
	c0-1.6-0.7-3-1.9-4l3.5-9.5c0,0,0.1,0,0.1,0c2.8,0,5.2-2.3,5.2-5.2c0,0,0,0,0,0l22.7-8.2c0.9,1.2,2.4,1.9,4,1.9
	c2.8,0,5.2-2.3,5.2-5.2c0-2.8-2.3-5.2-5.2-5.2c-1.5,0-2.9,0.7-3.8,1.7l-22.8-9.6c0-0.1,0-0.2,0-0.3c0-2.8-2.3-5.2-5.2-5.2
	c-0.3,0-0.5,0-0.8,0.1l-3.3-6.1c-0.3-0.6-0.9-0.9-1.5-0.9h-9.9l-28.3-9.5c0,0,0,0,0,0l-3.9-1.3l-2.3-6l4.1-3.9l9.4-1.8
	c0.6-0.1,1.1-0.5,1.3-1.1l2.2-5.7l7.7-2.2L55,7.6c-4.5,1.9-7.7,6.3-7.7,11.5c0,6.8,5.6,12.4,12.4,12.4c6.8,0,12.4-5.6,12.4-12.4
	c0-1.7-0.4-3.4-1-4.9h14.1l1.8,1.8c-0.3,0.7-0.5,1.4-0.5,2.2c0,2.8,2.3,5.2,5.2,5.2c1.8,0,3.3-0.9,4.3-2.3l13.5,3.5
	c0.2,2.6,2.4,4.7,5.1,4.7c2.8,0,5.2-2.3,5.2-5.2S117.5,19.1,114.6,19.1z M17.1,14.9c-0.7-0.6-0.9-1.6-0.3-2.4
	c0.6-0.8,1.6-0.9,2.4-0.4l0.2,0.1c0.3,0.3,0.5,0.8,0.5,1.3c0,1-0.8,1.7-1.7,1.7c-0.3,0-0.6-0.1-0.9-0.2C17.2,15,17.2,15,17.1,14.9z
	 M5.2,25.3c-0.9,0-1.7-0.8-1.7-1.7c0-0.9,0.8-1.7,1.7-1.7h0.2c0.9,0.1,1.6,0.8,1.6,1.7c0,0.9-0.7,1.6-1.6,1.7H5.2z M22,37.9
	c-0.3,0.2-0.7,0.3-1,0.3c-0.5,0-1-0.2-1.4-0.7c-0.6-0.7-0.4-1.8,0.3-2.4c0.1,0,0.1-0.1,0.2-0.1c0.3-0.2,0.6-0.2,0.9-0.2
	c1,0,1.7,0.8,1.7,1.7c0,0.5-0.2,0.9-0.5,1.2L22,37.9z M42.2,38.7c0.7,0,1.2,0.4,1.5,0.9c0,0.1,0,0.1,0.1,0.2c0.3,0.9-0.1,1.9-1,2.2
	c-0.2,0.1-0.4,0.1-0.6,0.1c-0.7,0-1.3-0.4-1.6-1.1l-0.1-0.2c0-0.1-0.1-0.3-0.1-0.4C40.5,39.5,41.2,38.7,42.2,38.7z M59.8,53.7
	c-0.6-0.7-0.5-1.8,0.2-2.4c0.7-0.6,1.8-0.5,2.4,0.2l0.1,0.2c0.2,0.3,0.3,0.6,0.3,0.9c0,1-0.8,1.7-1.7,1.7c-0.5,0-0.9-0.2-1.2-0.5
	L59.8,53.7z M43.3,65.5c-0.9-0.2-1.5-1.2-1.2-2.1c0.2-0.9,1.2-1.5,2.1-1.2l0.2,0.1c0.6,0.3,1.1,0.9,1.1,1.6c0,1-0.8,1.7-1.7,1.7
	c-0.1,0-0.2,0-0.2,0L43.3,65.5z M52.8,84.4c-0.2,0.1-0.4,0.1-0.6,0.1c-0.7,0-1.3-0.4-1.6-1c-0.4-0.9,0-1.9,0.9-2.2l0.2-0.1
	c0.2,0,0.3-0.1,0.5-0.1c1,0,1.7,0.8,1.7,1.7c0,0.7-0.4,1.2-0.9,1.5C52.9,84.4,52.8,84.4,52.8,84.4z M72,91.4
	c-0.3,0.7-0.9,1.1-1.6,1.1c-0.2,0-0.4,0-0.6-0.1c-0.9-0.3-1.3-1.3-1-2.2l0.1-0.2c0.3-0.6,0.9-1,1.5-1c1,0,1.7,0.8,1.7,1.7
	c0,0.1,0,0.3,0,0.4L72,91.4z M75.5,72.3c0-1,0.8-1.7,1.7-1.7c1,0,1.7,0.8,1.7,1.7c0,1-0.8,1.7-1.7,1.7C76.3,74,75.5,73.2,75.5,72.3z
	 M109.7,59.1c0.6,0.3,1.1,0.9,1,1.6c0,0.7-0.5,1.3-1.1,1.6l-0.2,0.1c-0.1,0-0.2,0-0.3,0c-1,0-1.7-0.8-1.7-1.7c0-1,0.8-1.7,1.7-1.7
	c0.2,0,0.3,0,0.5,0.1L109.7,59.1z M77.3,45.6c1,0,1.7,0.8,1.7,1.7c0,1-0.8,1.7-1.7,1.7c-0.2,0-0.3,0-0.5-0.1c-0.1,0-0.1-0.1-0.2-0.1
	c-0.3-0.2-0.6-0.4-0.8-0.8L75.7,48c-0.1-0.2-0.1-0.4-0.1-0.6C75.6,46.4,76.4,45.6,77.3,45.6z M68.7,19.1c0,5-4,9-9,9c-5,0-9-4-9-9
	c0-4.1,2.7-7.5,6.4-8.6c0.8-0.2,1.7-0.4,2.6-0.4c0.5,0,1,0.1,1.5,0.1c0.7,0.1,1.4,0.3,2,0.6c1.7,0.7,3.1,1.9,4,3.4
	C68.2,15.6,68.7,17.3,68.7,19.1z M91.3,19.8c-0.3-0.1-0.5-0.2-0.8-0.4l-0.1-0.1C90.2,19,90,18.6,90,18.2c0-1,0.8-1.7,1.7-1.7
	c1,0,1.7,0.8,1.7,1.7c0,1-0.8,1.7-1.7,1.7c-0.1,0-0.2,0-0.3,0L91.3,19.8z M112.9,24.2c0-1,0.8-1.7,1.7-1.7c0.1,0,0.2,0,0.2,0
	l0.2,0.1c0.9,0.2,1.5,1.2,1.2,2.1c-0.2,0.9-1.2,1.5-2.1,1.2l-0.2,0C113.4,25.6,112.9,24.9,112.9,24.2z"/>
</svg>
