<?xml version="1.0" encoding="utf-8"?>
<!-- Generator: Adobe Illustrator 28.2.0, SVG Export Plug-In . SVG Version: 6.00 Build 0)  -->
<svg version="1.1" id="Layer_1" xmlns="http://www.w3.org/2000/svg" xmlns:xlink="http://www.w3.org/1999/xlink" x="0px" y="0px"
	 viewBox="0 0 140.9 122.2" style="enable-background:new 0 0 140.9 122.2;" xml:space="preserve">
<style type="text/css">
	.st0{fill:#FFFFFF;}
</style>
<rect class="st0" width="140.9" height="122.2"/>
<g id="FROG_00000006688404039053220790000013879584505137160341_">
	<g id="BG_x5F_CIRCLES_00000036948117495764994720000005273924134296517267_">
		<circle class="st0" cx="70.4" cy="42" r="7.1"/>
		<circle class="st0" cx="34.2" cy="45" r="2.3"/>
		<circle class="st0" cx="44.7" cy="53.5" r="2.3"/>
		<circle class="st0" cx="58.7" cy="56.1" r="2.3"/>
		<circle class="st0" cx="42.9" cy="38.3" r="2.3"/>
		<circle class="st0" cx="103" cy="69.5" r="2.3"/>
		<circle class="st0" cx="81.9" cy="77.1" r="2.3"/>
		<circle class="st0" cx="77.4" cy="89.4" r="2.3"/>
		<circle class="st0" cx="65.3" cy="84.1" r="2.3"/>
		<circle class="st0" cx="59.8" cy="71.6" r="2.3"/>
		<circle class="st0" cx="71.3" cy="64.1" r="2.3"/>
		<circle class="st0" cx="91.5" cy="41.4" r="2.3"/>
		<circle class="st0" cx="106.7" cy="45.4" r="2.3"/>
		<path class="st0" d="M84.3,60.7c0,1.3-1,2.3-2.3,2.3s-2.3-1-2.3-2.3s1-2.3,2.3-2.3S84.3,59.4,84.3,60.7z"/>
	</g>
	<path id="OUTLINE_00000145744939755140566240000014167068181778301089_" d="M106.7,42c-1.2,0-2.2,0.6-2.8,1.5l-8.9-2.3
		c-0.1-1.7-1.6-3.1-3.4-3.1c-0.5,0-1.1,0.1-1.5,0.4l-1.5-1.5c-0.2-0.2-0.5-0.3-0.8-0.3H76.5c-1.5-1.7-3.7-2.7-6.1-2.7
		c-0.3,0-0.5,0-0.7,0l-3-4c-0.3-0.4-0.8-0.5-1.2-0.4L59,31.3c-0.3,0.1-0.6,0.3-0.7,0.7l-1.4,3.7l-5.9,1.2c-0.2,0-0.4,0.1-0.6,0.3
		l-3.2,3l-1.1-0.8c0.1-0.3,0.1-0.6,0.1-1c0-1.9-1.5-3.4-3.4-3.4c-1.9,0-3.4,1.5-3.4,3.4c0,1.9,1.5,3.4,3.4,3.4
		c0.7,0,1.4-0.2,1.9-0.6l2.3,1.7l0,0l0.4,1h-9.9c-0.5-1.3-1.7-2.3-3.2-2.3c-1.9,0-3.4,1.5-3.4,3.4c0,1.9,1.5,3.4,3.4,3.4
		c1.5,0,2.7-1,3.2-2.3h10.8l0.3,0.7c0.1,0.3,0.4,0.6,0.7,0.7l1.1,0.4l-3.7,2.8c-0.5-0.4-1.2-0.6-1.9-0.6c-1.9,0-3.4,1.5-3.4,3.4
		c0,1.9,1.5,3.4,3.4,3.4c1.9,0,3.4-1.5,3.4-3.4c0-0.4-0.1-0.7-0.2-1l4.9-3.7l2,0.7l1.6,4.1c-0.7,0.6-1.2,1.5-1.2,2.6
		c0,1.9,1.5,3.4,3.4,3.4c1.9,0,3.4-1.5,3.4-3.4c0-1.9-1.5-3.4-3.4-3.4c0,0-0.1,0-0.1,0l-0.9-2.3l13.5,4.5c0.1,0,0.2,0.1,0.4,0.1h6.1
		l1.8,3.4c-0.6,0.6-0.9,1.4-0.9,2.3c0,1.9,1.5,3.4,3.4,3.4c1,0,1.9-0.4,2.5-1.1l15.1,6.4c0,0.1,0,0.1,0,0.2c0,0,0,0,0,0l-15,5.4
		c-0.6-0.8-1.6-1.2-2.6-1.2c-0.4,0-0.8,0.1-1.2,0.2l-6.6-8c0.3-0.5,0.5-1.1,0.5-1.8c0-1.9-1.5-3.4-3.4-3.4c-1.9,0-3.4,1.5-3.4,3.4
		c0,1.9,1.5,3.4,3.4,3.4c0.4,0,0.8-0.1,1.2-0.2l6.5,7.9l-15.7-3.9c-0.2-1.7-1.6-3.1-3.4-3.1c-1.9,0-3.4,1.5-3.4,3.4
		c0,1.9,1.5,3.4,3.4,3.4c1.2,0,2.2-0.6,2.8-1.5l15.7,3.9l-10.5,4.4c-0.6-0.7-1.5-1.1-2.5-1.1c-1.9,0-3.4,1.5-3.4,3.4
		c0,1.9,1.5,3.4,3.4,3.4c1.9,0,3.4-1.5,3.4-3.4c0-0.1,0-0.1,0-0.2l10.7-4.5c0.1,0.1,0.2,0.2,0.3,0.3L77.4,86c0,0,0,0-0.1,0
		c-1.9,0-3.4,1.5-3.4,3.4c0,1.9,1.5,3.4,3.4,3.4c1.9,0,3.4-1.5,3.4-3.4c0-1.1-0.5-2-1.2-2.6l2.3-6.2c0,0,0,0,0.1,0
		c1.9,0,3.4-1.5,3.4-3.4c0,0,0,0,0,0l15-5.4c0.6,0.8,1.6,1.2,2.6,1.2c1.9,0,3.4-1.5,3.4-3.4c0-1.9-1.5-3.4-3.4-3.4
		c-1,0-1.9,0.4-2.5,1.1l-15.1-6.4c0-0.1,0-0.1,0-0.2c0-1.9-1.5-3.4-3.4-3.4c-0.2,0-0.4,0-0.5,0l-2.2-4c-0.2-0.4-0.6-0.6-1-0.6h-6.6
		l-18.7-6.3c0,0,0,0,0,0l-2.6-0.9l-1.5-4l2.7-2.6l6.2-1.2c0.4-0.1,0.7-0.3,0.8-0.7l1.5-3.8l5.1-1.5l1.9,2.6c-3,1.2-5.1,4.2-5.1,7.6
		c0,4.5,3.7,8.2,8.2,8.2s8.2-3.7,8.2-8.2c0-1.1-0.2-2.2-0.7-3.2h9.3l1.2,1.2c-0.2,0.4-0.3,0.9-0.3,1.4c0,1.9,1.5,3.4,3.4,3.4
		c1.2,0,2.2-0.6,2.8-1.5l8.9,2.3c0.1,1.7,1.6,3.1,3.4,3.1c1.9,0,3.4-1.5,3.4-3.4C110.1,43.5,108.5,42,106.7,42z M42.2,39.2
		c-0.5-0.4-0.6-1.1-0.2-1.6c0.4-0.5,1.1-0.6,1.6-0.2l0.1,0.1c0.2,0.2,0.4,0.5,0.4,0.8c0,0.6-0.5,1.1-1.1,1.1c-0.2,0-0.4-0.1-0.6-0.2
		C42.2,39.3,42.2,39.3,42.2,39.2z M34.2,46.1c-0.6,0-1.1-0.5-1.1-1.1c0-0.6,0.5-1.1,1.1-1.1h0.1c0.6,0.1,1,0.5,1,1.1
		c0,0.6-0.5,1.1-1,1.1H34.2z M45.4,54.4c-0.2,0.2-0.4,0.2-0.7,0.2c-0.3,0-0.7-0.2-0.9-0.5c-0.4-0.5-0.3-1.2,0.2-1.6
		c0,0,0.1-0.1,0.1-0.1c0.2-0.1,0.4-0.2,0.6-0.2c0.6,0,1.1,0.5,1.1,1.1c0,0.3-0.1,0.6-0.3,0.8L45.4,54.4z M58.7,55
		c0.4,0,0.8,0.3,1,0.6c0,0,0,0.1,0,0.1c0.2,0.6-0.1,1.2-0.6,1.5c-0.1,0.1-0.3,0.1-0.4,0.1c-0.5,0-0.9-0.3-1.1-0.7l0-0.1
		c0-0.1,0-0.2,0-0.3C57.6,55.5,58.1,55,58.7,55z M70.4,64.9c-0.4-0.5-0.3-1.2,0.2-1.6c0.5-0.4,1.2-0.3,1.6,0.2l0.1,0.1
		c0.1,0.2,0.2,0.4,0.2,0.6c0,0.6-0.5,1.1-1.1,1.1c-0.3,0-0.6-0.1-0.8-0.3L70.4,64.9z M59.5,72.7c-0.6-0.2-1-0.8-0.8-1.4
		c0.2-0.6,0.8-1,1.4-0.8l0.1,0c0.4,0.2,0.7,0.6,0.7,1.1c0,0.6-0.5,1.1-1.1,1.1c-0.1,0-0.1,0-0.2,0L59.5,72.7z M65.7,85.2
		c-0.1,0.1-0.3,0.1-0.4,0.1c-0.4,0-0.9-0.3-1-0.7c-0.2-0.6,0-1.2,0.6-1.5l0.1,0c0.1,0,0.2-0.1,0.3-0.1c0.6,0,1.1,0.5,1.1,1.1
		c0,0.4-0.2,0.8-0.6,1C65.8,85.2,65.8,85.2,65.7,85.2z M78.4,89.8c-0.2,0.5-0.6,0.7-1.1,0.7c-0.1,0-0.3,0-0.4-0.1
		c-0.6-0.2-0.9-0.9-0.7-1.5l0-0.1c0.2-0.4,0.6-0.6,1-0.6c0.6,0,1.1,0.5,1.1,1.1c0,0.1,0,0.2,0,0.3L78.4,89.8z M80.8,77.1
		c0-0.6,0.5-1.1,1.1-1.1c0.6,0,1.1,0.5,1.1,1.1c0,0.6-0.5,1.1-1.1,1.1C81.3,78.3,80.8,77.8,80.8,77.1z M103.4,68.5
		c0.4,0.2,0.7,0.6,0.7,1.1c0,0.5-0.3,0.9-0.7,1l-0.2,0.1c-0.1,0-0.2,0-0.2,0c-0.6,0-1.1-0.5-1.1-1.1s0.5-1.1,1.1-1.1
		c0.1,0,0.2,0,0.3,0.1L103.4,68.5z M82,59.5c0.6,0,1.1,0.5,1.1,1.1s-0.5,1.1-1.1,1.1c-0.1,0-0.2,0-0.3-0.1c0,0-0.1,0-0.1-0.1
		c-0.2-0.1-0.4-0.3-0.5-0.5l-0.1-0.1c0-0.1-0.1-0.3-0.1-0.4C80.8,60,81.4,59.5,82,59.5z M76.3,42c0,3.3-2.7,5.9-5.9,5.9
		s-5.9-2.7-5.9-5.9c0-2.7,1.8-5,4.2-5.7c0.5-0.2,1.1-0.3,1.7-0.3c0.3,0,0.7,0,1,0.1c0.5,0.1,0.9,0.2,1.3,0.4c1.1,0.5,2,1.3,2.7,2.3
		C76,39.7,76.3,40.8,76.3,42z M91.2,42.5c-0.2,0-0.4-0.1-0.5-0.3l-0.1-0.1c-0.2-0.2-0.3-0.5-0.3-0.7c0-0.6,0.5-1.1,1.1-1.1
		c0.6,0,1.1,0.5,1.1,1.1s-0.5,1.1-1.1,1.1c-0.1,0-0.1,0-0.2,0L91.2,42.5z M105.5,45.4c0-0.6,0.5-1.1,1.1-1.1c0.1,0,0.1,0,0.2,0
		l0.1,0c0.6,0.2,1,0.8,0.8,1.4c-0.2,0.6-0.8,1-1.4,0.8l-0.1,0C105.8,46.3,105.5,45.9,105.5,45.4z"/>
</g>
</svg>
