<?xml version="1.0" encoding="UTF-8"?><svg id="Layer_1" xmlns="http://www.w3.org/2000/svg" viewBox="0 0 79.3 63.3515"><defs><style>.cls-1{stroke-width:0px;}</style></defs><path class="cls-1" d="M76.0152,12.4999c-1.1795,0-2.097.6553-2.8833,1.5727l-8.9121-2.3591c-.1311-1.8348-1.5727-3.1455-3.2765-3.1455-.5242,0-1.0485.1311-1.5727.2621l-1.5727-1.5727c-.1311-.2621-.5242-.2621-.7864-.2621h-11.2712c-1.5727-1.7038-3.6697-2.7523-6.1599-2.7523-.2621,0-.5242,0-.6553.1311l-2.8833-3.9318c-.2621-.3932-.7864-.5242-1.1795-.3932l-6.422,1.8348c-.2621.1311-.5242.2621-.6553.6553l-1.4417,3.8008-6.0288,1.0485c-.2621.1311-.3932.1311-.5242.2621l-3.1455,3.0144-1.0485-.7864c.1311-.2621.1311-.6553.1311-1.0485,0-1.8348-1.5727-3.4076-3.4076-3.4076s-3.4076,1.5727-3.4076,3.4076,1.5727,3.4076,3.4076,3.4076c.6553,0,1.4417-.1311,1.9659-.5242l2.228,1.7038h0l.3932,1.0485H6.6841c-.5242-1.3106-1.8348-2.228-3.2765-2.228-1.8348,0-3.4076,1.5727-3.4076,3.4076s1.5727,3.4076,3.4076,3.4076c1.4417,0,2.7523-.9174,3.2765-2.228h10.747l.2621.6553c.1311.2621.3932.6553.6553.6553l1.0485.2621-3.6697,2.7523c-.5242-.5242-1.1795-.6553-1.8349-.6553-1.8349,0-3.4076,1.5727-3.4076,3.4076s1.5727,3.4076,3.4076,3.4076,3.4076-1.5727,3.4076-3.4076c0-.2621-.1311-.6553-.1311-1.0485l4.9803-3.6697,2.097.6553,1.5727,4.1939c-.6553.5242-1.1795,1.5727-1.1795,2.4902,0,1.8349,1.5727,3.4076,3.4076,3.4076s3.4076-1.5727,3.4076-3.4076-1.5727-3.4076-3.4076-3.4076h-.1311l-.9174-2.228,13.3682,4.5871c.1311.1311.2621.1311.2621.1311h6.1599l1.8349,3.4076c-.5242.6553-.9174,1.4417-.9174,2.3591,0,1.8349,1.5727,3.4076,3.4076,3.4076,1.0485,0,1.9659-.5242,2.4902-1.0485l15.203,6.422v.2621h0l-15.203,5.3735c-.5242-.7864-1.5727-1.3106-2.6212-1.3106-.3932,0-.7864.1311-1.1795.2621l-6.6841-8.1258c.2621-.5242.5242-1.0485.5242-1.7038,0-1.8349-1.5727-3.4076-3.4076-3.4076s-3.4076,1.5727-3.4076,3.4076,1.5727,3.4076,3.4076,3.4076c.3932,0,.7864-.1311,1.1795-.2621l6.553,7.8636-15.8583-4.0629c-.1311-1.7038-1.5727-3.1455-3.2765-3.1455-1.8349,0-3.4076,1.5727-3.4076,3.4076s1.5727,3.4076,3.4076,3.4076c1.1795,0,2.228-.6553,2.8833-1.5727l15.8583,3.9318-10.4849,4.4561c-.6553-.6553-1.5727-1.0485-2.6212-1.0485-1.8349,0-3.4076,1.5727-3.4076,3.4076s1.5727,3.4076,3.4076,3.4076,3.4076-1.5727,3.4076-3.4076v-.1311l10.747-4.5871.2621.2621-2.3591,6.2909h-.1311c-1.8349,0-3.4076,1.5727-3.4076,3.4076s1.5727,3.4076,3.4076,3.4076,3.4076-1.5727,3.4076-3.4076c0-1.0485-.5242-1.9659-1.3106-2.6212l2.3591-6.2909h.1311c1.8349,0,3.4076-1.5727,3.4076-3.4076h0l15.072-5.3735c.5242.7864,1.5727,1.3106,2.6212,1.3106,1.8349,0,3.4076-1.5727,3.4076-3.4076s-1.5727-3.4076-3.4076-3.4076c-1.0485,0-1.9659.5242-2.6212,1.0485l-15.072-6.422v-.1311c0-1.8349-1.5727-3.4076-3.4076-3.4076-.1311,0-.2621,0-.5242.1311l-1.9659-3.9318c-.1311-.3932-.5242-.6553-1.0485-.6553h-6.553l-18.7417-6.2909h0l-2.4902-.9174-1.5727-3.9318,2.7523-2.6212,6.1599-1.1795c.3932-.1311.6553-.2621.9174-.6553l1.4417-3.8008,5.1114-1.4417,1.9659,2.4902c-2.8833,1.3106-5.1114,4.1939-5.1114,7.7326,0,4.4561,3.8008,8.2568,8.2568,8.2568s8.2568-3.6697,8.2568-8.2568c0-1.0485-.2621-2.228-.6553-3.2765h9.3053l1.1795,1.1795c-.1311.5242-.2621.9174-.2621,1.4417,0,1.8348,1.5727,3.4076,3.4076,3.4076,1.1795,0,2.097-.6553,2.8833-1.5727l8.9121,2.3591c.1311,1.8348,1.5727,3.1455,3.2765,3.1455,1.8349,0,3.4076-1.5727,3.4076-3.4076.1311-1.8348-1.3106-3.5386-3.2765-3.5386ZM11.2712,9.7476c-.5242-.3932-.6553-1.0485-.2621-1.5727.3932-.5242,1.0485-.6553,1.5727-.2621l.1311.1311c.2621.2621.2621.5242.2621.9174,0,.6553-.5242,1.0485-1.0485,1.0485-.1311-.1311-.3932-.1311-.6553-.2621.1311.1311,0,0,0,0ZM3.4076,16.5628c-.6553,0-1.0485-.5242-1.0485-1.0485s.5242-1.0485,1.0485-1.0485h.1311c.6553.1311,1.0485.5242,1.0485,1.0485s-.5242,1.0485-1.1795,1.0485h0ZM14.5477,24.9507c-.1311.1311-.5242.2621-.6553.2621-.2621,0-.6553-.1311-.9174-.5242-.3932-.5242-.2621-1.1795.1311-1.5727.1311,0,.1311-.1311.1311-.1311.2621-.1311.3932-.1311.6553-.1311.6553,0,1.0485.5242,1.0485,1.0485,0,.2621-.1311.5242-.2621.7864l-.1311.2621ZM27.9159,25.606c.5242,0,.7864.2621,1.0485.6553,0,0,0,.1311.1311.1311.2621.6553-.1311,1.3106-.6553,1.4417-.1311.1311-.2621.1311-.3932.1311-.5242,0-.9174-.2621-1.0485-.6553l-.1311-.1311c0-.1311-.1311-.2621-.1311-.2621.1311-.9174.5242-1.3106,1.1795-1.3106ZM39.5803,35.4355c-.3932-.5242-.2621-1.1795.1311-1.5727.5242-.3932,1.1795-.2621,1.5727.1311l.1311.1311c.1311.2621.2621.3932.2621.6553,0,.6553-.5242,1.0485-1.0485,1.0485-.3932,0-.7864,0-1.0485-.3932h0ZM28.7023,43.2992c-.6553-.1311-1.0485-.7864-.7864-1.4417.1311-.5242.7864-1.0485,1.4417-.7864l.1311.1311c.3932.2621.6553.6553.6553,1.0485,0,.6553-.5242,1.0485-1.0485,1.0485h-.3932ZM34.9932,55.881c-.1311.1311-.2621.1311-.3932.1311-.5242,0-.9174-.2621-1.0485-.6553-.2621-.5242,0-1.3106.6553-1.4417l.1311-.1311c.1311,0,.2621-.1311.2621-.1311.6553,0,1.0485.5242,1.0485,1.0485s-.2621.7864-.6553,1.0485c.1311.1311,0,.1311,0,.1311ZM47.7061,60.4681c-.2621.5242-.6553.6553-1.0485.6553-.1311,0-.2621,0-.3932-.1311-.6553-.2621-.9174-.9174-.6553-1.4417l.1311-.1311c.2621-.3932.5242-.6553,1.0485-.6553.6553,0,1.0485.5242,1.0485,1.0485v.2621c-.1311.1311-.1311.3932-.1311.3932ZM50.0652,47.7552c0-.6553.5242-1.0485,1.0485-1.0485.6553,0,1.0485.5242,1.0485,1.0485,0,.6553-.5242,1.0485-1.0485,1.0485-.6553,0-1.0485-.3932-1.0485-1.0485ZM72.7387,38.9742c.3932.2621.6553.6553.6553,1.0485s-.2621.9174-.6553,1.0485l-.1311.1311h-.1311c-.6553,0-1.0485-.5242-1.0485-1.0485,0-.6553.5242-1.0485,1.0485-1.0485q0-.1311.2621-.1311h0ZM51.2447,30.062c.6553,0,1.0485.5242,1.0485,1.0485,0,.6553-.5242,1.0485-1.0485,1.0485q-.1311,0-.2621-.1311c-.1311,0-.1311-.1311-.1311-.1311-.1311-.1311-.3932-.2621-.5242-.5242h-.1311c-.1311-.1311-.1311-.2621-.1311-.3932,0-.2621.5242-.9174,1.1795-.9174ZM45.4781,12.4999c0,3.2765-2.6212,6.0288-6.0288,6.0288-3.2765,0-6.0288-2.6212-6.0288-6.0288,0-2.7523,1.7038-4.9803,4.1939-5.6356.5242-.1311,1.0485-.2621,1.7038-.2621.2621,0,.6553.1311,1.0485.1311.5242.1311.9174.1311,1.4417.3932,1.0485.5242,2.097,1.3106,2.6212,2.228.7864.9174,1.0485,1.9659,1.0485,3.1455ZM60.55,13.0242c-.1311-.1311-.2621-.1311-.5242-.2621l-.1311-.1311c-.1311-.2621-.2621-.5242-.2621-.6553,0-.6553.5242-1.0485,1.0485-1.0485.6553,0,1.0485.5242,1.0485,1.0485,0,.6553-.5242,1.0485-1.0485,1.0485h-.1311c.1311,0,0,0,0,0ZM74.8357,15.9075c0-.6553.5242-1.0485,1.0485-1.0485h.1311l.1311.1311c.5242.1311,1.0485.7864.7864,1.3106-.1311.6553-.7864,1.0485-1.3106.7864h-.1311c-.2621-.2621-.6553-.6553-.6553-1.1795Z"/></svg>