<?xml version="1.0" encoding="utf-8"?>
<!-- Generator: Adobe Illustrator 28.2.0, SVG Export Plug-In . SVG Version: 6.00 Build 0)  -->
<svg version="1.1" id="Layer_1" xmlns="http://www.w3.org/2000/svg" xmlns:xlink="http://www.w3.org/1999/xlink" x="0px" y="0px"
	 viewBox="0 0 107.9 86.4" style="enable-background:new 0 0 107.9 86.4;" xml:space="preserve">
<path d="M90.9,23.5c-1.2,0-2.2,0.6-2.9,1.6l-9.1-2.4c-0.1-1.8-1.6-3.2-3.4-3.2c-0.5,0-1.1,0.1-1.6,0.3l-1.6-1.6
	c-0.2-0.2-0.5-0.3-0.8-0.3H60.1c-1.6-1.7-3.8-2.8-6.2-2.8c-0.3,0-0.5,0-0.7,0.1l-3-4c-0.3-0.4-0.8-0.5-1.2-0.4l-6.5,1.9
	c-0.3,0.1-0.6,0.3-0.7,0.7l-1.5,3.8l-6.1,1.1c-0.2,0.1-0.4,0.1-0.5,0.3l-3.2,3.1l-1.1-0.8c0.1-0.3,0.1-0.7,0.1-1
	c0-1.9-1.6-3.5-3.5-3.5c-1.9,0-3.5,1.6-3.5,3.5c0,1.9,1.6,3.5,3.5,3.5c0.7,0,1.4-0.2,2-0.6l2.3,1.7l0,0l0.4,1H20.3
	c-0.5-1.4-1.8-2.3-3.3-2.3c-1.9,0-3.5,1.6-3.5,3.5c0,1.9,1.6,3.5,3.5,3.5c1.5,0,2.8-0.9,3.3-2.3h11l0.3,0.7c0.1,0.3,0.4,0.6,0.7,0.7
	l1.1,0.3l-3.8,2.8c-0.5-0.5-1.2-0.7-1.9-0.7c-1.9,0-3.5,1.6-3.5,3.5c0,1.9,1.6,3.5,3.5,3.5s3.5-1.6,3.5-3.5c0-0.3-0.1-0.7-0.1-1.1
	l5.1-3.8l2.1,0.7l1.6,4.2c-0.7,0.6-1.2,1.6-1.2,2.6c0,1.9,1.6,3.5,3.5,3.5s3.5-1.6,3.5-3.5c0-1.9-1.6-3.5-3.5-3.5H42L41.1,32
	l13.6,4.7c0.1,0.1,0.3,0.1,0.3,0.1h6.2l1.9,3.5c-0.5,0.6-0.9,1.4-0.9,2.4c0,1.9,1.6,3.5,3.5,3.5c1,0,2-0.5,2.6-1.1l15.4,6.5v0.2l0,0
	l-15.4,5.5c-0.6-0.8-1.6-1.3-2.7-1.3c-0.4,0-0.8,0.1-1.2,0.2l-6.8-8.2c0.3-0.5,0.5-1.1,0.5-1.8c0-1.9-1.6-3.5-3.5-3.5
	c-1.9,0-3.5,1.6-3.5,3.5c0,1.9,1.6,3.5,3.5,3.5c0.4,0,0.8-0.1,1.2-0.2l6.6,8l-16.1-4.1c-0.1-1.8-1.6-3.2-3.4-3.2
	c-1.9,0-3.5,1.6-3.5,3.5c0,1.9,1.6,3.5,3.5,3.5c1.2,0,2.3-0.6,2.9-1.6l16.1,4l-10.7,4.5c-0.6-0.7-1.6-1.1-2.6-1.1
	c-1.9,0-3.5,1.6-3.5,3.5c0,1.9,1.6,3.5,3.5,3.5c1.9,0,3.5-1.6,3.5-3.5v-0.2l10.9-4.6l0.3,0.3l-2.4,6.4h-0.1c-1.9,0-3.5,1.6-3.5,3.5
	c0,1.9,1.6,3.5,3.5,3.5c1.9,0,3.5-1.6,3.5-3.5c0-1.1-0.5-2-1.3-2.7l2.4-6.4h0.1c1.9,0,3.5-1.6,3.5-3.5l0,0l15.3-5.5
	c0.6,0.8,1.6,1.3,2.7,1.3c1.9,0,3.5-1.6,3.5-3.5c0-1.9-1.6-3.5-3.5-3.5c-1,0-2,0.5-2.6,1.1l-15.4-6.5v-0.2c0-1.9-1.6-3.5-3.5-3.5
	c-0.2,0-0.3,0-0.5,0.1L63,35.1c-0.2-0.4-0.6-0.6-1-0.6h-6.7l-19.1-6.4l0,0l-2.6-0.9l-1.6-4l2.8-2.6l6.3-1.2c0.4-0.1,0.7-0.3,0.9-0.7
	l1.5-3.8l5.2-1.5l2,2.6c-3,1.3-5.2,4.3-5.2,7.8c0,4.6,3.8,8.4,8.4,8.4s8.4-3.8,8.4-8.4c0-1.1-0.3-2.3-0.7-3.3h9.5l1.2,1.2
	c-0.2,0.5-0.3,0.9-0.3,1.5c0,1.9,1.6,3.5,3.5,3.5c1.2,0,2.2-0.6,2.9-1.6l9.1,2.4c0.1,1.8,1.6,3.2,3.4,3.2c1.9,0,3.5-1.6,3.5-3.5
	S92.9,23.5,90.9,23.5z M25.1,20.7c-0.5-0.4-0.6-1.1-0.2-1.6c0.4-0.5,1.1-0.6,1.6-0.3l0.1,0.1c0.2,0.2,0.3,0.5,0.3,0.9
	c0,0.7-0.5,1.1-1.1,1.1c-0.2,0-0.4-0.1-0.6-0.1C25.2,20.8,25.1,20.7,25.1,20.7z M17.1,27.7c-0.6,0-1.1-0.5-1.1-1.1
	c0-0.6,0.5-1.1,1.1-1.1h0.1c0.6,0.1,1.1,0.5,1.1,1.1c0,0.6-0.5,1.1-1.1,1.1H17.1z M28.4,36.2c-0.2,0.1-0.5,0.2-0.7,0.2
	c-0.3,0-0.7-0.1-0.9-0.5c-0.4-0.5-0.3-1.2,0.2-1.6c0.1,0,0.1-0.1,0.1-0.1c0.2-0.1,0.4-0.1,0.6-0.1c0.7,0,1.1,0.5,1.1,1.1
	c0,0.3-0.1,0.6-0.3,0.8L28.4,36.2z M42,36.8c0.5,0,0.8,0.3,1,0.6c0,0,0,0.1,0.1,0.1c0.2,0.6-0.1,1.3-0.7,1.5
	c-0.1,0.1-0.3,0.1-0.4,0.1c-0.5,0-0.9-0.3-1.1-0.7l-0.1-0.1c0-0.1-0.1-0.2-0.1-0.3C40.9,37.3,41.4,36.8,42,36.8z M53.9,46.9
	c-0.4-0.5-0.3-1.2,0.1-1.6c0.5-0.4,1.2-0.3,1.6,0.1l0.1,0.1c0.1,0.2,0.2,0.4,0.2,0.6c0,0.7-0.5,1.1-1.1,1.1
	C54.5,47.3,54.2,47.2,53.9,46.9L53.9,46.9z M42.8,54.9c-0.6-0.1-1-0.8-0.8-1.4c0.1-0.6,0.8-1,1.4-0.8l0.1,0.1
	c0.4,0.2,0.7,0.6,0.7,1.1c0,0.7-0.5,1.1-1.1,1.1H43C43,54.9,42.8,54.9,42.8,54.9z M49.2,67.6c-0.1,0.1-0.3,0.1-0.4,0.1
	c-0.5,0-0.9-0.3-1.1-0.7c-0.3-0.6,0-1.3,0.6-1.5l0.1-0.1c0.1,0,0.2-0.1,0.3-0.1c0.7,0,1.1,0.5,1.1,1.1c0,0.5-0.3,0.8-0.6,1
	C49.3,67.6,49.2,67.6,49.2,67.6z M62.2,72.3c-0.2,0.5-0.6,0.7-1.1,0.7c-0.1,0-0.3,0-0.4-0.1c-0.6-0.2-0.9-0.9-0.7-1.5l0.1-0.1
	c0.2-0.4,0.6-0.7,1-0.7c0.7,0,1.1,0.5,1.1,1.1v0.3C62.2,72.1,62.2,72.3,62.2,72.3z M64.5,59.4c0-0.7,0.5-1.1,1.1-1.1
	c0.7,0,1.1,0.5,1.1,1.1c0,0.7-0.5,1.1-1.1,1.1S64.5,60.1,64.5,59.4z M87.6,50.5c0.4,0.2,0.7,0.6,0.7,1.1c0,0.5-0.3,0.9-0.7,1.1
	l-0.1,0.1h-0.2c-0.7,0-1.1-0.5-1.1-1.1c0-0.7,0.5-1.1,1.1-1.1C87.3,50.5,87.4,50.5,87.6,50.5L87.6,50.5z M65.7,41.4
	c0.7,0,1.1,0.5,1.1,1.1c0,0.7-0.5,1.1-1.1,1.1c-0.1,0-0.2,0-0.3-0.1c-0.1,0-0.1-0.1-0.1-0.1c-0.2-0.1-0.4-0.3-0.5-0.5h-0.1
	c-0.1-0.1-0.1-0.3-0.1-0.4C64.6,42,65.1,41.4,65.7,41.4z M59.9,23.5c0,3.4-2.7,6.1-6.1,6.1s-6.1-2.7-6.1-6.1c0-2.8,1.8-5.1,4.3-5.8
	c0.5-0.1,1.1-0.3,1.8-0.3c0.3,0,0.7,0.1,1,0.1c0.5,0.1,0.9,0.2,1.4,0.4c1.1,0.5,2.1,1.3,2.7,2.3C59.6,21.2,59.9,22.3,59.9,23.5z
	 M75.2,24c-0.2-0.1-0.3-0.1-0.5-0.3l-0.1-0.1c-0.1-0.2-0.3-0.5-0.3-0.7c0-0.7,0.5-1.1,1.1-1.1c0.7,0,1.1,0.5,1.1,1.1
	c0,0.7-0.5,1.1-1.1,1.1L75.2,24C75.3,24.1,75.2,24,75.2,24z M89.8,27c0-0.7,0.5-1.1,1.1-1.1H91l0.1,0.1c0.6,0.1,1,0.8,0.8,1.4
	c-0.1,0.6-0.8,1-1.4,0.8h-0.1C90.1,27.9,89.8,27.5,89.8,27z"/>
</svg>
