<?xml version="1.0" encoding="UTF-8"?><svg id="Layer_1" xmlns="http://www.w3.org/2000/svg" viewBox="0 0 107.91 86.3775"><defs><style>.cls-1{stroke-width:0px;}</style></defs><path class="cls-1" d="M103.23,16.9875c-1.62,0-2.97.81-3.87,2.07l-12.15-3.15c-.18-2.34-2.16-4.23-4.59-4.23-.72,0-1.44.18-2.07.45l-2.07-2.07c-.27-.27-.63-.45-1.08-.45h-15.21c-2.07-2.25-5.04-3.69-8.28-3.69-.36,0-.72,0-.99.09l-4.05-5.4c-.36-.54-1.08-.72-1.62-.54l-8.64,2.52c-.45.09-.81.45-.99.9l-1.98,5.04-8.1,1.53c-.27.09-.54.18-.72.36l-4.32,4.14-1.44-1.08c.09-.45.18-.9.18-1.35,0-2.52-2.07-4.68-4.68-4.68-2.52,0-4.68,2.07-4.68,4.68,0,2.52,2.07,4.68,4.68,4.68.99,0,1.89-.27,2.61-.81l3.06,2.25h0l.54,1.35h-13.68c-.63-1.8-2.34-3.06-4.41-3.06-2.52,0-4.68,2.07-4.68,4.68,0,2.52,2.07,4.68,4.68,4.68,1.98,0,3.69-1.26,4.41-3.06h14.67l.36.99c.18.45.54.81.99.9l1.44.45-5.04,3.78c-.72-.72-1.62-.99-2.52-.99-2.52,0-4.68,2.07-4.68,4.68,0,2.52,2.07,4.68,4.68,4.68s4.68-2.07,4.68-4.68c0-.45-.09-.99-.18-1.44l6.75-5.04,2.79.9,2.16,5.58c-.99.81-1.62,2.07-1.62,3.51,0,2.52,2.07,4.68,4.68,4.68s4.68-2.07,4.68-4.68c0-2.52-2.07-4.68-4.68-4.68h-.18l-1.26-3.15,18.18,6.21c.18.09.36.09.45.09h8.28l2.52,4.68c-.72.81-1.17,1.89-1.17,3.15,0,2.52,2.07,4.68,4.68,4.68,1.35,0,2.61-.63,3.42-1.53l20.52,8.64v.27h0l-20.52,7.38c-.81-1.08-2.16-1.71-3.6-1.71-.54,0-1.08.09-1.62.27l-9-10.98c.45-.72.72-1.53.72-2.43,0-2.52-2.07-4.68-4.68-4.68-2.52,0-4.68,2.07-4.68,4.68,0,2.52,2.07,4.68,4.68,4.68.54,0,1.08-.09,1.62-.27l8.82,10.71-21.42-5.4c-.18-2.34-2.16-4.23-4.59-4.23-2.52,0-4.68,2.07-4.68,4.68,0,2.52,2.07,4.68,4.68,4.68,1.62,0,3.06-.81,3.87-2.07l21.42,5.4-14.31,6.03c-.81-.9-2.07-1.53-3.42-1.53-2.52,0-4.68,2.07-4.68,4.68,0,2.52,2.07,4.68,4.68,4.68,2.52,0,4.68-2.07,4.68-4.68v-.27l14.58-6.12.45.45-3.15,8.55h-.09c-2.52,0-4.68,2.07-4.68,4.68,0,2.52,2.07,4.68,4.68,4.68,2.52,0,4.68-2.07,4.68-4.68,0-1.44-.63-2.7-1.71-3.6l3.15-8.55h.09c2.52,0,4.68-2.07,4.68-4.68h0l20.43-7.38c.81,1.08,2.16,1.71,3.6,1.71,2.52,0,4.68-2.07,4.68-4.68,0-2.52-2.07-4.68-4.68-4.68-1.35,0-2.61.63-3.42,1.53l-20.52-8.64v-.27c0-2.52-2.07-4.68-4.68-4.68-.27,0-.45,0-.72.09l-2.97-5.49c-.27-.54-.81-.81-1.35-.81h-8.91l-25.47-8.55h0l-3.51-1.17-2.07-5.4,3.69-3.51,8.46-1.62c.54-.09.99-.45,1.17-.99l1.98-5.13,6.93-1.98,2.61,3.42c-4.05,1.71-6.93,5.67-6.93,10.35,0,6.12,5.04,11.16,11.16,11.16s11.16-5.04,11.16-11.16c0-1.53-.36-3.06-.9-4.41h12.69l1.62,1.62c-.27.63-.45,1.26-.45,1.98,0,2.52,2.07,4.68,4.68,4.68,1.62,0,2.97-.81,3.87-2.07l12.15,3.15c.18,2.34,2.16,4.23,4.59,4.23,2.52,0,4.68-2.07,4.68-4.68s-2.07-4.5-4.68-4.5ZM15.48,13.2075c-.63-.54-.81-1.44-.27-2.16.54-.72,1.44-.81,2.16-.36l.18.09c.27.27.45.72.45,1.17,0,.9-.72,1.53-1.53,1.53-.27,0-.54-.09-.81-.18q-.09,0-.18-.09ZM4.77,22.5675c-.81,0-1.53-.72-1.53-1.53s.72-1.53,1.53-1.53h.18c.81.09,1.44.72,1.44,1.53s-.63,1.44-1.44,1.53h-.18ZM19.89,33.9075c-.27.18-.63.27-.9.27-.45,0-.9-.18-1.26-.63-.54-.63-.36-1.62.27-2.16.09,0,.09-.09.18-.09.27-.18.54-.18.81-.18.9,0,1.53.72,1.53,1.53,0,.45-.18.81-.45,1.08l-.18.18ZM38.07,34.6275c.63,0,1.08.36,1.35.81q0,.09.09.18c.27.81-.09,1.71-.9,1.98-.18.09-.36.09-.54.09-.63,0-1.17-.36-1.44-.99l-.09-.18c0-.09-.09-.27-.09-.36.09-.81.72-1.53,1.62-1.53ZM53.91,48.1275c-.54-.63-.45-1.62.18-2.16.63-.54,1.62-.45,2.16.18l.09.18c.18.27.27.54.27.81,0,.9-.72,1.53-1.53,1.53-.45,0-.81-.18-1.08-.45l-.09-.09ZM39.06,58.7475c-.81-.18-1.35-1.08-1.08-1.89.18-.81,1.08-1.35,1.89-1.08l.18.09c.54.27.99.81.99,1.44,0,.9-.72,1.53-1.53,1.53h-.18l-.27-.09ZM47.61,75.7575c-.18.09-.36.09-.54.09-.63,0-1.17-.36-1.44-.9-.36-.81,0-1.71.81-1.98l.18-.09c.18,0,.27-.09.45-.09.9,0,1.53.72,1.53,1.53,0,.63-.36,1.08-.81,1.35-.09.09-.18.09-.18.09ZM64.89,82.0575c-.27.63-.81.99-1.44.99-.18,0-.36,0-.54-.09-.81-.27-1.17-1.17-.9-1.98l.09-.18c.27-.54.81-.9,1.35-.9.9,0,1.53.72,1.53,1.53v.36l-.09.27ZM68.04,64.8675c0-.9.72-1.53,1.53-1.53.9,0,1.53.72,1.53,1.53,0,.9-.72,1.53-1.53,1.53s-1.53-.72-1.53-1.53ZM98.82,52.9875c.54.27.99.81.9,1.44,0,.63-.45,1.17-.99,1.44l-.18.09h-.27c-.9,0-1.53-.72-1.53-1.53,0-.9.72-1.53,1.53-1.53.18,0,.27,0,.45.09h.09ZM69.66,40.8375c.9,0,1.53.72,1.53,1.53,0,.9-.72,1.53-1.53,1.53-.18,0-.27,0-.45-.09-.09,0-.09-.09-.18-.09-.27-.18-.54-.36-.72-.72h-.09c-.09-.18-.09-.36-.09-.54,0-.9.72-1.62,1.53-1.62ZM61.92,16.9875c0,4.5-3.6,8.1-8.1,8.1s-8.1-3.6-8.1-8.1c0-3.69,2.43-6.75,5.76-7.74.72-.18,1.53-.36,2.34-.36.45,0,.9.09,1.35.09.63.09,1.26.27,1.8.54,1.53.63,2.79,1.71,3.6,3.06.9,1.26,1.35,2.79,1.35,4.41ZM82.26,17.6175c-.27-.09-.45-.18-.72-.36l-.09-.09c-.18-.27-.36-.63-.36-.99,0-.9.72-1.53,1.53-1.53.9,0,1.53.72,1.53,1.53,0,.9-.72,1.53-1.53,1.53h-.27l-.09-.09ZM101.7,21.5775c0-.9.72-1.53,1.53-1.53h.18l.18.09c.81.18,1.35,1.08,1.08,1.89-.18.81-1.08,1.35-1.89,1.08h-.18c-.45-.27-.9-.9-.9-1.53Z"/></svg>