<?xml version="1.0" encoding="utf-8"?>
<!-- Generator: Adobe Illustrator 28.2.0, SVG Export Plug-In . SVG Version: 6.00 Build 0)  -->
<svg version="1.1" id="Layer_1" xmlns="http://www.w3.org/2000/svg" xmlns:xlink="http://www.w3.org/1999/xlink" x="0px" y="0px"
	 viewBox="0 0 79.3 63.4" style="enable-background:new 0 0 79.3 63.4;" xml:space="preserve">
<style type="text/css">
	.st0{fill:#FFFFFF;}
</style>
<rect x="-30.8" y="-29.4" class="st0" width="140.9" height="122.2"/>
<path d="M76,12.5c-1.2,0-2.1,0.7-2.9,1.6l-8.9-2.4c-0.1-1.8-1.6-3.1-3.3-3.1c-0.5,0-1,0.1-1.6,0.3l-1.6-1.6C57.7,7,57.3,7,57,7H45.7
	c-1.6-1.7-3.7-2.8-6.2-2.8c-0.3,0-0.5,0-0.7,0.1L36,0.4C35.8,0,35.3-0.1,34.9,0l-6.4,1.8c-0.3,0.1-0.5,0.3-0.7,0.7l-1.4,3.8l-6,1
	c-0.3,0.1-0.4,0.1-0.5,0.3l-3.1,3l-1-0.8c0.1-0.3,0.1-0.7,0.1-1c0-1.8-1.6-3.4-3.4-3.4S8.9,7,8.9,8.8s1.6,3.4,3.4,3.4
	c0.7,0,1.4-0.1,2-0.5l2.2,1.7l0,0l0.4,1H6.7c-0.5-1.3-1.8-2.2-3.3-2.2c-1.8,0-3.4,1.6-3.4,3.4s1.6,3.4,3.4,3.4
	c1.4,0,2.8-0.9,3.3-2.2h10.7l0.3,0.7c0.1,0.3,0.4,0.7,0.7,0.7l1,0.3l-3.7,2.8c-0.5-0.5-1.2-0.7-1.8-0.7c-1.8,0-3.4,1.6-3.4,3.4
	s1.6,3.4,3.4,3.4s3.4-1.6,3.4-3.4c0-0.3-0.1-0.7-0.1-1l5-3.7l2.1,0.7l1.6,4.2c-0.7,0.5-1.2,1.6-1.2,2.5c0,1.8,1.6,3.4,3.4,3.4
	s3.4-1.6,3.4-3.4s-1.6-3.4-3.4-3.4h-0.1L27,20.9l13.4,4.6c0.1,0.1,0.3,0.1,0.3,0.1h6.2l1.8,3.4c-0.5,0.7-0.9,1.4-0.9,2.4
	c0,1.8,1.6,3.4,3.4,3.4c1,0,2-0.5,2.5-1l15.2,6.4v0.3l0,0l-15.2,5.4C53.1,45,52,44.5,51,44.5c-0.4,0-0.8,0.1-1.2,0.3l-6.7-8.1
	c0.3-0.5,0.5-1,0.5-1.7c0-1.8-1.6-3.4-3.4-3.4s-3.4,1.6-3.4,3.4s1.6,3.4,3.4,3.4c0.4,0,0.8-0.1,1.2-0.3l6.6,7.9l-15.9-4.1
	c-0.1-1.7-1.6-3.1-3.3-3.1c-1.8,0-3.4,1.6-3.4,3.4s1.6,3.4,3.4,3.4c1.2,0,2.2-0.7,2.9-1.6l15.9,3.9l-10.5,4.5c-0.7-0.7-1.6-1-2.6-1
	c-1.8,0-3.4,1.6-3.4,3.4s1.6,3.4,3.4,3.4s3.4-1.6,3.4-3.4v-0.1L48.6,50l0.3,0.3l-2.4,6.3h-0.1c-1.8,0-3.4,1.6-3.4,3.4
	s1.6,3.4,3.4,3.4s3.4-1.6,3.4-3.4c0-1-0.5-2-1.3-2.6l2.4-6.3H51c1.8,0,3.4-1.6,3.4-3.4l0,0l15.1-5.4c0.5,0.8,1.6,1.3,2.6,1.3
	c1.8,0,3.4-1.6,3.4-3.4s-1.6-3.4-3.4-3.4c-1,0-2,0.5-2.6,1l-15.1-6.4v-0.1c0-1.8-1.6-3.4-3.4-3.4c-0.1,0-0.3,0-0.5,0.1l-2-3.9
	c-0.1-0.4-0.5-0.7-1-0.7h-6.6l-18.7-6.3l0,0l-2.5-0.9l-1.6-3.9l2.8-2.6L27,8.4c0.4-0.1,0.7-0.3,0.9-0.7L29.4,4l5.1-1.4l2,2.5
	c-2.9,1.3-5.1,4.2-5.1,7.7c0,4.5,3.8,8.3,8.3,8.3s8.3-3.7,8.3-8.3c0-1-0.3-2.2-0.7-3.3h9.3l1.2,1.2c-0.1,0.5-0.3,0.9-0.3,1.4
	c0,1.8,1.6,3.4,3.4,3.4c1.2,0,2.1-0.7,2.9-1.6l8.9,2.4c0.1,1.8,1.6,3.1,3.3,3.1c1.8,0,3.4-1.6,3.4-3.4C79.4,14.2,78,12.5,76,12.5
	L76,12.5z M11.3,9.7c-0.5-0.4-0.7-1-0.3-1.6s1-0.7,1.6-0.3L12.7,8C13,8.3,13,8.6,13,9c0,0.7-0.5,1-1,1C11.8,9.9,11.5,9.9,11.3,9.7
	C11.4,9.9,11.3,9.7,11.3,9.7L11.3,9.7z M3.4,16.6c-0.7,0-1-0.5-1-1s0.5-1,1-1h0.1c0.7,0.1,1,0.5,1,1S4.1,16.6,3.4,16.6L3.4,16.6
	L3.4,16.6z M14.5,25c-0.1,0.1-0.5,0.3-0.7,0.3c-0.3,0-0.7-0.1-0.9-0.5c-0.4-0.5-0.3-1.2,0.1-1.6c0.1,0,0.1-0.1,0.1-0.1
	c0.3-0.1,0.4-0.1,0.7-0.1c0.7,0,1,0.5,1,1c0,0.3-0.1,0.5-0.3,0.8L14.5,25L14.5,25z M27.9,25.6c0.5,0,0.8,0.3,1,0.7
	c0,0,0,0.1,0.1,0.1c0.3,0.7-0.1,1.3-0.7,1.4C28.3,28,28.2,28,28,28c-0.5,0-0.9-0.3-1-0.7l-0.1-0.1c0-0.1-0.1-0.3-0.1-0.3
	C26.9,26,27.3,25.6,27.9,25.6L27.9,25.6z M39.6,35.4c-0.4-0.5-0.3-1.2,0.1-1.6c0.5-0.4,1.2-0.3,1.6,0.1l0.1,0.1
	c0.1,0.3,0.3,0.4,0.3,0.7c0,0.7-0.5,1-1,1C40.2,35.8,39.8,35.8,39.6,35.4L39.6,35.4L39.6,35.4z M28.7,43.3c-0.7-0.1-1-0.8-0.8-1.4
	c0.1-0.5,0.8-1,1.4-0.8l0.1,0.1c0.4,0.3,0.7,0.7,0.7,1c0,0.7-0.5,1-1,1H28.7z M35,55.9C34.9,56,34.7,56,34.6,56
	c-0.5,0-0.9-0.3-1-0.7c-0.3-0.5,0-1.3,0.7-1.4l0.1-0.1c0.1,0,0.3-0.1,0.3-0.1c0.7,0,1,0.5,1,1s-0.3,0.8-0.7,1
	C35.1,55.9,35,55.9,35,55.9z M47.7,60.5c-0.3,0.5-0.7,0.7-1,0.7c-0.1,0-0.3,0-0.4-0.1c-0.7-0.3-0.9-0.9-0.7-1.4l0.1-0.1
	c0.3-0.4,0.5-0.7,1-0.7c0.7,0,1,0.5,1,1v0.3C47.7,60.2,47.7,60.5,47.7,60.5L47.7,60.5z M50.1,47.8c0-0.7,0.5-1,1-1c0.7,0,1,0.5,1,1
	c0,0.7-0.5,1-1,1C50.5,48.8,50.1,48.4,50.1,47.8z M72.7,39c0.4,0.3,0.7,0.7,0.7,1s-0.3,0.9-0.7,1l-0.1,0.1h-0.1c-0.7,0-1-0.5-1-1
	c0-0.7,0.5-1,1-1C72.5,39,72.6,39,72.7,39L72.7,39L72.7,39z M51.2,30.1c0.7,0,1,0.5,1,1c0,0.7-0.5,1-1,1c-0.1,0-0.2,0-0.3-0.1
	c-0.1,0-0.1-0.1-0.1-0.1c-0.1-0.1-0.4-0.3-0.5-0.5h-0.1c-0.1-0.1-0.1-0.3-0.1-0.4C50.1,30.7,50.6,30.1,51.2,30.1L51.2,30.1z
	 M45.5,12.5c0,3.3-2.6,6-6,6c-3.3,0-6-2.6-6-6c0-2.8,1.7-5,4.2-5.6c0.5-0.1,1-0.3,1.7-0.3c0.3,0,0.7,0.1,1,0.1
	c0.5,0.1,0.9,0.1,1.4,0.4c1,0.5,2.1,1.3,2.6,2.2C45.2,10.3,45.5,11.3,45.5,12.5L45.5,12.5z M60.5,13c-0.1-0.1-0.3-0.1-0.5-0.3
	l-0.1-0.1c-0.1-0.3-0.3-0.5-0.3-0.7c0-0.7,0.5-1,1-1c0.7,0,1,0.5,1,1c0,0.7-0.5,1-1,1H60.5C60.7,13,60.5,13,60.5,13z M74.8,15.9
	c0-0.7,0.5-1,1-1H76l0.1,0.1c0.5,0.1,1,0.8,0.8,1.3c-0.1,0.7-0.8,1-1.3,0.8h-0.1C75.2,16.8,74.8,16.4,74.8,15.9L74.8,15.9z"/>
</svg>
