<?xml version="1.0" encoding="UTF-8"?><svg id="Layer_1" xmlns="http://www.w3.org/2000/svg" viewBox="0 0 115.8 66.9"><defs><style>.cls-1{opacity:.33;}.cls-1,.cls-2,.cls-3{stroke-width:0px;}.cls-1,.cls-3{isolation:isolate;}.cls-3{opacity:.66;}</style></defs><path class="cls-1" d="M101.3,41.8l-43.4-25.1L14.5,41.8l15.1,8.7,28.3-16.5,28.3,16.5,15.1-8.7Z"/><path class="cls-3" d="M57.9,66.9l28.3-16.4-28.3-16.4-28.3,16.4,28.3,16.4Z"/><path class="cls-2" d="M57.9,16.7L14.5,41.8l43.4,25.1,43.4-25.1-43.4-25.1ZM57.9,18l41.2,23.8-13.4,7.7-27.8-16.1-27.8,16.1-13.4-7.7,41.2-23.8ZM71.3,57.9l-13.4-7.7-13.4,7.7-13.4-7.7,26.8-15.5,26.8,15.5-13.4,7.7Z"/><path class="cls-2" d="M2.9,35.1L57.9,3.3l55,31.8,2.9-1.7L57.9,0,0,33.4l2.9,1.7Z"/></svg>