<?xml version="1.0" encoding="utf-8"?>
<!-- Generator: Adobe Illustrator 28.2.0, SVG Export Plug-In . SVG Version: 6.00 Build 0)  -->
<svg version="1.1" id="Layer_1" xmlns="http://www.w3.org/2000/svg" xmlns:xlink="http://www.w3.org/1999/xlink" x="0px" y="0px"
	 viewBox="0 0 79.3 45.8" style="enable-background:new 0 0 79.3 45.8;" xml:space="preserve">
<style type="text/css">
	.st0{fill:#FFFFFF;}
	.st1{opacity:0.33;enable-background:new    ;}
	.st2{opacity:0.66;enable-background:new    ;}
</style>
<rect x="-30.8" y="-38.2" class="st0" width="140.9" height="122.2"/>
<path class="st1" d="M69.5,28.5L39.8,11.3L10,28.5l10.4,6l19.4-11.3l19.4,11.3C59.2,34.5,69.5,28.5,69.5,28.5z"/>
<path class="st2" d="M39.8,45.8l19.4-11.2L39.8,23.3L20.4,34.5C20.4,34.5,39.8,45.8,39.8,45.8z"/>
<path d="M39.8,11.3L10,28.5l29.9,17.2l29.8-17.2C69.5,28.5,39.8,11.3,39.8,11.3z M39.8,12.3l28.3,16.3l-9.3,5.2l-19-11.1l-19,11.1
	l-9.1-5.2C11.5,28.5,39.8,12.3,39.8,12.3z M49,39.7l-9.3-5.4l-9.3,5.4l-9.1-5.4l18.4-10.6l18.4,10.7C58.2,34.4,48.9,39.6,49,39.7z"
	/>
<path d="M2,24L39.7,2.3L77.3,24l2-1.2L39.7,0L0,22.8C0,22.8,2,24,2,24z"/>
</svg>
