<?xml version="1.0" encoding="utf-8"?>
<!-- Generator: Adobe Illustrator 28.2.0, SVG Export Plug-In . SVG Version: 6.00 Build 0)  -->
<svg version="1.1" id="Layer_1" xmlns="http://www.w3.org/2000/svg" xmlns:xlink="http://www.w3.org/1999/xlink" x="0px" y="0px"
	 viewBox="0 0 115.8 66.9" style="enable-background:new 0 0 115.8 66.9;" xml:space="preserve">
<style type="text/css">
	.st0{opacity:0.33;enable-background:new    ;}
	.st1{opacity:0.66;enable-background:new    ;}
</style>
<path class="st0" d="M82.3,38.1L57.9,24L33.5,38.1L42,43l15.9-9.3L73.8,43C73.8,43,82.3,38.1,82.3,38.1z"/>
<path class="st1" d="M57.9,52.2L73.8,43l-15.9-9.2L42,43L57.9,52.2z"/>
<path d="M57.9,24L33.5,38.1L58,52.2l24.4-14.1C82.3,38.1,57.9,24,57.9,24z M57.9,24.8l23.2,13.4l-7.6,4.3l-15.6-9.1l-15.6,9.1
	l-7.5-4.3C34.7,38.1,57.9,24.8,57.9,24.8z M65.5,47.2l-7.6-4.4l-7.6,4.4l-7.5-4.4l15.1-8.7L73,42.9C73,42.9,65.4,47.2,65.5,47.2z"/>
<path d="M26.9,34.4l30.9-17.8l30.9,17.8l1.6-1L57.8,14.7L25.3,33.4L26.9,34.4z"/>
</svg>
