<?xml version="1.0" encoding="utf-8"?>
<!-- Generator: Adobe Illustrator 27.0.0, SVG Export Plug-In . SVG Version: 6.00 Build 0)  -->
<svg version="1.1" id="Layer_1" xmlns="http://www.w3.org/2000/svg" xmlns:xlink="http://www.w3.org/1999/xlink" x="0px" y="0px"
	 viewBox="0 0 217 67" style="enable-background:new 0 0 217 67;" xml:space="preserve">
<style type="text/css">
	.st0{opacity:0.33;enable-background:new    ;}
	.st1{opacity:0.66;enable-background:new    ;}
</style>
<g>
	<path class="st0" d="M101.8,41.8L58.4,16.7L15,41.8l15.1,8.7l28.3-16.5l28.3,16.5L101.8,41.8z"/>
	<path class="st1" d="M58.4,66.9l28.3-16.4L58.4,34.1L30.1,50.5L58.4,66.9z"/>
	<path d="M58.4,16.7L15,41.8l43.4,25.1l43.4-25.1L58.4,16.7z M58.4,18l41.2,23.8l-13.4,7.7L58.4,33.4L30.6,49.5l-13.4-7.7L58.4,18z
		 M71.8,57.9l-13.4-7.7L45,57.9l-13.4-7.7l26.8-15.5l26.8,15.5L71.8,57.9z"/>
	<path d="M3.4,35.1l55-31.8l55,31.8l2.9-1.7L58.4,0L0.5,33.4L3.4,35.1z"/>
</g>
</svg>
