<?xml version="1.0" encoding="utf-8"?>
<!-- Generator: Adobe Illustrator 28.2.0, SVG Export Plug-In . SVG Version: 6.00 Build 0)  -->
<svg version="1.1" id="Layer_1" xmlns="http://www.w3.org/2000/svg" xmlns:xlink="http://www.w3.org/1999/xlink" x="0px" y="0px"
	 viewBox="0 0 115.8 66.9" style="enable-background:new 0 0 115.8 66.9;" xml:space="preserve">
<style type="text/css">
	.st0{opacity:0.33;enable-background:new    ;}
	.st1{opacity:0.66;enable-background:new    ;}
</style>
<path class="st0" d="M90.5,39.7L57.9,20.9L25.4,39.7l11.3,6.5l21.2-12.4l21.2,12.4C79.1,46.2,90.4,39.7,90.5,39.7z"/>
<path class="st1" d="M57.9,58.5l21.2-12.3L57.9,33.9L36.7,46.2C36.7,46.2,57.9,58.5,57.9,58.5z"/>
<path d="M57.9,20.9L25.4,39.7l32.6,18.8l32.6-18.8C90.5,39.7,57.9,20.9,57.9,20.9z M57.9,21.9l30.9,17.9l-10.1,5.8L57.9,33.4
	L37.1,45.5l-10-5.8C27,39.7,57.9,21.9,57.9,21.9z M68,51.8L57.9,46l-10.1,5.8l-10-5.8l20.1-11.6L78,46C78,46,67.9,51.8,68,51.8z"/>
<path d="M16.6,34.7l41.2-23.8l41.2,23.8l2.2-1.3l-43.4-25L14.5,33.4C14.5,33.4,16.6,34.7,16.6,34.7z"/>
</svg>
