<svg width="132" height="60" viewBox="0 0 132 60" fill="none" xmlns="http://www.w3.org/2000/svg">
<g id="Frame" clip-path="url(#clip0_103_165)">
<g id="Group">
<g id="Group_2">
<path id="Vector" d="M76.5388 38.4392C76.5388 41.9795 74.8137 43.7496 71.366 43.7496H70.6748C68.8274 43.7496 67.5027 43.2798 66.7025 42.3403C65.9023 41.4026 65.502 40.1004 65.502 38.4392V5.32861C65.502 3.63578 65.9023 2.32569 66.7025 1.40321C67.5033 0.47891 68.828 0.01828 70.6748 0.01828H71.366C73.2134 0.01828 74.5381 0.47891 75.3383 1.40321C76.139 2.32569 76.5388 3.63578 76.5388 5.32861V16.1799H72.7053V5.83549C72.7053 5.22091 72.5909 4.73655 72.3597 4.38119C72.1285 4.02765 71.6739 3.84936 70.9973 3.84936C70.351 3.84936 69.9111 4.02765 69.6799 4.38119C69.4505 4.73655 69.3343 5.22091 69.3343 5.83549V37.9293C69.3343 38.5457 69.4505 39.0307 69.6799 39.3854C69.9111 39.739 70.3504 39.9154 70.9973 39.9154C71.6739 39.9154 72.1285 39.739 72.3597 39.3854C72.5909 39.0301 72.7053 38.5457 72.7053 37.9293V27.5849H71.0423V23.7538H76.5382V38.4392H76.5388Z" fill="black"/>
<path id="Vector_2" d="M90.3464 43.7491H86.5604L86.5135 30.5411C86.5135 29.4324 86.4064 28.502 86.1904 27.7469C85.9744 26.9936 85.5588 26.1551 84.9448 25.2308C84.2347 26.3096 83.7589 27.2467 83.513 28.0475C83.2648 28.8477 83.1431 29.8797 83.1431 31.1423V43.7491H79.3096V0.617767H85.1742C88.6226 0.617767 90.347 2.40309 90.347 5.97495V12.6252C90.347 14.6563 90.1463 16.2725 89.7459 17.4731C89.3455 18.6736 88.5453 20.1377 87.3466 21.8609C88.5155 23.5239 89.3084 24.9484 89.7233 26.1319C90.1383 27.3179 90.347 28.8811 90.347 30.8204V43.7491H90.3464ZM86.5129 6.43741C86.5129 5.821 86.3985 5.33603 86.1673 4.98128C85.9361 4.62775 85.4967 4.45128 84.8499 4.45128H83.1419V21.0754C83.2337 20.9835 83.3037 20.891 83.3506 20.7991C83.3956 20.7072 83.4504 20.6299 83.5124 20.5679C84.7434 18.875 85.5515 17.5747 85.9367 16.665C86.3219 15.7571 86.5135 14.5943 86.5135 13.1795V6.43741H86.5129Z" fill="black"/>
<path id="Vector_3" d="M92.9316 43.7491L95.194 0.617767H101.705L103.969 43.7491H100.412L99.9518 34.7452L99.3038 35.6677C98.5036 36.7763 97.9189 37.669 97.5507 38.3475C97.1808 39.0241 96.9343 39.6776 96.8102 40.3093C96.6879 40.9409 96.596 41.7958 96.5339 42.8722L96.4871 43.7497H92.9316V43.7491ZM99.0269 28.7862C99.3032 28.0177 99.4419 26.9242 99.4419 25.507L98.427 6.38934L97.087 32.1116C98.1026 30.6652 98.7507 29.5572 99.0269 28.7862Z" fill="black"/>
<path id="Vector_4" d="M117.824 5.97495V12.439C117.824 14.0418 117.699 15.3646 117.454 16.4112C117.207 17.4579 116.815 18.4667 116.276 19.4367C115.736 20.4066 114.851 21.7538 113.621 23.4765C112.358 25.2016 111.535 26.5092 111.15 27.4019C110.764 28.2945 110.573 29.4501 110.573 30.8648V43.7497H106.739V0.617767H112.651C116.099 0.617767 117.824 2.40309 117.824 5.97495ZM110.572 4.45067V21.0747C110.85 20.7066 111.002 20.5052 111.035 20.4754C112.266 18.7825 113.066 17.4725 113.436 16.55C113.804 15.6257 113.991 14.4245 113.991 12.9477V6.4368C113.991 5.8204 113.867 5.33543 113.621 4.98067C113.374 4.62714 112.928 4.45067 112.281 4.45067H110.572Z" fill="black"/>
<path id="Vector_5" d="M124.381 0.617767V21.0747C124.411 21.0449 124.565 20.8435 124.842 20.4754C126.073 18.7825 126.875 17.4725 127.243 16.55C127.613 15.6257 127.798 14.4245 127.798 12.9477V0.617767H131.631V43.7491H127.798V22.969L127.43 23.4765C126.197 25.1693 125.389 26.4715 125.004 27.3794C124.618 28.2872 124.427 29.4501 124.427 30.8648L124.382 43.7497H120.594V0.617767H124.381Z" fill="black"/>
</g>
<g id="Group_3">
<g id="Group_4">
<path id="Vector_6" d="M66.127 56.9174C66.127 56.9259 66.127 56.9539 66.127 57.0014C66.127 57.05 66.127 57.1054 66.127 57.1699C66.127 57.2344 66.127 57.3068 66.127 57.3871C66.127 57.4675 66.127 57.5435 66.127 57.6159C66.127 57.9366 66.1958 58.2257 66.3321 58.4824C66.469 58.7398 66.6613 58.9583 66.9101 59.139C67.159 59.3191 67.4517 59.4597 67.7888 59.5601C68.1259 59.6605 68.491 59.7104 68.8841 59.7104C69.3496 59.7104 69.7609 59.6623 70.1187 59.5662C70.4753 59.4694 70.7735 59.3337 71.0096 59.1567C71.2469 58.9802 71.4227 58.7617 71.5396 58.5007C71.6564 58.2403 71.7099 57.9409 71.702 57.6038C71.6856 57.3068 71.5895 57.044 71.413 56.8152C71.2365 56.5864 71.0053 56.3801 70.7205 56.1957C70.4351 56.0113 70.1132 55.8385 69.7518 55.6779C69.3904 55.5172 69.0216 55.3572 68.6449 55.1966C68.2671 55.0359 67.9002 54.8674 67.543 54.6909C67.1864 54.5144 66.8688 54.3179 66.5925 54.1013C66.315 53.884 66.0899 53.64 65.9177 53.3662C65.7455 53.0936 65.6591 52.7808 65.6591 52.4273C65.6591 52.1145 65.7394 51.8219 65.9 51.5486C66.0607 51.276 66.2889 51.0393 66.5858 50.8385C66.8828 50.6383 67.2442 50.4795 67.6695 50.3633C68.0949 50.2465 68.5804 50.1887 69.1263 50.1887C69.6484 50.1887 70.1059 50.2392 70.499 50.3396C70.8921 50.44 71.2189 50.5903 71.4799 50.7905C71.7416 50.9913 71.9375 51.2383 72.0708 51.531C72.2028 51.8237 72.2685 52.1626 72.2685 52.5478V53.2701H71.6552C71.6552 53.2378 71.6552 53.1898 71.6552 53.1259C71.6552 53.062 71.6552 52.9914 71.6552 52.9153C71.6552 52.8393 71.6552 52.7687 71.6552 52.7048C71.6552 52.6409 71.6552 52.5922 71.6552 52.5606C71.6552 52.2235 71.6004 51.9241 71.4927 51.6636C71.3838 51.4032 71.2213 51.186 71.0047 51.0138C70.7881 50.8416 70.5234 50.7083 70.21 50.6164C69.8972 50.5245 69.5358 50.4777 69.1263 50.4777C68.6608 50.4777 68.2513 50.5282 67.8989 50.628C67.5454 50.7284 67.2503 50.8653 67.0142 51.0375C66.7769 51.2097 66.5986 51.4129 66.4781 51.6454C66.3576 51.8778 66.3059 52.1316 66.3211 52.4036C66.3369 52.7407 66.4355 53.034 66.6162 53.2822C66.7963 53.5311 67.0294 53.7538 67.3148 53.9504C67.6002 54.1475 67.9221 54.3282 68.2835 54.4919C68.645 54.6562 69.0094 54.8175 69.3788 54.9733C69.7481 55.1302 70.1114 55.2927 70.468 55.4613C70.8258 55.6298 71.1422 55.8184 71.4191 56.0272C71.6966 56.2359 71.9187 56.4708 72.0872 56.7312C72.2558 56.9922 72.3397 57.2953 72.3397 57.6403C72.3397 58.0255 72.2631 58.365 72.1115 58.6577C71.9588 58.9504 71.7385 59.1974 71.4495 59.3976C71.1605 59.5984 70.799 59.7487 70.3658 59.8491C69.9319 59.9489 69.439 59.9994 68.8847 59.9994C68.3559 59.9994 67.8813 59.9471 67.4639 59.8424C67.0464 59.7384 66.6935 59.5838 66.4045 59.3788C66.1154 59.1737 65.8933 58.9254 65.7363 58.6321C65.5794 58.3394 65.5015 58.0048 65.5015 57.6269V56.9168H66.127V56.9174Z" fill="black"/>
<path id="Vector_7" d="M74.001 57.9409C74.001 57.7243 74.001 57.4675 74.001 57.1706C74.001 56.8736 74.001 56.5566 74.001 56.2195C74.001 55.8824 74.001 55.5331 74.001 55.1723C74.001 54.8114 74.0028 54.4561 74.0071 54.1068C74.0107 53.7575 74.0131 53.4222 74.0131 53.1016C74.0131 52.7809 74.0131 52.4918 74.0131 52.2344C74.0131 51.8894 74.0795 51.5888 74.2121 51.3314C74.3442 51.0747 74.545 50.8605 74.8139 50.687C75.0835 50.5148 75.4145 50.3883 75.8076 50.308C76.2007 50.2276 76.654 50.1875 77.1682 50.1875C77.6897 50.1875 78.1467 50.2276 78.5397 50.308C78.9334 50.3883 79.2626 50.5148 79.5273 50.687C79.792 50.8599 79.9928 51.0747 80.1291 51.3314C80.266 51.5888 80.3342 51.8894 80.3342 52.2344C80.3342 52.4918 80.3342 52.7809 80.3342 53.1016C80.3342 53.4222 80.3342 53.7575 80.3342 54.1068C80.3342 54.4561 80.3342 54.8114 80.3342 55.1723C80.3342 55.5331 80.3342 55.8824 80.3342 56.2195C80.3342 56.5566 80.3342 56.8736 80.3342 57.1706C80.3342 57.4681 80.3342 57.7243 80.3342 57.9409C80.3342 58.278 80.2624 58.5756 80.1176 58.8317C79.9733 59.0885 79.7671 59.3033 79.4975 59.4761C79.2292 59.6483 78.9 59.7792 78.5111 59.8668C78.1211 59.9556 77.6745 59.9994 77.1688 59.9994C76.6625 59.9994 76.2135 59.9575 75.8198 59.8729C75.4267 59.7889 75.0975 59.6605 74.8334 59.4871C74.5681 59.3149 74.3649 59.1001 74.2249 58.8427C74.0837 58.5871 74.0089 58.2865 74.001 57.9409ZM74.6393 52.2466C74.6314 52.4955 74.6277 52.7803 74.6277 53.1016C74.6277 53.4222 74.6277 53.7575 74.6277 54.1068C74.6277 54.4561 74.6277 54.8114 74.6277 55.1723C74.6277 55.5331 74.6277 55.8824 74.6277 56.2195C74.6277 56.5566 74.6277 56.8736 74.6277 57.1706C74.6277 57.4681 74.6277 57.7243 74.6277 57.9409C74.6356 58.2299 74.6971 58.4825 74.8139 58.6997C74.9308 58.9163 75.0951 59.1007 75.3074 59.2534C75.5198 59.4056 75.7826 59.5206 76.096 59.5966C76.4088 59.6733 76.766 59.711 77.1676 59.711C77.5759 59.711 77.9355 59.6727 78.244 59.5966C78.5537 59.5206 78.816 59.4062 79.0326 59.2534C79.2492 59.1013 79.4135 58.9163 79.5261 58.6997C79.6387 58.4825 79.7026 58.2299 79.719 57.9409C79.719 57.7243 79.7172 57.4675 79.7129 57.1706C79.708 56.8736 79.7062 56.5566 79.7062 56.2195C79.7062 55.8824 79.7062 55.5331 79.7062 55.1723C79.7062 54.8114 79.7062 54.4561 79.7062 54.1068C79.7062 53.7575 79.7062 53.4222 79.7062 53.1016C79.7062 52.7809 79.7062 52.4955 79.7062 52.2466C79.7062 51.9576 79.6466 51.7051 79.5261 51.4884C79.4056 51.2712 79.2352 51.0911 79.015 50.9469C78.7935 50.8027 78.527 50.6919 78.2148 50.6159C77.9014 50.5392 77.5528 50.4935 77.1676 50.4771C76.766 50.4856 76.4082 50.5252 76.096 50.5976C75.7826 50.6694 75.518 50.7783 75.3013 50.9225C75.0847 51.0667 74.9204 51.2499 74.8078 51.4708C74.6947 51.6911 74.6393 51.9497 74.6393 52.2466Z" fill="black"/>
<path id="Vector_8" d="M86.9306 59.4457V59.879H82.3188V50.2964H82.945V59.5784L86.9306 59.4457Z" fill="black"/>
<path id="Vector_9" d="M88.3267 50.2842H88.9528V57.8447C88.9528 58.1654 88.9966 58.4423 89.0861 58.6753C89.1743 58.9084 89.3185 59.1013 89.5193 59.2534C89.7201 59.4055 89.9848 59.5205 90.314 59.5966C90.6432 59.6733 91.0442 59.711 91.5182 59.711C91.8389 59.711 92.1334 59.6909 92.403 59.6507C92.6713 59.6106 92.9141 59.5503 93.1307 59.47C93.3473 59.3903 93.5342 59.2881 93.6911 59.1633C93.8469 59.0392 93.9771 58.8962 94.0818 58.7356C94.1542 58.6157 94.2023 58.4806 94.226 58.3321C94.2504 58.1837 94.2662 58.0212 94.2753 57.8447L94.0459 50.2842H94.6355V57.8563C94.6355 58.0571 94.6179 58.2421 94.5814 58.4106C94.5449 58.5792 94.4913 58.7356 94.4189 58.8798C94.3228 59.0721 94.1889 59.2394 94.0155 59.3793C93.8433 59.5199 93.6346 59.6367 93.3893 59.7286C93.1441 59.8205 92.8563 59.8887 92.5234 59.9337C92.1906 59.9775 91.8152 60 91.3977 60C90.9 60 90.4582 59.9617 90.073 59.8856C89.6879 59.8096 89.3666 59.6872 89.1098 59.5187C88.853 59.3501 88.6601 59.1293 88.5317 58.8567C88.4033 58.584 88.3346 58.2506 88.3267 57.8575V50.2842Z" fill="black"/>
<path id="Vector_10" d="M96.0557 50.2964H103.351V50.7175L99.9689 50.5848V59.879H99.3427V50.5854L96.0557 50.7181V50.2964Z" fill="black"/>
<path id="Vector_11" d="M105.181 50.2964H105.807V59.879H105.181V50.2964Z" fill="black"/>
<path id="Vector_12" d="M107.975 57.9409C107.975 57.7243 107.975 57.4675 107.975 57.1706C107.975 56.8736 107.975 56.5566 107.975 56.2195C107.975 55.8824 107.975 55.5331 107.975 55.1723C107.975 54.8114 107.976 54.4561 107.981 54.1068C107.984 53.7575 107.987 53.4222 107.987 53.1016C107.987 52.7809 107.987 52.4918 107.987 52.2344C107.987 51.8894 108.053 51.5888 108.186 51.3314C108.318 51.0747 108.519 50.8605 108.788 50.687C109.057 50.5148 109.388 50.3883 109.781 50.308C110.174 50.2276 110.628 50.1875 111.142 50.1875C111.663 50.1875 112.12 50.2276 112.513 50.308C112.907 50.3883 113.236 50.5148 113.501 50.687C113.766 50.8599 113.966 51.0747 114.103 51.3314C114.24 51.5888 114.308 51.8894 114.308 52.2344C114.308 52.4918 114.308 52.7809 114.308 53.1016C114.308 53.4222 114.308 53.7575 114.308 54.1068C114.308 54.4561 114.308 54.8114 114.308 55.1723C114.308 55.5331 114.308 55.8824 114.308 56.2195C114.308 56.5566 114.308 56.8736 114.308 57.1706C114.308 57.4681 114.308 57.7243 114.308 57.9409C114.308 58.278 114.236 58.5756 114.091 58.8317C113.947 59.0885 113.741 59.3033 113.471 59.4761C113.203 59.6483 112.874 59.7792 112.485 59.8668C112.095 59.9556 111.648 59.9994 111.142 59.9994C110.636 59.9994 110.187 59.9575 109.793 59.8729C109.4 59.7889 109.071 59.6605 108.807 59.4871C108.542 59.3149 108.338 59.1001 108.199 58.8427C108.057 58.5871 107.983 58.2865 107.975 57.9409ZM108.612 52.2466C108.604 52.4955 108.601 52.7803 108.601 53.1016C108.601 53.4222 108.601 53.7575 108.601 54.1068C108.601 54.4561 108.601 54.8114 108.601 55.1723C108.601 55.5331 108.601 55.8824 108.601 56.2195C108.601 56.5566 108.601 56.8736 108.601 57.1706C108.601 57.4681 108.601 57.7243 108.601 57.9409C108.609 58.2299 108.67 58.4825 108.787 58.6997C108.904 58.9163 109.068 59.1007 109.28 59.2534C109.493 59.4056 109.756 59.5206 110.069 59.5966C110.382 59.6733 110.739 59.711 111.141 59.711C111.549 59.711 111.909 59.6727 112.217 59.5966C112.527 59.5206 112.789 59.4062 113.006 59.2534C113.222 59.1013 113.387 58.9163 113.499 58.6997C113.612 58.4825 113.676 58.2299 113.692 57.9409C113.692 57.7243 113.69 57.4675 113.686 57.1706C113.681 56.8736 113.679 56.5566 113.679 56.2195C113.679 55.8824 113.679 55.5331 113.679 55.1723C113.679 54.8114 113.679 54.4561 113.679 54.1068C113.679 53.7575 113.679 53.4222 113.679 53.1016C113.679 52.7809 113.679 52.4955 113.679 52.2466C113.679 51.9576 113.62 51.7051 113.499 51.4884C113.379 51.2712 113.208 51.0911 112.988 50.9469C112.767 50.8027 112.5 50.6919 112.188 50.6159C111.874 50.5392 111.526 50.4935 111.141 50.4771C110.739 50.4856 110.381 50.5252 110.069 50.5976C109.756 50.6694 109.491 50.7783 109.274 50.9225C109.058 51.0667 108.893 51.2499 108.781 51.4708C108.668 51.6911 108.612 51.9497 108.612 52.2466Z" fill="black"/>
<path id="Vector_13" d="M116.269 50.2964H116.726L122.638 59.0484L122.36 50.2964H122.95V59.879H122.492L116.594 51.1385L116.894 59.879H116.268V50.2964H116.269Z" fill="black"/>
<path id="Vector_14" d="M125.418 56.9174C125.418 56.9259 125.418 56.9539 125.418 57.0014C125.418 57.05 125.418 57.1054 125.418 57.1699C125.418 57.2344 125.418 57.3068 125.418 57.3871C125.418 57.4675 125.418 57.5435 125.418 57.6159C125.418 57.9366 125.486 58.2257 125.623 58.4824C125.759 58.7398 125.952 58.9583 126.201 59.139C126.449 59.3191 126.743 59.4597 127.08 59.5601C127.417 59.6605 127.782 59.7104 128.175 59.7104C128.641 59.7104 129.052 59.6623 129.409 59.5662C129.766 59.4694 130.063 59.3337 130.3 59.1567C130.536 58.9802 130.713 58.7617 130.829 58.5007C130.946 58.2403 130.999 57.9409 130.991 57.6038C130.976 57.3068 130.879 57.044 130.702 56.8152C130.526 56.5864 130.296 56.3801 130.01 56.1957C129.725 56.0113 129.402 55.8385 129.042 55.6779C128.68 55.5172 128.311 55.3572 127.934 55.1966C127.556 55.0359 127.189 54.8674 126.832 54.6909C126.474 54.5144 126.158 54.3179 125.881 54.1013C125.604 53.884 125.38 53.64 125.207 53.3662C125.035 53.0936 124.948 52.7808 124.948 52.4273C124.948 52.1145 125.029 51.8219 125.188 51.5486C125.349 51.276 125.578 51.0393 125.875 50.8385C126.172 50.6383 126.533 50.4795 126.959 50.3633C127.384 50.2465 127.869 50.1887 128.416 50.1887C128.937 50.1887 129.394 50.2392 129.787 50.3396C130.181 50.44 130.508 50.5903 130.769 50.7905C131.029 50.9913 131.226 51.2383 131.358 51.531C131.49 51.8237 131.557 52.1626 131.557 52.5478V53.2701H130.943C130.943 53.2378 130.943 53.1898 130.943 53.1259C130.943 53.062 130.943 52.9914 130.943 52.9153C130.943 52.8393 130.943 52.7687 130.943 52.7048C130.943 52.6409 130.943 52.5922 130.943 52.5606C130.943 52.2235 130.888 51.9241 130.78 51.6636C130.672 51.4032 130.51 51.186 130.293 51.0138C130.076 50.8416 129.811 50.7083 129.499 50.6164C129.185 50.5245 128.824 50.4777 128.415 50.4777C127.949 50.4777 127.54 50.5282 127.186 50.628C126.833 50.7284 126.539 50.8653 126.302 51.0375C126.064 51.2097 125.886 51.4129 125.766 51.6454C125.645 51.8778 125.593 52.1316 125.61 52.4036C125.626 52.7407 125.724 53.034 125.905 53.2822C126.085 53.5311 126.317 53.7538 126.602 53.9504C126.888 54.1475 127.211 54.3282 127.571 54.4919C127.932 54.6562 128.298 54.8175 128.667 54.9733C129.036 55.1302 129.4 55.2927 129.757 55.4613C130.113 55.6298 130.431 55.8184 130.708 56.0272C130.984 56.2359 131.207 56.4708 131.376 56.7312C131.544 56.9922 131.628 57.2953 131.628 57.6403C131.628 58.0255 131.552 58.365 131.399 58.6577C131.246 58.9504 131.026 59.1974 130.737 59.3976C130.448 59.5984 130.088 59.7487 129.653 59.8491C129.22 59.9489 128.727 59.9994 128.173 59.9994C127.643 59.9994 127.169 59.9471 126.752 59.8424C126.335 59.7384 125.981 59.5838 125.693 59.3788C125.404 59.1737 125.18 58.9254 125.024 58.6321C124.867 58.3394 124.79 58.0048 124.79 57.6269V56.9168H125.418V56.9174Z" fill="black"/>
</g>
</g>
<path id="Vector_15" d="M51.1981 8.78423C45.5343 3.11975 38.0029 0 29.9915 0C21.98 0 14.4487 3.11975 8.78423 8.78423C3.11914 14.4487 0 21.98 0 29.9915C0 46.5291 13.4538 59.983 29.9915 59.983C38.0029 59.983 45.5343 56.8632 51.1981 51.1987C56.8626 45.5349 59.9824 38.0035 59.9824 29.9915C59.9824 21.9794 56.8626 14.4487 51.1981 8.78423ZM9.80772 12.3993C14.7177 7.58915 21.0971 4.96227 27.8319 4.96227C28.0437 4.96227 28.2561 4.96471 28.4684 4.96958C35.3006 5.1576 41.646 7.99075 46.8182 13.163C51.9886 18.3339 54.8223 24.6793 55.011 31.5115C55.1868 38.4763 52.465 45.297 47.5447 50.2245C44.5248 53.2524 40.9158 55.4564 36.9831 56.7439C40.1716 55.4546 43.107 53.5165 45.6268 50.9839C50.3779 46.217 52.8794 39.6495 52.4906 32.9652C52.1273 26.7373 49.3288 20.9645 44.1712 15.8075C39.0088 10.6444 33.2354 7.84593 27.0135 7.48814C20.432 7.10783 14.0763 9.51503 9.11647 14.2607C6.63016 16.6393 4.69758 19.4165 3.37349 22.448C4.69758 18.7039 6.87234 15.2757 9.80772 12.3993ZM9.9641 15.1479C14.3544 10.9468 19.8893 8.67653 25.6712 8.67653C26.0935 8.67653 26.5182 8.68869 26.9429 8.71303C32.939 9.05744 38.2907 11.6618 43.3041 16.6752C48.312 21.6831 50.9164 27.0348 51.2657 33.0364C51.6356 39.3726 49.2631 45.5988 44.7578 50.1193C41.9387 52.9524 38.5749 55.0055 34.9142 56.1902C37.8325 55.0006 40.5233 53.2135 42.8398 50.8769C47.1845 46.5097 49.3367 40.5209 48.7422 34.4457C48.2153 29.0477 45.7217 24.383 40.6578 19.3191C35.5854 14.2467 30.9194 11.7525 25.53 11.2334C19.7377 10.6766 13.8189 12.7778 9.28319 16.9983V16.9977C6.93745 19.1804 5.11501 21.7379 3.87185 24.5363C5.10892 21.029 7.16746 17.8234 9.9641 15.1479ZM10.1193 17.897C13.9479 14.3349 18.811 12.3725 23.6875 12.3725C24.2631 12.3725 24.8388 12.3999 25.4126 12.4553C30.499 12.9451 34.9337 15.3298 39.7913 20.1868C44.641 25.0359 47.0251 29.4706 47.5228 34.5655C48.0802 40.2757 46.057 45.9054 41.9709 50.0134C39.3453 52.6603 36.2176 54.5674 32.8186 55.6487C35.4777 54.5582 37.9329 52.9177 40.0554 50.7704C43.9412 46.8535 45.7874 41.3028 44.9945 35.9213C44.1572 30.2446 40.8038 26.4902 37.1443 22.8313C33.4782 19.1651 29.7177 15.8063 24.0538 14.9817C18.9546 14.2418 13.6327 15.9724 9.45236 19.7353C7.2423 21.7245 5.52817 24.066 4.36534 26.6356C5.51235 23.3601 7.4571 20.3736 10.1193 17.897ZM10.2732 20.6474C13.5907 17.6603 17.6652 16.0399 21.719 16.0399C22.4401 16.0399 23.1611 16.091 23.8761 16.1951C29.1688 16.9654 32.7626 20.1838 36.2772 23.6984C39.7846 27.2064 42.9981 30.7941 43.7806 36.1002C44.5175 41.1014 42.7991 46.2626 39.184 49.9069C36.7774 52.3415 33.9175 54.086 30.819 55.0676C33.1812 54.0757 35.3675 52.5946 37.2697 50.6627C40.718 47.176 42.2399 42.0896 41.2407 37.3883C40.2988 32.9506 37.6098 30.2866 34.4956 27.2028L32.7565 25.4631C29.6739 22.35 27.0117 19.6617 22.5837 18.7331C18.1605 17.8039 13.4404 19.1682 9.62213 22.4711C7.52586 24.2832 5.91153 26.4342 4.8278 28.8037C5.88049 25.732 7.72423 22.9409 10.2732 20.6474ZM10.4247 23.3984C13.2329 20.9706 16.5547 19.6751 19.8314 19.6751C20.6712 19.6751 21.5079 19.7603 22.3324 19.9331C26.4001 20.7862 28.9424 23.3534 31.8863 26.3265L33.6333 28.0741C36.6076 31.0198 39.1761 33.564 40.042 37.6433C40.956 41.9454 39.5595 46.604 36.3971 49.8016C34.1651 52.0689 31.5212 53.6759 28.6589 54.5473C30.785 53.6534 32.7601 52.3153 34.4852 50.5556C37.5198 47.4735 38.6966 42.877 37.4833 38.8439C36.5346 35.6876 34.4743 33.8384 32.2934 31.8815C31.5827 31.2444 30.8489 30.5854 30.1181 29.8546C29.386 29.1226 28.7258 28.3857 28.0875 27.6737C26.1288 25.4892 24.2802 23.4258 21.1275 22.4887C17.3816 21.3752 13.2506 22.3634 9.79555 25.2038C7.82159 26.8267 6.31131 28.7721 5.3079 30.9255C6.26263 28.0747 7.99927 25.4953 10.4247 23.3984ZM10.575 26.1513C12.8745 24.2601 15.4886 23.2688 18.0425 23.2688C18.968 23.2688 19.8862 23.3997 20.7777 23.6644C23.5974 24.5029 25.2544 26.3521 27.1735 28.4934C27.8228 29.2181 28.494 29.9665 29.2503 30.7223C30.0049 31.4768 30.7515 32.1468 31.4738 32.7948C33.612 34.7134 35.4588 36.3703 36.3089 39.1974C37.3944 42.8076 36.3363 46.9277 33.6102 49.6964C31.5906 51.7567 29.2741 53.177 26.7628 53.9461C28.5414 53.1544 30.2014 51.9843 31.6995 50.4479C34.3489 47.7437 35.1582 43.6589 33.7136 40.2848C32.7541 38.0407 31.1421 36.8839 29.4347 35.659C28.4958 34.9854 27.5246 34.2887 26.6034 33.3674C25.6827 32.4474 24.9866 31.475 24.313 30.5355C23.0857 28.8238 21.9271 27.207 19.6848 26.2565C16.6387 24.9659 13.0084 25.5945 9.97079 27.936V27.9366C8.1374 29.3501 6.74638 31.0667 5.82329 32.978C6.68188 30.3754 8.28952 28.0303 10.575 26.1513ZM19.2065 27.3847C21.1324 28.2013 22.1449 29.6136 23.3175 31.2492C24.0191 32.2295 24.7457 33.2427 25.7375 34.2339C26.73 35.227 27.7425 35.9529 28.7203 36.6551C30.3523 37.8259 31.7616 38.8372 32.5873 40.7667C33.8384 43.6899 33.1295 47.2356 30.8227 49.5905C28.9954 51.4647 26.9095 52.7388 24.6605 53.4021C26.1835 52.706 27.6135 51.6831 28.9157 50.3389C31.1774 48.0121 31.6022 44.3806 29.9258 41.7044C28.9339 40.1205 27.5143 39.4524 26.1415 38.8055C25.0986 38.3145 24.0203 37.807 23.0918 36.8784C22.165 35.9517 21.6563 34.8716 21.1647 33.8262C20.5166 32.4504 19.8467 31.0278 18.2646 30.0432C15.858 28.5445 12.8259 28.7763 10.1546 30.6639C8.4453 31.8711 7.1705 33.3279 6.33321 34.9732C7.08288 32.6415 8.553 30.5793 10.7217 28.9065V28.9071C13.4027 26.8401 16.5772 26.2699 19.2065 27.3847ZM25.2477 49.38C22.8989 51.8224 20.101 52.9098 17.1644 52.518C14.613 52.1796 12.0293 50.7077 10.0755 48.4794C8.14653 46.2797 7.04089 43.6005 7.0415 41.1282C7.04211 38.3534 8.40818 36.0369 10.9931 34.4286C11.694 33.9929 12.563 33.6826 13.4544 33.6826C14.3276 33.6826 15.2227 33.9796 16.004 34.7463C16.803 35.53 16.9916 36.5724 17.1918 37.6762C17.4048 38.8573 17.6476 40.1953 18.7106 41.2584C19.7755 42.3232 21.1105 42.5636 22.2892 42.7747C23.3918 42.9731 24.4335 43.1605 25.2233 43.965C26.6551 45.4241 26.6661 47.905 25.2477 49.38ZM26.1318 50.2306C28.0297 48.2561 28.0145 45.0602 26.0977 43.1058C25.0353 42.022 23.6911 41.7811 22.5058 41.5675C21.4074 41.3697 20.37 41.1835 19.5771 40.3907C18.7861 39.5984 18.5974 38.5585 18.3978 37.4571C18.183 36.2718 17.9396 34.9276 16.8626 33.8706C15.1174 32.1559 12.6208 31.9715 10.3444 33.3875C8.62663 34.4566 7.53681 35.7022 6.85469 36.9539C7.50517 34.8899 8.8469 33.0887 10.861 31.6655C13.1173 30.0724 15.6414 29.8552 17.6153 31.0849C18.8895 31.8784 19.4292 33.0236 20.0535 34.3495C20.5909 35.4898 21.1458 36.6685 22.2234 37.7461C23.3029 38.8262 24.4797 39.3799 25.6182 39.916C26.9417 40.5391 28.0845 41.077 28.8852 42.3555C30.244 44.5242 29.8783 47.5891 28.034 49.4852C26.4032 51.1689 24.5546 52.2965 22.577 52.8545C23.7422 52.3001 24.9465 51.4628 26.1318 50.2306ZM50.331 50.3316C47.1048 53.5585 43.2439 55.9164 39.0325 57.3056C42.4985 55.9164 45.6852 53.8256 48.4124 51.0916C53.5688 45.928 56.4202 38.78 56.2371 31.4799C56.0393 24.3264 53.082 17.6932 47.6853 12.2965C42.2873 6.8985 35.6541 3.94122 28.5001 3.74407C21.206 3.57673 14.2534 6.32834 8.95035 11.5237C6.32043 14.1 4.27467 17.1005 2.86966 20.37C4.28015 16.3837 6.57296 12.7303 9.65133 9.65194C15.0846 4.21869 22.3086 1.22612 29.9915 1.22612C37.6756 1.22612 44.8984 4.21809 50.331 9.65133C55.7643 15.084 58.7556 22.3074 58.7556 29.9915C58.7556 37.6756 55.7643 44.899 50.331 50.3316Z" fill="black"/>
</g>
</g>
<defs>
<clipPath id="clip0_103_165">
<rect width="131.631" height="60" fill="white"/>
</clipPath>
</defs>
</svg>
